<?xml version="1.0" encoding="UTF-8"?>
<svg xmlns="http://www.w3.org/2000/svg" xmlns:xlink="http://www.w3.org/1999/xlink" version="1.2" >
<font id="Verdana Regular">
<font-face  font-family="Verdana" units-per-em="2048" ascent="1566" descent="-423" font-style="normal" font-weight="400" font-stretch="normal" cap-height="1489" x-height="1117" underline-position="-180" underline-thickness="120" />
<missing-glyph  horiz-adv-x="2048" d="M256 0 L256 1536 L1792 1536 L1792 0 L256 0 Z M384 128 L1664 128 L1664 1408 L384 1408 L384 128 Z " />
<glyph glyph-name="&amp;#x20;" unicode="&#x20;" horiz-adv-x="720" d="" />
<glyph glyph-name="&amp;#xa0;" unicode="&#xa0;" horiz-adv-x="720" d="" />
<glyph glyph-name="exclam" unicode="&#x21;" horiz-adv-x="806" d="M515 1489 L489 410 L319 410 L291 1489 L515 1489 Z M505 0 L301 0 L301 211 L505 211 L505 0 Z " />
<glyph glyph-name="quotedbl" unicode="&#x22;" horiz-adv-x="940" d="M772 1556 L729 977 L597 977 L554 1556 L772 1556 Z M386 1556 L343 977 L211 977 L168 1556 L386 1556 Z " />
<glyph glyph-name="numbersign" unicode="&#x23;" horiz-adv-x="1676" d="M1481 932 L1148 932 L1056 556 L1364 556 L1364 421 L1021 421 L917 0 L788 0 L892 421 L622 421 L518 0 L389 0 L493 421 L195 421 L195 556 L528 556 L620 932 L312 932 L312 1067 L655 1067 L760 1489 L889 1489 L784 1067 L1054 1067 L1159 1489 L1288 1489 L1183 1067 L1481 1067 L1481 932 Z M1022 934 L748 934 L654 554 L928 554 L1022 934 Z " />
<glyph glyph-name="dollar" unicode="&#x24;" horiz-adv-x="1302" d="M1160 380 Q1160 225 1039 122.5 Q918 20 722 1 L722 -361 L604 -361 L604 -4 Q472 -3 356 21.5 Q240 46 155 85 L155 283 L171 283 Q190 269 239 242.5 Q288 216 334 199 Q386 180 455.5 163.5 Q525 147 604 144 L604 577 Q564 585 530 592.5 Q496 600 467 608 Q304 649 233 731.5 Q162 814 162 935 Q162 1083 278.5 1185 Q395 1287 604 1304 L604 1576 L722 1576 L722 1306 Q823 1304 929 1282 Q1035 1260 1107 1231 L1107 1035 L1093 1035 Q1018 1081 936.5 1116.5 Q855 1152 722 1161 L722 730 Q752 725 787 716.5 Q822 708 848 703 Q997 671 1078.5 593 Q1160 515 1160 380 Z M604 747 L604 1160 Q497 1152 424 1101.5 Q351 1051 351 961 Q351 870 405 824 Q459 778 604 747 Z M971 354 Q971 448 912.5 491.5 Q854 535 722 560 L722 146 Q842 158 906.5 207 Q971 256 971 354 Z " />
<glyph glyph-name="percent" unicode="&#x25;" horiz-adv-x="2204" d="M884 1076 Q884 852 789.5 743 Q695 634 517 634 Q335 634 242 743 Q149 852 149 1075 Q149 1299 244 1408 Q339 1517 517 1517 Q698 1517 791 1407 Q884 1297 884 1076 Z M1575 1489 L795 0 L630 0 L1410 1489 L1575 1489 Z M2055 413 Q2055 189 1960 80 Q1865 -29 1687 -29 Q1506 -29 1413 81 Q1320 191 1320 412 Q1320 636 1414.5 745 Q1509 854 1687 854 Q1869 854 1962 745 Q2055 636 2055 413 Z M706 1076 Q706 1248 661.5 1316 Q617 1384 517 1384 Q415 1384 371 1316 Q327 1248 327 1075 Q327 902 371 834.5 Q415 767 517 767 Q617 767 661.5 834.5 Q706 902 706 1076 Z M1877 413 Q1877 585 1832.5 653 Q1788 721 1688 721 Q1586 721 1542 653 Q1498 585 1498 412 Q1498 239 1542 171.5 Q1586 104 1688 104 Q1788 104 1832.5 171.5 Q1877 239 1877 413 Z " />
<glyph glyph-name="ampersand" unicode="&#x26;" horiz-adv-x="1488" d="M792 1191 Q792 1286 735.5 1340.5 Q679 1395 591 1395 Q499 1395 441 1333.5 Q383 1272 383 1183 Q383 1108 422.5 1050 Q462 992 593 913 Q691 948 741.5 1015.5 Q792 1083 792 1191 Z M986 315 L508 781 Q477 766 446 741.5 Q415 717 384 675 Q356 636 338 581 Q320 526 320 457 Q320 311 405.5 221.5 Q491 132 648 132 Q741 132 832.5 177.5 Q924 223 986 315 Z M1287 909 L1287 813 Q1287 717 1262 597 Q1237 477 1177 368 L1555 0 L1309 0 L1080 224 Q965 82 845 25.5 Q725 -31 598 -31 Q390 -31 252.5 90.5 Q115 212 115 409 Q115 501 141 568 Q167 635 202 684 Q237 731 289 772.5 Q341 814 394 845 Q284 917 235.5 990 Q187 1063 187 1174 Q187 1241 213.5 1301.5 Q240 1362 293 1412 Q343 1460 423.5 1490 Q504 1520 601 1520 Q774 1520 881 1432.5 Q988 1345 988 1211 Q988 1167 976 1111.5 Q964 1056 935 1012 Q903 963 844 918 Q785 873 691 841 L1062 479 Q1076 519 1083 567 Q1090 615 1091 667 Q1093 723 1092.5 792 Q1092 861 1092 909 L1287 909 Z " />
<glyph glyph-name="quotesingle" unicode="&#x27;" horiz-adv-x="550" d="M386 1556 L343 977 L207 977 L164 1556 L386 1556 Z " />
<glyph glyph-name="parenleft" unicode="&#x28;" horiz-adv-x="930" d="M783 -412 L554 -412 Q377 -209 279 31 Q181 271 181 572 Q181 873 279 1113 Q377 1353 554 1556 L783 1556 L783 1546 Q702 1473 628.5 1377.5 Q555 1282 492 1155 Q432 1032 394.5 884 Q357 736 357 572 Q357 401 393.5 259 Q430 117 492 -11 Q552 -134 629 -233.5 Q706 -333 783 -402 L783 -412 Z " />
<glyph glyph-name="parenright" unicode="&#x29;" horiz-adv-x="930" d="M749 572 Q749 271 651 31 Q553 -209 376 -412 L147 -412 L147 -402 Q224 -333 301.5 -233.5 Q379 -134 438 -11 Q500 117 536.5 259 Q573 401 573 572 Q573 736 536 884 Q499 1032 438 1155 Q375 1282 301.5 1377.5 Q228 1473 147 1546 L147 1556 L376 1556 Q553 1353 651 1113 Q749 873 749 572 Z " />
<glyph glyph-name="asterisk" unicode="&#x2a;" horiz-adv-x="1302" d="M1137 887 L1073 777 L711 990 L717 630 L588 630 L593 990 L232 776 L167 886 L548 1093 L167 1300 L232 1410 L594 1197 L588 1556 L717 1556 L710 1197 L1073 1409 L1137 1299 L757 1094 L1137 887 Z " />
<glyph glyph-name="plus" unicode="&#x2b;" horiz-adv-x="1676" d="M1466 572 L921 572 L921 27 L755 27 L755 572 L210 572 L210 732 L755 732 L755 1277 L921 1277 L921 732 L1466 732 L1466 572 Z " />
<glyph glyph-name="comma" unicode="&#x2c;" horiz-adv-x="745" d="M575 285 L293 -370 L147 -370 L321 285 L575 285 Z " />
<glyph glyph-name="&amp;#x2d;" unicode="&#x2d;" horiz-adv-x="930" d="M777 561 L153 561 L153 742 L777 742 L777 561 Z " />
<glyph glyph-name="&amp;#xad;" unicode="&#xad;" horiz-adv-x="930" d="M777 561 L153 561 L153 742 L777 742 L777 561 Z " />
<glyph glyph-name="period" unicode="&#x2e;" horiz-adv-x="745" d="M492 0 L253 0 L253 285 L492 285 L492 0 Z " />
<glyph glyph-name="slash" unicode="&#x2f;" horiz-adv-x="930" d="M860 1556 L143 -304 L-30 -304 L684 1556 L860 1556 Z " />
<glyph glyph-name="zero" unicode="0" horiz-adv-x="1302" d="M1167 745 Q1167 344 1041.5 156.5 Q916 -31 652 -31 Q384 -31 260.5 159 Q137 349 137 743 Q137 1140 262 1329.5 Q387 1519 652 1519 Q920 1519 1043.5 1326.5 Q1167 1134 1167 745 Z M904 291 Q939 372 951.5 481.5 Q964 591 964 745 Q964 897 951.5 1009 Q939 1121 903 1199 Q868 1276 807.5 1315 Q747 1354 652 1354 Q558 1354 496.5 1315 Q435 1276 399 1197 Q365 1123 352.5 1004 Q340 885 340 743 Q340 587 351 482 Q362 377 398 294 Q431 216 491.5 175 Q552 134 652 134 Q746 134 808 173 Q870 212 904 291 Z " />
<glyph glyph-name="one" unicode="1" horiz-adv-x="1302" d="M1084 0 L278 0 L278 152 L588 152 L588 1150 L278 1150 L278 1286 Q341 1286 413 1296.5 Q485 1307 522 1327 Q568 1352 594.5 1390.5 Q621 1429 625 1494 L780 1494 L780 152 L1084 152 L1084 0 Z " />
<glyph glyph-name="two" unicode="2" horiz-adv-x="1302" d="M1169 0 L161 0 L161 209 Q266 299 371.5 389 Q477 479 568 568 Q760 754 831 863.5 Q902 973 902 1100 Q902 1216 825.5 1281.5 Q749 1347 612 1347 Q521 1347 415 1315 Q309 1283 208 1217 L198 1217 L198 1427 Q269 1462 387.5 1491 Q506 1520 617 1520 Q846 1520 976 1409.5 Q1106 1299 1106 1110 Q1106 1025 1084.5 951.5 Q1063 878 1021 812 Q982 750 929.5 690 Q877 630 802 557 Q695 452 581 353.5 Q467 255 368 171 L1169 171 L1169 0 Z " />
<glyph glyph-name="three" unicode="3" horiz-adv-x="1302" d="M1038 717 Q1086 674 1117 609 Q1148 544 1148 441 Q1148 339 1111 254 Q1074 169 1007 106 Q932 36 830.5 2.5 Q729 -31 608 -31 Q484 -31 364 -1.5 Q244 28 167 63 L167 272 L182 272 Q267 216 382 179 Q497 142 604 142 Q667 142 738 163 Q809 184 853 225 Q899 269 921.5 322 Q944 375 944 456 Q944 536 918.5 588.5 Q893 641 848 671 Q803 702 739 713.5 Q675 725 601 725 L511 725 L511 891 L581 891 Q733 891 823.5 954.5 Q914 1018 914 1140 Q914 1194 891 1234.5 Q868 1275 827 1301 Q784 1327 735 1337 Q686 1347 624 1347 Q529 1347 422 1313 Q315 1279 220 1217 L210 1217 L210 1426 Q281 1461 399.5 1490.5 Q518 1520 629 1520 Q738 1520 821 1500 Q904 1480 971 1436 Q1043 1388 1080 1320 Q1117 1252 1117 1161 Q1117 1037 1029.5 944.5 Q942 852 823 828 L823 814 Q871 806 933 780.5 Q995 755 1038 717 Z " />
<glyph glyph-name="four" unicode="4" horiz-adv-x="1302" d="M1203 419 L982 419 L982 0 L790 0 L790 419 L77 419 L77 649 L798 1489 L982 1489 L982 579 L1203 579 L1203 419 Z M790 579 L790 1251 L213 579 L790 579 Z " />
<glyph glyph-name="five" unicode="5" horiz-adv-x="1302" d="M1157 473 Q1157 369 1119 274 Q1081 179 1015 114 Q943 44 843.5 6.5 Q744 -31 613 -31 Q491 -31 378 -5.5 Q265 20 187 56 L187 267 L201 267 Q283 215 393 178.5 Q503 142 609 142 Q680 142 746.5 162 Q813 182 865 232 Q909 275 931.5 335 Q954 395 954 474 Q954 551 927.5 604 Q901 657 854 689 Q802 727 727.5 742.5 Q653 758 561 758 Q473 758 391.5 746 Q310 734 251 722 L251 1489 L1147 1489 L1147 1314 L444 1314 L444 918 Q487 922 532 924 Q577 926 610 926 Q731 926 822 905.5 Q913 885 989 833 Q1069 778 1113 691 Q1157 604 1157 473 Z " />
<glyph glyph-name="six" unicode="6" horiz-adv-x="1302" d="M1191 483 Q1191 256 1041.5 112.5 Q892 -31 675 -31 Q565 -31 475 3 Q385 37 316 104 Q230 187 183.5 324 Q137 461 137 654 Q137 852 179.5 1005 Q222 1158 315 1277 Q403 1390 542 1453.5 Q681 1517 866 1517 Q925 1517 965 1512 Q1005 1507 1046 1494 L1046 1303 L1036 1303 Q1008 1318 951.5 1331.5 Q895 1345 836 1345 Q621 1345 493 1210.5 Q365 1076 344 847 Q428 898 509.5 924.5 Q591 951 698 951 Q793 951 865.5 933.5 Q938 916 1014 863 Q1102 802 1146.5 709 Q1191 616 1191 483 Z M988 475 Q988 568 960.5 629 Q933 690 870 735 Q824 767 768 777 Q712 787 651 787 Q566 787 493 767 Q420 747 343 705 Q341 683 340 662.5 Q339 642 339 611 Q339 453 371.5 361.5 Q404 270 461 217 Q507 173 560.5 152.5 Q614 132 677 132 Q822 132 905 220.5 Q988 309 988 475 Z " />
<glyph glyph-name="seven" unicode="7" horiz-adv-x="1302" d="M1173 1266 L499 0 L285 0 L1002 1314 L154 1314 L154 1489 L1173 1489 L1173 1266 Z " />
<glyph glyph-name="eight" unicode="8" horiz-adv-x="1302" d="M1180 415 Q1180 222 1029.5 94 Q879 -34 651 -34 Q409 -34 265.5 91 Q122 216 122 411 Q122 535 194 635.5 Q266 736 397 795 L397 801 Q277 865 219.5 941 Q162 1017 162 1131 Q162 1299 300 1411 Q438 1523 651 1523 Q874 1523 1007 1416 Q1140 1309 1140 1144 Q1140 1043 1077 945.5 Q1014 848 892 793 L892 787 Q1032 727 1106 639 Q1180 551 1180 415 Z M943 1142 Q943 1249 860.5 1312.5 Q778 1376 650 1376 Q524 1376 443.5 1316 Q363 1256 363 1154 Q363 1082 403.5 1029.5 Q444 977 526 936 Q563 918 632.5 889 Q702 860 768 841 Q867 907 905 978 Q943 1049 943 1142 Z M974 396 Q974 488 933.5 543.5 Q893 599 775 655 Q728 677 672 696 Q616 715 523 749 Q433 700 378.5 616 Q324 532 324 426 Q324 291 417 203 Q510 115 653 115 Q799 115 886.5 190 Q974 265 974 396 Z " />
<glyph glyph-name="nine" unicode="9" horiz-adv-x="1302" d="M1167 834 Q1167 639 1122.5 480 Q1078 321 988 209 Q897 95 760 33 Q623 -29 438 -29 Q386 -29 340 -23.5 Q294 -18 258 -6 L258 185 L268 185 Q297 170 350 156.5 Q403 143 468 143 Q689 143 814.5 275.5 Q940 408 960 641 Q867 585 785 561 Q703 537 606 537 Q514 537 439.5 555 Q365 573 290 625 Q202 686 157.5 780 Q113 874 113 1005 Q113 1233 263 1376 Q413 1519 629 1519 Q737 1519 829 1485.5 Q921 1452 990 1385 Q1075 1302 1121 1171.5 Q1167 1041 1167 834 Z M965 877 Q965 1032 933 1126 Q901 1220 845 1272 Q798 1317 744 1336.5 Q690 1356 627 1356 Q483 1356 399.5 1266 Q316 1176 316 1013 Q316 918 343 858 Q370 798 434 753 Q479 722 533 711.5 Q587 701 653 701 Q731 701 811 722 Q891 743 961 783 Q962 804 963.5 824.5 Q965 845 965 877 Z " />
<glyph glyph-name="colon" unicode="&#x3a;" horiz-adv-x="930" d="M585 832 L346 832 L346 1117 L585 1117 L585 832 Z M585 0 L346 0 L346 285 L585 285 L585 0 Z " />
<glyph glyph-name="&amp;#x3b;" unicode="&#x3b;" horiz-adv-x="930" d="M585 832 L346 832 L346 1117 L585 1117 L585 832 Z M658 285 L376 -370 L230 -370 L404 285 L658 285 Z " />
<glyph glyph-name="&amp;#x37e;" unicode="&#x37e;" horiz-adv-x="930" d="M585 832 L346 832 L346 1117 L585 1117 L585 832 Z M658 285 L376 -370 L230 -370 L404 285 L658 285 Z " />
<glyph glyph-name="less" unicode="&#x3c;" horiz-adv-x="1676" d="M1408 77 L254 590 L254 714 L1408 1227 L1408 1047 L498 652 L1408 257 L1408 77 Z " />
<glyph glyph-name="equal" unicode="&#x3d;" horiz-adv-x="1676" d="M1431 782 L245 782 L245 942 L1431 942 L1431 782 Z M1431 362 L245 362 L245 522 L1431 522 L1431 362 Z " />
<glyph glyph-name="greater" unicode="&#x3e;" horiz-adv-x="1676" d="M1422 590 L268 77 L268 257 L1178 652 L268 1047 L268 1227 L1422 714 L1422 590 Z " />
<glyph glyph-name="question" unicode="&#x3f;" horiz-adv-x="1117" d="M1005 1139 Q1005 1041 970 964.5 Q935 888 878 829 Q822 772 749 722 Q676 672 594 625 L594 400 L415 400 L415 705 Q480 742 555.5 786 Q631 830 679 875 Q737 927 769 982.5 Q801 1038 801 1124 Q801 1237 724.5 1292.5 Q648 1348 527 1348 Q419 1348 322.5 1314 Q226 1280 170 1245 L160 1245 L160 1449 Q230 1476 337.5 1497.5 Q445 1519 541 1519 Q756 1519 880.5 1414.5 Q1005 1310 1005 1139 Z M610 0 L406 0 L406 211 L610 211 L610 0 Z " />
<glyph glyph-name="at" unicode="&#x40;" horiz-adv-x="2048" d="M1870 663 Q1870 524 1829.5 394 Q1789 264 1714 157 L1274 157 L1247 273 Q1173 213 1105 181 Q1037 149 949 149 Q781 149 680.5 276 Q580 403 580 631 Q580 858 703 993 Q826 1128 997 1128 Q1070 1128 1126 1111.5 Q1182 1095 1247 1062 L1247 1110 L1406 1110 L1406 268 L1649 268 Q1691 343 1712.5 455.5 Q1734 568 1734 657 Q1734 821 1688.5 955 Q1643 1089 1555 1185 Q1467 1281 1337 1332.5 Q1207 1384 1042 1384 Q882 1384 749.5 1326 Q617 1268 522 1170 Q426 1072 371.5 935.5 Q317 799 317 645 Q317 480 369 343.5 Q421 207 516 110 Q615 9 748 -42.5 Q881 -94 1038 -94 Q1124 -94 1215.5 -83 Q1307 -72 1391 -48 L1391 -190 Q1294 -211 1210 -218.5 Q1126 -226 1037 -226 Q851 -226 692 -162.5 Q533 -99 419 15 Q304 130 240 291 Q176 452 176 647 Q176 832 243 991.5 Q310 1151 426 1268 Q542 1385 701 1452 Q860 1519 1041 1519 Q1237 1519 1391 1457 Q1545 1395 1651 1283 Q1757 1171 1813.5 1013.5 Q1870 856 1870 663 Z M1245 408 L1245 926 Q1182 955 1132 967.5 Q1082 980 1025 980 Q896 980 823 890 Q750 800 750 634 Q750 471 808 387.5 Q866 304 989 304 Q1056 304 1123 335 Q1190 366 1245 408 Z " />
<glyph glyph-name="A" unicode="A" horiz-adv-x="1400" d="M1374 0 L1163 0 L1017 415 L373 415 L227 0 L26 0 L568 1489 L832 1489 L1374 0 Z M956 585 L695 1316 L433 585 L956 585 Z " />
<glyph glyph-name="B" unicode="B" horiz-adv-x="1404" d="M1323 458 Q1323 347 1281 262 Q1239 177 1168 122 Q1084 56 983.5 28 Q883 0 728 0 L200 0 L200 1489 L641 1489 Q804 1489 885 1477 Q966 1465 1040 1427 Q1122 1384 1159 1316.5 Q1196 1249 1196 1155 Q1196 1049 1142 974.5 Q1088 900 998 855 L998 847 Q1149 816 1236 714.5 Q1323 613 1323 458 Z M990 1129 Q990 1183 972 1220 Q954 1257 914 1280 Q867 1307 800 1313.5 Q733 1320 634 1320 L398 1320 L398 890 L654 890 Q747 890 802 899.5 Q857 909 904 939 Q951 969 970.5 1016.5 Q990 1064 990 1129 Z M1117 450 Q1117 540 1090 593 Q1063 646 992 683 Q944 708 875.5 715.5 Q807 723 709 723 L398 723 L398 169 L660 169 Q790 169 873 182.5 Q956 196 1009 232 Q1065 271 1091 321 Q1117 371 1117 450 Z " />
<glyph glyph-name="C" unicode="C" horiz-adv-x="1430" d="M1350 108 Q1295 84 1250.5 63 Q1206 42 1134 19 Q1073 0 1001.5 -13.5 Q930 -27 844 -27 Q682 -27 549.5 18.5 Q417 64 319 161 Q223 256 169 402.5 Q115 549 115 743 Q115 927 167 1072 Q219 1217 317 1317 Q412 1414 546.5 1465 Q681 1516 845 1516 Q965 1516 1084.5 1487 Q1204 1458 1350 1385 L1350 1150 L1335 1150 Q1212 1253 1091 1300 Q970 1347 832 1347 Q719 1347 628.5 1310.5 Q538 1274 467 1197 Q398 1122 359.5 1007.5 Q321 893 321 743 Q321 586 363.5 473 Q406 360 473 289 Q543 215 636.5 179.5 Q730 144 834 144 Q977 144 1102 193 Q1227 242 1336 340 L1350 340 L1350 108 Z " />
<glyph glyph-name="D" unicode="D" horiz-adv-x="1578" d="M1458 743 Q1458 540 1369.5 375 Q1281 210 1134 119 Q1032 56 906.5 28 Q781 0 576 0 L200 0 L200 1489 L572 1489 Q790 1489 918.5 1457.5 Q1047 1426 1136 1371 Q1288 1276 1373 1118 Q1458 960 1458 743 Z M1251 746 Q1251 921 1190 1041 Q1129 1161 1008 1230 Q920 1280 821 1299.5 Q722 1319 584 1319 L398 1319 L398 170 L584 170 Q727 170 833.5 191 Q940 212 1029 269 Q1140 340 1195.5 456 Q1251 572 1251 746 Z " />
<glyph glyph-name="E" unicode="E" horiz-adv-x="1295" d="M1181 0 L200 0 L200 1489 L1181 1489 L1181 1313 L398 1313 L398 905 L1181 905 L1181 729 L398 729 L398 176 L1181 176 L1181 0 Z " />
<glyph glyph-name="F" unicode="F" horiz-adv-x="1177" d="M1151 1313 L398 1313 L398 893 L1045 893 L1045 717 L398 717 L398 0 L200 0 L200 1489 L1151 1489 L1151 1313 Z " />
<glyph glyph-name="G" unicode="G" horiz-adv-x="1588" d="M1442 110 Q1320 54 1175.5 12.5 Q1031 -29 896 -29 Q722 -29 577 19 Q432 67 330 163 Q227 260 171 405.5 Q115 551 115 746 Q115 1103 323.5 1309.5 Q532 1516 896 1516 Q1023 1516 1155.5 1485.5 Q1288 1455 1441 1382 L1441 1147 L1423 1147 Q1392 1171 1333 1210 Q1274 1249 1217 1275 Q1148 1306 1060.5 1326.5 Q973 1347 862 1347 Q612 1347 466.5 1186.5 Q321 1026 321 752 Q321 463 473 302.5 Q625 142 887 142 Q983 142 1078.5 161 Q1174 180 1246 210 L1246 575 L847 575 L847 749 L1442 749 L1442 110 Z " />
<glyph glyph-name="H" unicode="H" horiz-adv-x="1539" d="M1339 0 L1141 0 L1141 729 L398 729 L398 0 L200 0 L200 1489 L398 1489 L398 905 L1141 905 L1141 1489 L1339 1489 L1339 0 Z " />
<glyph glyph-name="I" unicode="I" horiz-adv-x="862" d="M725 0 L137 0 L137 152 L332 152 L332 1337 L137 1337 L137 1489 L725 1489 L725 1337 L530 1337 L530 152 L725 152 L725 0 Z " />
<glyph glyph-name="J" unicode="J" horiz-adv-x="931" d="M746 387 Q746 191 626.5 85 Q507 -21 306 -21 Q258 -21 178 -12.5 Q98 -4 44 8 L44 193 L55 193 Q96 179 156 164 Q216 149 279 149 Q371 149 425.5 170 Q480 191 506 230 Q533 270 540.5 328 Q548 386 548 462 L548 1331 L233 1331 L233 1489 L746 1489 L746 387 Z " />
<glyph glyph-name="K" unicode="K" horiz-adv-x="1419" d="M1397 0 L1140 0 L551 663 L403 505 L403 0 L205 0 L205 1489 L403 1489 L403 712 L1126 1489 L1366 1489 L701 789 L1397 0 Z " />
<glyph glyph-name="L" unicode="L" horiz-adv-x="1140" d="M1142 0 L200 0 L200 1489 L398 1489 L398 176 L1142 176 L1142 0 Z " />
<glyph glyph-name="M" unicode="M" horiz-adv-x="1726" d="M1526 0 L1328 0 L1328 1283 L914 410 L796 410 L385 1283 L385 0 L200 0 L200 1489 L470 1489 L867 660 L1251 1489 L1526 1489 L1526 0 Z " />
<glyph glyph-name="N" unicode="N" horiz-adv-x="1532" d="M1336 0 L1091 0 L385 1332 L385 0 L200 0 L200 1489 L507 1489 L1151 273 L1151 1489 L1336 1489 L1336 0 Z " />
<glyph glyph-name="O" unicode="O" horiz-adv-x="1612" d="M1310 1318 Q1401 1218 1449.5 1073 Q1498 928 1498 744 Q1498 560 1448.5 414.5 Q1399 269 1310 172 Q1218 71 1092.5 20 Q967 -31 806 -31 Q649 -31 520.5 21 Q392 73 302 172 Q212 271 163.5 415 Q115 559 115 744 Q115 926 163 1070.5 Q211 1215 303 1318 Q391 1416 521.5 1468 Q652 1520 806 1520 Q966 1520 1093.5 1467.5 Q1221 1415 1310 1318 Z M1292 744 Q1292 1034 1162 1191.5 Q1032 1349 807 1349 Q580 1349 450.5 1191.5 Q321 1034 321 744 Q321 451 453 295.5 Q585 140 807 140 Q1029 140 1160.5 295.5 Q1292 451 1292 744 Z " />
<glyph glyph-name="P" unicode="P" horiz-adv-x="1235" d="M1174 1039 Q1174 940 1139.5 855.5 Q1105 771 1043 709 Q966 632 861 593.5 Q756 555 596 555 L398 555 L398 0 L200 0 L200 1489 L604 1489 Q738 1489 831 1466.5 Q924 1444 996 1396 Q1081 1339 1127.5 1254 Q1174 1169 1174 1039 Z M968 1034 Q968 1111 941 1168 Q914 1225 859 1261 Q811 1292 749.5 1305.5 Q688 1319 594 1319 L398 1319 L398 724 L565 724 Q685 724 760 745.5 Q835 767 882 814 Q929 862 948.5 915 Q968 968 968 1034 Z " />
<glyph glyph-name="Q" unicode="Q" horiz-adv-x="1612" d="M1528 -365 Q1468 -380 1409.5 -386.5 Q1351 -393 1290 -393 Q1116 -393 1010.5 -297.5 Q905 -202 896 -24 Q872 -28 849.5 -29.5 Q827 -31 806 -31 Q649 -31 520.5 21 Q392 73 302 172 Q212 271 163.5 415 Q115 559 115 744 Q115 926 163 1070.5 Q211 1215 303 1318 Q391 1416 521.5 1468 Q652 1520 806 1520 Q966 1520 1093.5 1467.5 Q1221 1415 1310 1318 Q1401 1218 1449.5 1073 Q1498 928 1498 744 Q1498 471 1386.5 284 Q1275 97 1087 22 Q1091 -92 1141 -155 Q1191 -218 1323 -218 Q1364 -218 1420.5 -205.5 Q1477 -193 1501 -183 L1528 -183 L1528 -365 Z M1292 744 Q1292 1034 1162 1191.5 Q1032 1349 807 1349 Q580 1349 450.5 1191.5 Q321 1034 321 744 Q321 451 453 295.5 Q585 140 807 140 Q1029 140 1160.5 295.5 Q1292 451 1292 744 Z " />
<glyph glyph-name="R" unicode="R" horiz-adv-x="1424" d="M1432 0 L1175 0 L677 592 L398 592 L398 0 L200 0 L200 1489 L617 1489 Q752 1489 842 1471.5 Q932 1454 1004 1409 Q1085 1358 1130.5 1280.5 Q1176 1203 1176 1084 Q1176 923 1095 814.5 Q1014 706 872 651 L1432 0 Z M969 1070 Q969 1134 946.5 1183.5 Q924 1233 872 1267 Q829 1296 770 1307.5 Q711 1319 631 1319 L398 1319 L398 757 L598 757 Q692 757 762 773.5 Q832 790 881 835 Q926 877 947.5 931.5 Q969 986 969 1070 Z " />
<glyph glyph-name="S" unicode="S" horiz-adv-x="1400" d="M1282 425 Q1282 338 1241.5 253 Q1201 168 1128 109 Q1048 45 941.5 9 Q835 -27 685 -27 Q524 -27 395.5 3 Q267 33 134 92 L134 340 L148 340 Q261 246 409 195 Q557 144 687 144 Q871 144 973.5 213 Q1076 282 1076 397 Q1076 496 1027.5 543 Q979 590 880 616 Q805 636 717.5 649 Q630 662 532 682 Q334 724 238.5 825.5 Q143 927 143 1090 Q143 1277 301 1396.5 Q459 1516 702 1516 Q859 1516 990 1486 Q1121 1456 1222 1412 L1222 1178 L1208 1178 Q1123 1250 984.5 1297.5 Q846 1345 701 1345 Q542 1345 445.5 1279 Q349 1213 349 1109 Q349 1016 397 963 Q445 910 566 882 Q630 868 748 848 Q866 828 948 807 Q1114 763 1198 674 Q1282 585 1282 425 Z " />
<glyph glyph-name="T" unicode="T" horiz-adv-x="1262" d="M1262 1313 L730 1313 L730 0 L532 0 L532 1313 L0 1313 L0 1489 L1262 1489 L1262 1313 Z " />
<glyph glyph-name="U" unicode="U" horiz-adv-x="1499" d="M1321 598 Q1321 436 1285.5 315.5 Q1250 195 1169 115 Q1092 39 989 4 Q886 -31 749 -31 Q609 -31 505 6 Q401 43 330 115 Q249 197 213.5 313 Q178 429 178 598 L178 1489 L376 1489 L376 588 Q376 467 392.5 397 Q409 327 448 270 Q492 205 567.5 172 Q643 139 749 139 Q856 139 931 171.5 Q1006 204 1051 270 Q1090 327 1106.5 400.5 Q1123 474 1123 583 L1123 1489 L1321 1489 L1321 598 Z " />
<glyph glyph-name="V" unicode="V" horiz-adv-x="1400" d="M1374 1489 L832 0 L568 0 L26 1489 L238 1489 L705 179 L1172 1489 L1374 1489 Z " />
<glyph glyph-name="W" unicode="W" horiz-adv-x="2025" d="M1933 1489 L1546 0 L1323 0 L1010 1236 L704 0 L486 0 L92 1489 L295 1489 L608 251 L916 1489 L1117 1489 L1428 239 L1739 1489 L1933 1489 Z " />
<glyph glyph-name="X" unicode="X" horiz-adv-x="1403" d="M1336 1489 L822 753 L1335 0 L1106 0 L700 613 L284 0 L68 0 L587 744 L80 1489 L308 1489 L709 884 L1119 1489 L1336 1489 Z " />
<glyph glyph-name="Y" unicode="Y" horiz-adv-x="1260" d="M1254 1489 L730 653 L730 0 L532 0 L532 632 L6 1489 L225 1489 L632 823 L1043 1489 L1254 1489 Z " />
<glyph glyph-name="Z" unicode="Z" horiz-adv-x="1403" d="M1288 0 L126 0 L126 184 L1039 1313 L160 1313 L160 1489 L1266 1489 L1266 1310 L344 176 L1288 176 L1288 0 Z " />
<glyph glyph-name="bracketleft" unicode="&#x5b;" horiz-adv-x="930" d="M759 -392 L239 -392 L239 1556 L759 1556 L759 1413 L413 1413 L413 -249 L759 -249 L759 -392 Z " />
<glyph glyph-name="backslash" unicode="&#x5c;" horiz-adv-x="930" d="M960 -304 L787 -304 L70 1556 L246 1556 L960 -304 Z " />
<glyph glyph-name="bracketright" unicode="&#x5d;" horiz-adv-x="930" d="M691 -392 L171 -392 L171 -249 L517 -249 L517 1413 L171 1413 L171 1556 L691 1556 L691 -392 Z " />
<glyph glyph-name="asciicircum" unicode="&#x5e;" horiz-adv-x="1676" d="M1490 684 L1292 684 L837 1311 L383 682 L186 682 L775 1489 L901 1489 L1490 684 Z " />
<glyph glyph-name="underscore" unicode="&#x5f;" horiz-adv-x="1302" d="M1306 -300 L-4 -300 L-4 -180 L1306 -180 L1306 -300 Z " />
<glyph glyph-name="grave" unicode="&#x60;" horiz-adv-x="1302" d="M762 1302 L613 1302 L340 1676 L583 1676 L762 1302 Z " />
<glyph glyph-name="a" unicode="a" horiz-adv-x="1230" d="M1053 0 L866 0 L866 119 Q841 102 798.5 71.5 Q756 41 716 23 Q669 0 608 -15.5 Q547 -31 465 -31 Q314 -31 209 69 Q104 169 104 324 Q104 451 158.5 529.5 Q213 608 314 653 Q416 698 559 714 Q702 730 866 738 L866 767 Q866 831 843.5 873 Q821 915 779 939 Q739 962 683 970 Q627 978 566 978 Q492 978 401 958.5 Q310 939 213 902 L203 902 L203 1093 Q258 1108 362 1126 Q466 1144 567 1144 Q685 1144 772.5 1124.5 Q860 1105 924 1058 Q987 1012 1020 939 Q1053 866 1053 758 L1053 0 Z M866 275 L866 586 Q780 581 663.5 571 Q547 561 479 542 Q398 519 348 470.5 Q298 422 298 337 Q298 241 356 192.5 Q414 144 533 144 Q632 144 714 182.5 Q796 221 866 275 Z " />
<glyph glyph-name="b" unicode="b" horiz-adv-x="1276" d="M1168 567 Q1168 427 1128.5 315 Q1089 203 1022 127 Q951 48 866 8.5 Q781 -31 679 -31 Q584 -31 513 -8.5 Q442 14 373 52 L361 0 L185 0 L185 1556 L373 1556 L373 1000 Q452 1065 541 1106.5 Q630 1148 741 1148 Q939 1148 1053.5 996 Q1168 844 1168 567 Z M974 562 Q974 762 908 865.5 Q842 969 695 969 Q613 969 529 933.5 Q445 898 373 842 L373 202 Q453 166 510.5 152 Q568 138 641 138 Q797 138 885.5 240.5 Q974 343 974 562 Z " />
<glyph glyph-name="c" unicode="c" horiz-adv-x="1067" d="M1011 70 Q917 25 832.5 0 Q748 -25 653 -25 Q532 -25 431 10.5 Q330 46 258 118 Q185 190 145 300 Q105 410 105 557 Q105 831 255.5 987 Q406 1143 653 1143 Q749 1143 841.5 1116 Q934 1089 1011 1050 L1011 841 L1001 841 Q915 908 823.5 944 Q732 980 645 980 Q485 980 392.5 872.5 Q300 765 300 557 Q300 355 390.5 246.5 Q481 138 645 138 Q702 138 761 153 Q820 168 867 192 Q908 213 944 236.5 Q980 260 1001 277 L1011 277 L1011 70 Z " />
<glyph glyph-name="d" unicode="d" horiz-adv-x="1276" d="M1091 0 L903 0 L903 117 Q822 47 734 8 Q646 -31 543 -31 Q343 -31 225.5 123 Q108 277 108 550 Q108 692 148.5 803 Q189 914 258 992 Q326 1068 416.5 1108 Q507 1148 604 1148 Q692 1148 760 1129.5 Q828 1111 903 1072 L903 1556 L1091 1556 L1091 0 Z M903 275 L903 916 Q827 950 767 963 Q707 976 636 976 Q478 976 390 866 Q302 756 302 554 Q302 355 370 251.5 Q438 148 588 148 Q668 148 750 183.5 Q832 219 903 275 Z " />
<glyph glyph-name="e" unicode="e" horiz-adv-x="1220" d="M1120 539 L297 539 Q297 436 328 359.5 Q359 283 413 234 Q465 186 536.5 162 Q608 138 694 138 Q808 138 923.5 183.5 Q1039 229 1088 273 L1098 273 L1098 68 Q1003 28 904 1 Q805 -26 696 -26 Q418 -26 262 124.5 Q106 275 106 552 Q106 826 255.5 987 Q405 1148 649 1148 Q875 1148 997.5 1016 Q1120 884 1120 641 L1120 539 Z M937 683 Q936 831 862.5 912 Q789 993 639 993 Q488 993 398.5 904 Q309 815 297 683 L937 683 Z " />
<glyph glyph-name="f" unicode="f" horiz-adv-x="720" d="M786 1374 L776 1374 Q745 1383 695 1392.5 Q645 1402 607 1402 Q486 1402 431.5 1348.5 Q377 1295 377 1155 L377 1117 L716 1117 L716 959 L383 959 L383 0 L195 0 L195 959 L68 959 L68 1117 L195 1117 L195 1154 Q195 1353 294 1459.5 Q393 1566 580 1566 Q643 1566 693.5 1560 Q744 1554 786 1546 L786 1374 Z " />
<glyph glyph-name="g" unicode="g" horiz-adv-x="1276" d="M1091 127 Q1091 -157 962 -290 Q833 -423 565 -423 Q476 -423 391.5 -410.5 Q307 -398 225 -375 L225 -183 L235 -183 Q281 -201 381 -227.5 Q481 -254 581 -254 Q677 -254 740 -231 Q803 -208 838 -167 Q873 -128 888 -73 Q903 -18 903 50 L903 152 Q818 84 740.5 50.5 Q663 17 543 17 Q343 17 225.5 161.5 Q108 306 108 569 Q108 713 148.5 817.5 Q189 922 259 998 Q324 1069 417 1108.5 Q510 1148 602 1148 Q699 1148 764.5 1128.5 Q830 1109 903 1069 L915 1117 L1091 1117 L1091 127 Z M903 307 L903 916 Q828 950 763.5 964.5 Q699 979 635 979 Q480 979 391 875 Q302 771 302 573 Q302 385 368 288 Q434 191 587 191 Q669 191 751.5 222.5 Q834 254 903 307 Z " />
<glyph glyph-name="h" unicode="h" horiz-adv-x="1296" d="M1119 0 L931 0 L931 636 Q931 713 922 780.5 Q913 848 889 886 Q864 928 817 948.5 Q770 969 695 969 Q618 969 534 931 Q450 893 373 834 L373 0 L185 0 L185 1556 L373 1556 L373 993 Q461 1066 555 1107 Q649 1148 748 1148 Q929 1148 1024 1039 Q1119 930 1119 725 L1119 0 Z " />
<glyph glyph-name="i" unicode="i" horiz-adv-x="562" d="M387 1304 L175 1304 L175 1499 L387 1499 L387 1304 Z M375 0 L187 0 L187 1117 L375 1117 L375 0 Z " />
<glyph glyph-name="j" unicode="j" horiz-adv-x="705" d="M533 1304 L321 1304 L321 1499 L533 1499 L533 1304 Z M521 -27 Q521 -223 421 -323 Q321 -423 153 -423 Q113 -423 47.5 -415 Q-18 -407 -62 -395 L-62 -216 L-52 -216 Q-24 -227 23.5 -241 Q71 -255 116 -255 Q188 -255 232 -235 Q276 -215 298 -175 Q320 -135 326.5 -78.5 Q333 -22 333 59 L333 959 L100 959 L100 1117 L521 1117 L521 -27 Z " />
<glyph glyph-name="k" unicode="k" horiz-adv-x="1212" d="M1199 0 L951 0 L503 489 L381 373 L381 0 L193 0 L193 1556 L381 1556 L381 558 L924 1117 L1161 1117 L642 601 L1199 0 Z " />
<glyph glyph-name="l" unicode="l" horiz-adv-x="562" d="M375 0 L187 0 L187 1556 L375 1556 L375 0 Z " />
<glyph glyph-name="m" unicode="m" horiz-adv-x="1992" d="M1815 0 L1627 0 L1627 636 Q1627 708 1620.5 775 Q1614 842 1593 882 Q1570 925 1527 947 Q1484 969 1403 969 Q1324 969 1245 929.5 Q1166 890 1087 829 Q1090 806 1092 775.5 Q1094 745 1094 715 L1094 0 L906 0 L906 636 Q906 710 899.5 776.5 Q893 843 872 883 Q849 926 806 947.5 Q763 969 682 969 Q605 969 527.5 931 Q450 893 373 834 L373 0 L185 0 L185 1117 L373 1117 L373 993 Q461 1066 548.5 1107 Q636 1148 735 1148 Q849 1148 928.5 1100 Q1008 1052 1047 967 Q1161 1063 1255 1105.5 Q1349 1148 1456 1148 Q1640 1148 1727.5 1036.5 Q1815 925 1815 725 L1815 0 Z " />
<glyph glyph-name="n" unicode="n" horiz-adv-x="1296" d="M1119 0 L931 0 L931 636 Q931 713 922 780.5 Q913 848 889 886 Q864 928 817 948.5 Q770 969 695 969 Q618 969 534 931 Q450 893 373 834 L373 0 L185 0 L185 1117 L373 1117 L373 993 Q461 1066 555 1107 Q649 1148 748 1148 Q929 1148 1024 1039 Q1119 930 1119 725 L1119 0 Z " />
<glyph glyph-name="o" unicode="o" horiz-adv-x="1243" d="M1137 558 Q1137 285 997 127 Q857 -31 622 -31 Q385 -31 245.5 127 Q106 285 106 558 Q106 831 245.5 989.5 Q385 1148 622 1148 Q857 1148 997 989.5 Q1137 831 1137 558 Z M943 558 Q943 775 858 880.5 Q773 986 622 986 Q469 986 384.5 880.5 Q300 775 300 558 Q300 348 385 239.5 Q470 131 622 131 Q772 131 857.5 238.5 Q943 346 943 558 Z " />
<glyph glyph-name="p" unicode="p" horiz-adv-x="1276" d="M1168 572 Q1168 436 1129 323.5 Q1090 211 1019 133 Q953 59 863.5 18.5 Q774 -22 674 -22 Q587 -22 516.5 -3 Q446 16 373 56 L373 -412 L185 -412 L185 1117 L373 1117 L373 1000 Q448 1063 541.5 1105.5 Q635 1148 741 1148 Q943 1148 1055.5 995.5 Q1168 843 1168 572 Z M974 567 Q974 769 905 869 Q836 969 693 969 Q612 969 530 934 Q448 899 373 842 L373 209 Q453 173 510.5 160 Q568 147 641 147 Q798 147 886 253 Q974 359 974 567 Z " />
<glyph glyph-name="q" unicode="q" horiz-adv-x="1276" d="M1091 -412 L903 -412 L903 126 Q816 51 730 14.5 Q644 -22 544 -22 Q345 -22 226.5 131.5 Q108 285 108 555 Q108 699 149.5 809.5 Q191 920 259 995 Q325 1068 414 1108 Q503 1148 602 1148 Q692 1148 761.5 1128 Q831 1108 903 1069 L915 1117 L1091 1117 L1091 -412 Z M903 284 L903 916 Q825 951 765 965 Q705 979 635 979 Q472 979 387 868.5 Q302 758 302 564 Q302 368 370.5 262.5 Q439 157 586 157 Q668 157 750 192.5 Q832 228 903 284 Z " />
<glyph glyph-name="r" unicode="r" horiz-adv-x="874" d="M882 912 L872 912 Q830 922 790.5 926.5 Q751 931 697 931 Q610 931 529 892.5 Q448 854 373 793 L373 0 L185 0 L185 1117 L373 1117 L373 952 Q485 1042 570.5 1079.5 Q656 1117 745 1117 Q794 1117 816 1114.5 Q838 1112 882 1105 L882 912 Z " />
<glyph glyph-name="s" unicode="s" horiz-adv-x="1067" d="M983 322 Q983 169 856.5 71 Q730 -27 511 -27 Q387 -27 283.5 2.5 Q180 32 110 67 L110 278 L120 278 Q209 211 318 171.5 Q427 132 527 132 Q651 132 721 172 Q791 212 791 298 Q791 364 753 398 Q715 432 607 456 Q567 465 502.5 477 Q438 489 385 503 Q238 542 176.5 617.5 Q115 693 115 803 Q115 872 143.5 933 Q172 994 230 1042 Q286 1089 372.5 1116.5 Q459 1144 566 1144 Q666 1144 768.5 1119.5 Q871 1095 939 1060 L939 859 L929 859 Q857 912 754 948.5 Q651 985 552 985 Q449 985 378 945.5 Q307 906 307 828 Q307 759 350 724 Q392 689 486 667 Q538 655 602.5 643 Q667 631 710 621 Q841 591 912 518 Q983 444 983 322 Z " />
<glyph glyph-name="t" unicode="t" horiz-adv-x="807" d="M765 10 Q712 -4 649.5 -13 Q587 -22 538 -22 Q367 -22 278 70 Q189 162 189 365 L189 959 L62 959 L62 1117 L189 1117 L189 1438 L377 1438 L377 1117 L765 1117 L765 959 L377 959 L377 450 Q377 362 381 312.5 Q385 263 409 220 Q431 180 469.5 161.5 Q508 143 587 143 Q633 143 683 156.5 Q733 170 755 179 L765 179 L765 10 Z " />
<glyph glyph-name="u" unicode="u" horiz-adv-x="1296" d="M1111 0 L923 0 L923 124 Q828 49 741 9 Q654 -31 549 -31 Q373 -31 275 76.5 Q177 184 177 392 L177 1117 L365 1117 L365 481 Q365 396 373 335.5 Q381 275 407 232 Q434 188 477 168 Q520 148 602 148 Q675 148 761.5 186 Q848 224 923 283 L923 1117 L1111 1117 L1111 0 Z " />
<glyph glyph-name="v" unicode="v" horiz-adv-x="1212" d="M1151 1117 L699 0 L510 0 L61 1117 L265 1117 L611 228 L954 1117 L1151 1117 Z " />
<glyph glyph-name="w" unicode="w" horiz-adv-x="1676" d="M1590 1117 L1299 0 L1125 0 L838 861 L553 0 L380 0 L86 1117 L282 1117 L487 252 L766 1117 L921 1117 L1207 252 L1401 1117 L1590 1117 Z " />
<glyph glyph-name="x" unicode="x" horiz-adv-x="1212" d="M1152 0 L915 0 L598 429 L279 0 L60 0 L496 557 L64 1117 L301 1117 L616 695 L932 1117 L1152 1117 L713 567 L1152 0 Z " />
<glyph glyph-name="y" unicode="y" horiz-adv-x="1212" d="M1151 1117 L499 -412 L298 -412 L506 54 L61 1117 L265 1117 L608 289 L954 1117 L1151 1117 Z " />
<glyph glyph-name="z" unicode="z" horiz-adv-x="1076" d="M995 0 L93 0 L93 139 L744 960 L107 960 L107 1117 L978 1117 L978 983 L324 159 L995 159 L995 0 Z " />
<glyph glyph-name="braceleft" unicode="&#x7b;" horiz-adv-x="1300" d="M1113 -392 L963 -392 Q784 -392 672.5 -292.5 Q561 -193 561 -5 L561 144 Q561 313 478 408.5 Q395 504 224 504 L173 504 L173 660 L224 660 Q395 660 478 755.5 Q561 851 561 1020 L561 1169 Q561 1357 672.5 1456.5 Q784 1556 963 1556 L1113 1556 L1113 1418 L999 1418 Q863 1418 801.5 1355 Q740 1292 740 1152 L740 977 Q740 838 663 743.5 Q586 649 449 594 L449 570 Q586 515 663 420.5 Q740 326 740 187 L740 12 Q740 -128 801.5 -191 Q863 -254 999 -254 L1113 -254 L1113 -392 Z " />
<glyph glyph-name="bar" unicode="&#x7c;" horiz-adv-x="930" d="M552 -392 L378 -392 L378 1556 L552 1556 L552 -392 Z " />
<glyph glyph-name="braceright" unicode="&#x7d;" horiz-adv-x="1300" d="M1127 504 L1076 504 Q905 504 822 408.5 Q739 313 739 144 L739 -5 Q739 -193 627.5 -292.5 Q516 -392 337 -392 L187 -392 L187 -254 L301 -254 Q437 -254 498.5 -191 Q560 -128 560 12 L560 187 Q560 326 637 420.5 Q714 515 851 570 L851 594 Q714 649 637 743.5 Q560 838 560 977 L560 1152 Q560 1292 498.5 1355 Q437 1418 301 1418 L187 1418 L187 1556 L337 1556 Q516 1556 627.5 1456.5 Q739 1357 739 1169 L739 1020 Q739 851 822 755.5 Q905 660 1076 660 L1127 660 L1127 504 Z " />
<glyph glyph-name="asciitilde" unicode="&#x7e;" horiz-adv-x="1676" d="M1489 927 Q1487 828 1466.5 732 Q1446 636 1401 561 Q1355 484 1290 440 Q1225 396 1125 396 Q1031 396 958 435.5 Q885 475 801 577 Q699 702 653 734 Q607 766 557 766 Q463 766 413 678.5 Q363 591 354 395 L187 395 Q189 495 209.5 589.5 Q230 684 274 761 Q317 835 386 880.5 Q455 926 551 926 Q644 926 717.5 887.5 Q791 849 876 745 Q956 647 1007 601.5 Q1058 556 1119 556 Q1222 556 1270.5 657 Q1319 758 1322 927 L1489 927 Z " />
<glyph glyph-name="Adieresis" unicode="&#xc4;" horiz-adv-x="1400" d="M1374 0 L1163 0 L1017 415 L373 415 L227 0 L26 0 L568 1489 L832 1489 L1374 0 Z M956 585 L695 1316 L433 585 L956 585 Z M1005 1677 L806 1677 L806 1872 L1005 1872 L1005 1677 Z M592 1677 L393 1677 L393 1872 L592 1872 L592 1677 Z " />
<glyph glyph-name="Aring" unicode="&#xc5;" horiz-adv-x="1400" d="M1374 0 L1163 0 L1015 415 L375 415 L227 0 L26 0 L545 1407 Q456 1451 402.5 1530.5 Q349 1610 349 1712 Q349 1855 451 1952 Q553 2049 699 2049 Q846 2049 947.5 1952 Q1049 1855 1049 1712 Q1049 1612 996.5 1530.5 Q944 1449 855 1407 L1374 0 Z M899 1710 Q899 1796 842 1853.5 Q785 1911 699 1911 Q613 1911 556 1853 Q499 1795 499 1710 Q499 1624 556.5 1566.5 Q614 1509 699 1509 Q785 1509 842 1566.5 Q899 1624 899 1710 Z M953 585 L695 1300 L436 585 L953 585 Z " />
<glyph glyph-name="Ccedilla" unicode="&#xc7;" horiz-adv-x="1430" d="M1350 108 Q1295 84 1250.5 63 Q1206 42 1134 19 Q1123 16 1110 11.5 Q1097 7 1079 4 Q1081 -15 1082.5 -40.5 Q1084 -66 1084 -89 Q1084 -251 990.5 -337 Q897 -423 750 -423 Q712 -423 652.5 -416 Q593 -409 548 -397 L548 -235 L557 -235 Q583 -245 628.5 -259 Q674 -273 724 -273 Q830 -273 879 -233 Q928 -193 928 -107 Q928 -88 927 -65.5 Q926 -43 924 -23 Q905 -25 883.5 -26 Q862 -27 844 -27 Q682 -27 549.5 18.5 Q417 64 319 161 Q223 256 169 402.5 Q115 549 115 743 Q115 927 167 1072 Q219 1217 317 1317 Q412 1414 546.5 1465 Q681 1516 845 1516 Q965 1516 1084.5 1487 Q1204 1458 1350 1385 L1350 1150 L1335 1150 Q1212 1253 1091 1300 Q970 1347 832 1347 Q719 1347 628.5 1310.5 Q538 1274 467 1197 Q398 1122 359.5 1007.5 Q321 893 321 743 Q321 586 363.5 473 Q406 360 473 289 Q543 215 636.5 179.5 Q730 144 834 144 Q977 144 1102 193 Q1227 242 1336 340 L1350 340 L1350 108 Z " />
<glyph glyph-name="Eacute" unicode="&#xc9;" horiz-adv-x="1295" d="M1181 0 L200 0 L200 1489 L1181 1489 L1181 1313 L398 1313 L398 905 L1181 905 L1181 729 L398 729 L398 176 L1181 176 L1181 0 Z M993 2049 L720 1675 L571 1675 L750 2049 L993 2049 Z " />
<glyph glyph-name="Ntilde" unicode="&#xd1;" horiz-adv-x="1532" d="M1336 0 L1091 0 L385 1332 L385 0 L200 0 L200 1489 L507 1489 L1151 273 L1151 1489 L1336 1489 L1336 0 Z M1208 1992 Q1197 1840 1131 1763 Q1065 1686 954 1686 Q900 1686 854 1705.5 Q808 1725 767 1762 Q720 1805 687.5 1826.5 Q655 1848 616 1848 Q564 1848 538 1803 Q512 1758 508 1682 L377 1682 Q385 1833 456 1910 Q527 1987 630 1987 Q680 1987 726.5 1967.5 Q773 1948 815 1912 Q862 1871 898.5 1850.5 Q935 1830 968 1830 Q1019 1830 1047.5 1876 Q1076 1922 1079 1992 L1208 1992 Z " />
<glyph glyph-name="Odieresis" unicode="&#xd6;" horiz-adv-x="1612" d="M1307 1318 Q1398 1218 1446.5 1073 Q1495 928 1495 744 Q1495 560 1445.5 414.5 Q1396 269 1307 172 Q1215 71 1089.5 20 Q964 -31 803 -31 Q646 -31 517.5 21 Q389 73 299 172 Q209 271 160.5 415 Q112 559 112 744 Q112 926 160 1070.5 Q208 1215 300 1318 Q388 1416 518.5 1468 Q649 1520 803 1520 Q963 1520 1090.5 1467.5 Q1218 1415 1307 1318 Z M1289 744 Q1289 1034 1159 1191.5 Q1029 1349 804 1349 Q577 1349 447.5 1191.5 Q318 1034 318 744 Q318 451 450 295.5 Q582 140 804 140 Q1026 140 1157.5 295.5 Q1289 451 1289 744 Z M1108 1677 L909 1677 L909 1872 L1108 1872 L1108 1677 Z M695 1677 L496 1677 L496 1872 L695 1872 L695 1677 Z " />
<glyph glyph-name="Udieresis" unicode="&#xdc;" horiz-adv-x="1499" d="M1321 598 Q1321 436 1285.5 315.5 Q1250 195 1169 115 Q1092 39 989 4 Q886 -31 749 -31 Q609 -31 505 6 Q401 43 330 115 Q249 197 213.5 313 Q178 429 178 598 L178 1489 L376 1489 L376 588 Q376 467 392.5 397 Q409 327 448 270 Q492 205 567.5 172 Q643 139 749 139 Q856 139 931 171.5 Q1006 204 1051 270 Q1090 327 1106.5 400.5 Q1123 474 1123 583 L1123 1489 L1321 1489 L1321 598 Z M1056 1677 L857 1677 L857 1872 L1056 1872 L1056 1677 Z M643 1677 L444 1677 L444 1872 L643 1872 L643 1677 Z " />
<glyph glyph-name="aacute" unicode="&#xe1;" horiz-adv-x="1230" d="M1053 0 L866 0 L866 119 Q841 102 798.5 71.5 Q756 41 716 23 Q669 0 608 -15.5 Q547 -31 465 -31 Q314 -31 209 69 Q104 169 104 324 Q104 451 158.5 529.5 Q213 608 314 653 Q416 698 559 714 Q702 730 866 738 L866 767 Q866 831 843.5 873 Q821 915 779 939 Q739 962 683 970 Q627 978 566 978 Q492 978 401 958.5 Q310 939 213 902 L203 902 L203 1093 Q258 1108 362 1126 Q466 1144 567 1144 Q685 1144 772.5 1124.5 Q860 1105 924 1058 Q987 1012 1020 939 Q1053 866 1053 758 L1053 0 Z M866 275 L866 586 Q780 581 663.5 571 Q547 561 479 542 Q398 519 348 470.5 Q298 422 298 337 Q298 241 356 192.5 Q414 144 533 144 Q632 144 714 182.5 Q796 221 866 275 Z M934 1676 L661 1302 L512 1302 L691 1676 L934 1676 Z " />
<glyph glyph-name="agrave" unicode="&#xe0;" horiz-adv-x="1230" d="M1053 0 L866 0 L866 119 Q841 102 798.5 71.5 Q756 41 716 23 Q669 0 608 -15.5 Q547 -31 465 -31 Q314 -31 209 69 Q104 169 104 324 Q104 451 158.5 529.5 Q213 608 314 653 Q416 698 559 714 Q702 730 866 738 L866 767 Q866 831 843.5 873 Q821 915 779 939 Q739 962 683 970 Q627 978 566 978 Q492 978 401 958.5 Q310 939 213 902 L203 902 L203 1093 Q258 1108 362 1126 Q466 1144 567 1144 Q685 1144 772.5 1124.5 Q860 1105 924 1058 Q987 1012 1020 939 Q1053 866 1053 758 L1053 0 Z M866 275 L866 586 Q780 581 663.5 571 Q547 561 479 542 Q398 519 348 470.5 Q298 422 298 337 Q298 241 356 192.5 Q414 144 533 144 Q632 144 714 182.5 Q796 221 866 275 Z M738 1302 L589 1302 L316 1676 L559 1676 L738 1302 Z " />
<glyph glyph-name="acircumflex" unicode="&#xe2;" horiz-adv-x="1230" d="M1053 0 L866 0 L866 119 Q841 102 798.5 71.5 Q756 41 716 23 Q669 0 608 -15.5 Q547 -31 465 -31 Q314 -31 209 69 Q104 169 104 324 Q104 451 158.5 529.5 Q213 608 314 653 Q416 698 559 714 Q702 730 866 738 L866 767 Q866 831 843.5 873 Q821 915 779 939 Q739 962 683 970 Q627 978 566 978 Q492 978 401 958.5 Q310 939 213 902 L203 902 L203 1093 Q258 1108 362 1126 Q466 1144 567 1144 Q685 1144 772.5 1124.5 Q860 1105 924 1058 Q987 1012 1020 939 Q1053 866 1053 758 L1053 0 Z M866 275 L866 586 Q780 581 663.5 571 Q547 561 479 542 Q398 519 348 470.5 Q298 422 298 337 Q298 241 356 192.5 Q414 144 533 144 Q632 144 714 182.5 Q796 221 866 275 Z M961 1297 L802 1297 L617 1553 L433 1297 L278 1297 L506 1676 L733 1676 L961 1297 Z " />
<glyph glyph-name="adieresis" unicode="&#xe4;" horiz-adv-x="1230" d="M1053 0 L866 0 L866 119 Q841 102 798.5 71.5 Q756 41 716 23 Q669 0 608 -15.5 Q547 -31 465 -31 Q314 -31 209 69 Q104 169 104 324 Q104 451 158.5 529.5 Q213 608 314 653 Q416 698 559 714 Q702 730 866 738 L866 767 Q866 831 843.5 873 Q821 915 779 939 Q739 962 683 970 Q627 978 566 978 Q492 978 401 958.5 Q310 939 213 902 L203 902 L203 1093 Q258 1108 362 1126 Q466 1144 567 1144 Q685 1144 772.5 1124.5 Q860 1105 924 1058 Q987 1012 1020 939 Q1053 866 1053 758 L1053 0 Z M866 275 L866 586 Q780 581 663.5 571 Q547 561 479 542 Q398 519 348 470.5 Q298 422 298 337 Q298 241 356 192.5 Q414 144 533 144 Q632 144 714 182.5 Q796 221 866 275 Z M926 1304 L727 1304 L727 1499 L926 1499 L926 1304 Z M513 1304 L314 1304 L314 1499 L513 1499 L513 1304 Z " />
<glyph glyph-name="atilde" unicode="&#xe3;" horiz-adv-x="1230" d="M1053 0 L866 0 L866 119 Q841 102 798.5 71.5 Q756 41 716 23 Q669 0 608 -15.5 Q547 -31 465 -31 Q314 -31 209 69 Q104 169 104 324 Q104 451 158.5 529.5 Q213 608 314 653 Q416 698 559 714 Q702 730 866 738 L866 767 Q866 831 843.5 873 Q821 915 779 939 Q739 962 683 970 Q627 978 566 978 Q492 978 401 958.5 Q310 939 213 902 L203 902 L203 1093 Q258 1108 362 1126 Q466 1144 567 1144 Q685 1144 772.5 1124.5 Q860 1105 924 1058 Q987 1012 1020 939 Q1053 866 1053 758 L1053 0 Z M866 275 L866 586 Q780 581 663.5 571 Q547 561 479 542 Q398 519 348 470.5 Q298 422 298 337 Q298 241 356 192.5 Q414 144 533 144 Q632 144 714 182.5 Q796 221 866 275 Z M1038 1619 Q1027 1467 961 1390 Q895 1313 784 1313 Q730 1313 684 1332.5 Q638 1352 597 1389 Q550 1432 517.5 1453.5 Q485 1475 446 1475 Q394 1475 368 1430 Q342 1385 338 1309 L207 1309 Q215 1460 286 1537 Q357 1614 460 1614 Q510 1614 556.5 1594.5 Q603 1575 645 1539 Q692 1498 728.5 1477.5 Q765 1457 798 1457 Q849 1457 877.5 1503 Q906 1549 909 1619 L1038 1619 Z " />
<glyph glyph-name="aring" unicode="&#xe5;" horiz-adv-x="1230" d="M1053 0 L866 0 L866 119 Q841 102 798.5 71.5 Q756 41 716 23 Q669 0 608 -15.5 Q547 -31 465 -31 Q314 -31 209 69 Q104 169 104 324 Q104 451 158.5 529.5 Q213 608 314 653 Q416 698 559 714 Q702 730 866 738 L866 767 Q866 831 843.5 873 Q821 915 779 939 Q739 962 683 970 Q627 978 566 978 Q492 978 401 958.5 Q310 939 213 902 L203 902 L203 1093 Q258 1108 362 1126 Q466 1144 567 1144 Q685 1144 772.5 1124.5 Q860 1105 924 1058 Q987 1012 1020 939 Q1053 866 1053 758 L1053 0 Z M866 275 L866 586 Q780 581 663.5 571 Q547 561 479 542 Q398 519 348 470.5 Q298 422 298 337 Q298 241 356 192.5 Q414 144 533 144 Q632 144 714 182.5 Q796 221 866 275 Z M956 1630 Q956 1487 854 1388 Q752 1289 606 1289 Q462 1289 359 1387.5 Q256 1486 256 1630 Q256 1773 358 1871 Q460 1969 606 1969 Q753 1969 854.5 1871 Q956 1773 956 1630 Z M811 1630 Q811 1716 752.5 1775.5 Q694 1835 606 1835 Q518 1835 459.5 1776 Q401 1717 401 1630 Q401 1543 460 1484 Q519 1425 606 1425 Q694 1425 752.5 1484 Q811 1543 811 1630 Z " />
<glyph glyph-name="ccedilla" unicode="&#xe7;" horiz-adv-x="1067" d="M1011 70 Q978 55 939.5 39.5 Q901 24 872 15 Q875 -4 877.5 -32.5 Q880 -61 880 -89 Q880 -251 788.5 -337 Q697 -423 551 -423 Q514 -423 456 -416 Q398 -409 353 -397 L353 -237 L362 -237 Q388 -247 432 -260 Q476 -273 526 -273 Q630 -273 679 -234 Q728 -195 728 -107 Q728 -85 726.5 -62 Q725 -39 723 -19 Q707 -21 692.5 -23 Q678 -25 653 -25 Q532 -25 431 10.5 Q330 46 258 118 Q185 190 145 300 Q105 410 105 557 Q105 831 255.5 987 Q406 1143 653 1143 Q749 1143 841.5 1116 Q934 1089 1011 1050 L1011 841 L1001 841 Q915 908 823.5 944 Q732 980 645 980 Q485 980 392.5 872.5 Q300 765 300 557 Q300 355 390.5 246.5 Q481 138 645 138 Q702 138 761 153 Q820 168 867 192 Q908 213 944 236.5 Q980 260 1001 277 L1011 277 L1011 70 Z " />
<glyph glyph-name="eacute" unicode="&#xe9;" horiz-adv-x="1220" d="M1120 539 L297 539 Q297 436 328 359.5 Q359 283 413 234 Q465 186 536.5 162 Q608 138 694 138 Q808 138 923.5 183.5 Q1039 229 1088 273 L1098 273 L1098 68 Q1003 28 904 1 Q805 -26 696 -26 Q418 -26 262 124.5 Q106 275 106 552 Q106 826 255.5 987 Q405 1148 649 1148 Q875 1148 997.5 1016 Q1120 884 1120 641 L1120 539 Z M937 683 Q936 831 862.5 912 Q789 993 639 993 Q488 993 398.5 904 Q309 815 297 683 L937 683 Z M960 1676 L687 1302 L538 1302 L717 1676 L960 1676 Z " />
<glyph glyph-name="egrave" unicode="&#xe8;" horiz-adv-x="1220" d="M1120 539 L297 539 Q297 436 328 359.5 Q359 283 413 234 Q465 186 536.5 162 Q608 138 694 138 Q808 138 923.5 183.5 Q1039 229 1088 273 L1098 273 L1098 68 Q1003 28 904 1 Q805 -26 696 -26 Q418 -26 262 124.5 Q106 275 106 552 Q106 826 255.5 987 Q405 1148 649 1148 Q875 1148 997.5 1016 Q1120 884 1120 641 L1120 539 Z M937 683 Q936 831 862.5 912 Q789 993 639 993 Q488 993 398.5 904 Q309 815 297 683 L937 683 Z M759 1302 L610 1302 L337 1676 L580 1676 L759 1302 Z " />
<glyph glyph-name="ecircumflex" unicode="&#xea;" horiz-adv-x="1220" d="M1120 539 L297 539 Q297 436 328 359.5 Q359 283 413 234 Q465 186 536.5 162 Q608 138 694 138 Q808 138 923.5 183.5 Q1039 229 1088 273 L1098 273 L1098 68 Q1003 28 904 1 Q805 -26 696 -26 Q418 -26 262 124.5 Q106 275 106 552 Q106 826 255.5 987 Q405 1148 649 1148 Q875 1148 997.5 1016 Q1120 884 1120 641 L1120 539 Z M937 683 Q936 831 862.5 912 Q789 993 639 993 Q488 993 398.5 904 Q309 815 297 683 L937 683 Z M986 1297 L827 1297 L642 1553 L458 1297 L303 1297 L531 1676 L758 1676 L986 1297 Z " />
<glyph glyph-name="edieresis" unicode="&#xeb;" horiz-adv-x="1220" d="M1120 539 L297 539 Q297 436 328 359.5 Q359 283 413 234 Q465 186 536.5 162 Q608 138 694 138 Q808 138 923.5 183.5 Q1039 229 1088 273 L1098 273 L1098 68 Q1003 28 904 1 Q805 -26 696 -26 Q418 -26 262 124.5 Q106 275 106 552 Q106 826 255.5 987 Q405 1148 649 1148 Q875 1148 997.5 1016 Q1120 884 1120 641 L1120 539 Z M937 683 Q936 831 862.5 912 Q789 993 639 993 Q488 993 398.5 904 Q309 815 297 683 L937 683 Z M951 1304 L752 1304 L752 1499 L951 1499 L951 1304 Z M538 1304 L339 1304 L339 1499 L538 1499 L538 1304 Z " />
<glyph glyph-name="iacute" unicode="&#xed;" horiz-adv-x="562" d="M375 0 L187 0 L187 1117 L375 1117 L375 0 Z M582 1676 L309 1302 L160 1302 L339 1676 L582 1676 Z " />
<glyph glyph-name="igrave" unicode="&#xec;" horiz-adv-x="562" d="M375 0 L187 0 L187 1117 L375 1117 L375 0 Z M401 1302 L252 1302 L-21 1676 L222 1676 L401 1302 Z " />
<glyph glyph-name="icircumflex" unicode="&#xee;" horiz-adv-x="562" d="M572 1297 L421 1297 L278 1564 L136 1297 L-11 1297 L167 1676 L394 1676 L572 1297 Z M375 0 L187 0 L187 1117 L375 1117 L375 0 Z " />
<glyph glyph-name="idieresis" unicode="&#xef;" horiz-adv-x="562" d="M557 1304 L368 1304 L368 1499 L557 1499 L557 1304 Z M194 1304 L5 1304 L5 1499 L194 1499 L194 1304 Z M375 0 L187 0 L187 1117 L375 1117 L375 0 Z " />
<glyph glyph-name="ntilde" unicode="&#xf1;" horiz-adv-x="1296" d="M1119 0 L931 0 L931 636 Q931 713 922 780.5 Q913 848 889 886 Q864 928 817 948.5 Q770 969 695 969 Q618 969 534 931 Q450 893 373 834 L373 0 L185 0 L185 1117 L373 1117 L373 993 Q461 1066 555 1107 Q649 1148 748 1148 Q929 1148 1024 1039 Q1119 930 1119 725 L1119 0 Z M1075 1619 Q1064 1467 998 1390 Q932 1313 821 1313 Q767 1313 721 1332.5 Q675 1352 634 1389 Q587 1432 554.5 1453.5 Q522 1475 483 1475 Q431 1475 405 1430 Q379 1385 375 1309 L244 1309 Q252 1460 323 1537 Q394 1614 497 1614 Q547 1614 593.5 1594.5 Q640 1575 682 1539 Q729 1498 765.5 1477.5 Q802 1457 835 1457 Q886 1457 914.5 1503 Q943 1549 946 1619 L1075 1619 Z " />
<glyph glyph-name="oacute" unicode="&#xf3;" horiz-adv-x="1243" d="M1137 558 Q1137 285 997 127 Q857 -31 622 -31 Q385 -31 245.5 127 Q106 285 106 558 Q106 831 245.5 989.5 Q385 1148 622 1148 Q857 1148 997 989.5 Q1137 831 1137 558 Z M943 558 Q943 775 858 880.5 Q773 986 622 986 Q469 986 384.5 880.5 Q300 775 300 558 Q300 348 385 239.5 Q470 131 622 131 Q772 131 857.5 238.5 Q943 346 943 558 Z M933 1676 L660 1302 L511 1302 L690 1676 L933 1676 Z " />
<glyph glyph-name="ograve" unicode="&#xf2;" horiz-adv-x="1243" d="M1137 558 Q1137 285 997 127 Q857 -31 622 -31 Q385 -31 245.5 127 Q106 285 106 558 Q106 831 245.5 989.5 Q385 1148 622 1148 Q857 1148 997 989.5 Q1137 831 1137 558 Z M943 558 Q943 775 858 880.5 Q773 986 622 986 Q469 986 384.5 880.5 Q300 775 300 558 Q300 348 385 239.5 Q470 131 622 131 Q772 131 857.5 238.5 Q943 346 943 558 Z M732 1302 L583 1302 L310 1676 L553 1676 L732 1302 Z " />
<glyph glyph-name="ocircumflex" unicode="&#xf4;" horiz-adv-x="1243" d="M1137 558 Q1137 285 997 127 Q857 -31 622 -31 Q385 -31 245.5 127 Q106 285 106 558 Q106 831 245.5 989.5 Q385 1148 622 1148 Q857 1148 997 989.5 Q1137 831 1137 558 Z M943 558 Q943 775 858 880.5 Q773 986 622 986 Q469 986 384.5 880.5 Q300 775 300 558 Q300 348 385 239.5 Q470 131 622 131 Q772 131 857.5 238.5 Q943 346 943 558 Z M963 1297 L804 1297 L619 1553 L435 1297 L280 1297 L508 1676 L735 1676 L963 1297 Z " />
<glyph glyph-name="odieresis" unicode="&#xf6;" horiz-adv-x="1243" d="M1137 558 Q1137 285 997 127 Q857 -31 622 -31 Q385 -31 245.5 127 Q106 285 106 558 Q106 831 245.5 989.5 Q385 1148 622 1148 Q857 1148 997 989.5 Q1137 831 1137 558 Z M943 558 Q943 775 858 880.5 Q773 986 622 986 Q469 986 384.5 880.5 Q300 775 300 558 Q300 348 385 239.5 Q470 131 622 131 Q772 131 857.5 238.5 Q943 346 943 558 Z M928 1304 L729 1304 L729 1499 L928 1499 L928 1304 Z M515 1304 L316 1304 L316 1499 L515 1499 L515 1304 Z " />
<glyph glyph-name="otilde" unicode="&#xf5;" horiz-adv-x="1243" d="M1137 558 Q1137 285 997 127 Q857 -31 622 -31 Q385 -31 245.5 127 Q106 285 106 558 Q106 831 245.5 989.5 Q385 1148 622 1148 Q857 1148 997 989.5 Q1137 831 1137 558 Z M943 558 Q943 775 858 880.5 Q773 986 622 986 Q469 986 384.5 880.5 Q300 775 300 558 Q300 348 385 239.5 Q470 131 622 131 Q772 131 857.5 238.5 Q943 346 943 558 Z M1038 1619 Q1027 1467 961 1390 Q895 1313 784 1313 Q730 1313 684 1332.5 Q638 1352 597 1389 Q550 1432 517.5 1453.5 Q485 1475 446 1475 Q394 1475 368 1430 Q342 1385 338 1309 L207 1309 Q215 1460 286 1537 Q357 1614 460 1614 Q510 1614 556.5 1594.5 Q603 1575 645 1539 Q692 1498 728.5 1477.5 Q765 1457 798 1457 Q849 1457 877.5 1503 Q906 1549 909 1619 L1038 1619 Z " />
<glyph glyph-name="uacute" unicode="&#xfa;" horiz-adv-x="1296" d="M1111 0 L923 0 L923 124 Q828 49 741 9 Q654 -31 549 -31 Q373 -31 275 76.5 Q177 184 177 392 L177 1117 L365 1117 L365 481 Q365 396 373 335.5 Q381 275 407 232 Q434 188 477 168 Q520 148 602 148 Q675 148 761.5 186 Q848 224 923 283 L923 1117 L1111 1117 L1111 0 Z M945 1676 L672 1302 L523 1302 L702 1676 L945 1676 Z " />
<glyph glyph-name="ugrave" unicode="&#xf9;" horiz-adv-x="1296" d="M1111 0 L923 0 L923 124 Q828 49 741 9 Q654 -31 549 -31 Q373 -31 275 76.5 Q177 184 177 392 L177 1117 L365 1117 L365 481 Q365 396 373 335.5 Q381 275 407 232 Q434 188 477 168 Q520 148 602 148 Q675 148 761.5 186 Q848 224 923 283 L923 1117 L1111 1117 L1111 0 Z M764 1302 L615 1302 L342 1676 L585 1676 L764 1302 Z " />
<glyph glyph-name="ucircumflex" unicode="&#xfb;" horiz-adv-x="1296" d="M1111 0 L923 0 L923 124 Q828 49 741 9 Q654 -31 549 -31 Q373 -31 275 76.5 Q177 184 177 392 L177 1117 L365 1117 L365 481 Q365 396 373 335.5 Q381 275 407 232 Q434 188 477 168 Q520 148 602 148 Q675 148 761.5 186 Q848 224 923 283 L923 1117 L1111 1117 L1111 0 Z M985 1297 L826 1297 L641 1553 L457 1297 L302 1297 L530 1676 L757 1676 L985 1297 Z " />
<glyph glyph-name="udieresis" unicode="&#xfc;" horiz-adv-x="1296" d="M1111 0 L923 0 L923 124 Q828 49 741 9 Q654 -31 549 -31 Q373 -31 275 76.5 Q177 184 177 392 L177 1117 L365 1117 L365 481 Q365 396 373 335.5 Q381 275 407 232 Q434 188 477 168 Q520 148 602 148 Q675 148 761.5 186 Q848 224 923 283 L923 1117 L1111 1117 L1111 0 Z M955 1304 L756 1304 L756 1499 L955 1499 L955 1304 Z M542 1304 L343 1304 L343 1499 L542 1499 L542 1304 Z " />
<glyph glyph-name="dagger" unicode="&#x2020;" horiz-adv-x="1302" d="M1115 1034 L712 1039 L717 135 L585 135 L590 1039 L187 1034 L187 1163 L590 1158 L585 1556 L717 1556 L712 1158 L1115 1163 L1115 1034 Z " />
<glyph glyph-name="degree" unicode="&#xb0;" horiz-adv-x="1110" d="M956 1116 Q956 948 840 832 Q724 716 555 716 Q386 716 270 831.5 Q154 947 154 1116 Q154 1284 270 1400 Q386 1516 555 1516 Q725 1516 840.5 1400 Q956 1284 956 1116 Z M791 1116 Q791 1218 724 1287.5 Q657 1357 555 1357 Q453 1357 386 1287.5 Q319 1218 319 1116 Q319 1012 387.5 943.5 Q456 875 555 875 Q657 875 724 945 Q791 1015 791 1116 Z " />
<glyph glyph-name="cent" unicode="&#xa2;" horiz-adv-x="1302" d="M1120 74 Q1049 44 959 20.5 Q869 -3 765 -6 L765 -361 L647 -361 L647 -2 Q420 19 289.5 163 Q159 307 159 557 Q159 799 292.5 948.5 Q426 1098 647 1120 L647 1475 L765 1475 L765 1124 Q869 1121 962 1099 Q1055 1077 1120 1046 L1120 843 L1109 843 Q1054 887 967 928 Q880 969 765 978 L765 139 Q885 149 971.5 191.5 Q1058 234 1109 275 L1120 275 L1120 74 Z M647 142 L647 976 Q512 956 431 851 Q350 746 350 557 Q350 376 426 271 Q502 166 647 142 Z " />
<glyph glyph-name="sterling" unicode="&#xa3;" horiz-adv-x="1302" d="M1163 0 L137 0 L137 207 Q255 239 306.5 333.5 Q358 428 358 613 L182 613 L182 751 L358 751 L358 1061 Q358 1261 484.5 1389.5 Q611 1518 816 1518 Q921 1518 997 1501 Q1073 1484 1137 1467 L1137 1261 L1127 1261 Q1065 1303 989 1327 Q913 1351 827 1351 Q687 1351 617.5 1268.5 Q548 1186 548 1042 L548 751 L963 751 L963 613 L548 613 L548 552 Q548 426 486 332.5 Q424 239 326 182 L326 171 L1163 171 L1163 0 Z " />
<glyph glyph-name="section" unicode="&#xa7;" horiz-adv-x="1302" d="M1128 601 Q1128 495 1069 414 Q1010 333 911 278 L911 271 Q1008 225 1052 152.5 Q1096 80 1096 -10 Q1096 -87 1063 -156 Q1030 -225 965 -275 Q893 -331 796 -358 Q699 -385 575 -385 Q488 -385 404.5 -371.5 Q321 -358 229 -327 L229 -133 L239 -133 Q318 -170 408 -195 Q498 -220 606 -220 Q740 -220 821 -171.5 Q902 -123 902 -36 Q902 20 882.5 52.5 Q863 85 818 110 Q777 133 705 151.5 Q633 170 551 190 Q337 242 255 323 Q172 404 172 533 Q172 631 229 715.5 Q286 800 388 857 L388 864 Q287 912 245 985 Q203 1058 203 1147 Q203 1228 235 1293.5 Q267 1359 334 1411 Q398 1461 497.5 1490 Q597 1519 725 1519 Q812 1519 896 1505 Q980 1491 1071 1462 L1071 1268 L1061 1268 Q1003 1295 908.5 1325 Q814 1355 693 1355 Q566 1355 481.5 1309 Q397 1263 397 1176 Q397 1119 418.5 1083.5 Q440 1048 483 1025 Q526 1002 592 983.5 Q658 965 749 944 Q949 898 1039 819 Q1128 740 1128 601 Z M881 399 Q909 432 924 464.5 Q939 497 939 555 Q939 606 922.5 641 Q906 676 877 699 Q849 723 810 738.5 Q771 754 727 766 Q688 777 641.5 787.5 Q595 798 525 818 Q507 809 476 786.5 Q445 764 423 740 Q399 714 380 671 Q361 628 361 579 Q361 529 376.5 494 Q392 459 421 435 Q448 412 488.5 396 Q529 380 573 369 Q611 359 659 347 Q707 335 774 316 Q794 327 827 350.5 Q860 374 881 399 Z " />
<glyph glyph-name="bullet" unicode="&#x2022;" horiz-adv-x="1117" d="M932 662 Q932 508 822 398.5 Q712 289 558 289 Q404 289 294.5 398.5 Q185 508 185 662 Q185 816 294.5 925.5 Q404 1035 558 1035 Q712 1035 822 925.5 Q932 816 932 662 Z " />
<glyph glyph-name="paragraph" unicode="&#xb6;" horiz-adv-x="1302" d="M1106 -363 L958 -363 L958 1359 L744 1359 L744 -363 L595 -363 L595 593 Q389 598 263 722 Q137 846 137 1050 Q137 1257 267 1373 Q397 1489 640 1489 L1106 1489 L1106 -363 Z " />
<glyph glyph-name="germandbls" unicode="&#xdf;" horiz-adv-x="1270" d="M1165 481 Q1165 267 1029.5 121.5 Q894 -24 675 -24 Q631 -24 573.5 -16.5 Q516 -9 480 4 L480 169 L490 169 Q532 145 581.5 136 Q631 127 687 127 Q761 127 816 156 Q871 185 904 234 Q939 286 954.5 349.5 Q970 413 970 489 Q970 655 864.5 739.5 Q759 824 561 824 L561 974 Q718 974 795 1033.5 Q872 1093 872 1222 Q872 1257 861 1290 Q850 1323 820 1354 Q793 1383 749 1400.5 Q705 1418 644 1418 Q587 1418 541 1403.5 Q495 1389 455 1350 Q418 1314 395.5 1248 Q373 1182 373 1087 L373 0 L185 0 L185 1080 Q185 1204 221 1295.5 Q257 1387 321 1449 Q381 1507 470.5 1536.5 Q560 1566 654 1566 Q837 1566 951.5 1479 Q1066 1392 1066 1241 Q1066 1129 995 1040 Q924 951 811 919 L811 910 Q975 873 1070 761.5 Q1165 650 1165 481 Z " />
<glyph glyph-name="registered" unicode="&#xae;" horiz-adv-x="2048" d="M1889 655 Q1889 297 1635.5 43.5 Q1382 -210 1024 -210 Q666 -210 412.5 43.5 Q159 297 159 655 Q159 1013 412.5 1266.5 Q666 1520 1024 1520 Q1382 1520 1635.5 1266.5 Q1889 1013 1889 655 Z M1773 655 Q1773 965 1553.5 1187 Q1334 1409 1024 1409 Q714 1409 494.5 1187 Q275 965 275 655 Q275 345 494.5 123 Q714 -99 1024 -99 Q1334 -99 1553.5 123 Q1773 345 1773 655 Z M1581 215 L1358 215 L1027 570 L865 570 L865 215 L700 215 L700 1130 L1012 1130 Q1106 1130 1167 1122 Q1228 1114 1287 1083 Q1350 1049 1379.5 1000.5 Q1409 952 1409 879 Q1409 782 1352.5 717.5 Q1296 653 1197 615 L1581 215 Z M1229 868 Q1229 904 1215 932 Q1201 960 1168 978 Q1137 995 1102 1000 Q1067 1005 1014 1005 L865 1005 L865 696 L992 696 Q1054 696 1099 705.5 Q1144 715 1173 738 Q1204 763 1216.5 793 Q1229 823 1229 868 Z " />
<glyph glyph-name="copyright" unicode="&#xa9;" horiz-adv-x="2048" d="M1889 655 Q1889 297 1635.5 43.5 Q1382 -210 1024 -210 Q666 -210 412.5 43.5 Q159 297 159 655 Q159 1013 412.5 1266.5 Q666 1520 1024 1520 Q1382 1520 1635.5 1266.5 Q1889 1013 1889 655 Z M1773 655 Q1773 965 1553.5 1187 Q1334 1409 1024 1409 Q714 1409 494.5 1187 Q275 965 275 655 Q275 345 494.5 123 Q714 -99 1024 -99 Q1334 -99 1553.5 123 Q1773 345 1773 655 Z M1375 258 Q1289 219 1209.5 199.5 Q1130 180 1052 180 Q825 180 693 303 Q561 426 561 660 Q561 885 695.5 1014 Q830 1143 1052 1143 Q1141 1143 1227 1119 Q1313 1095 1375 1067 L1375 886 L1359 886 Q1305 926 1220.5 961 Q1136 996 1047 996 Q905 996 825.5 910.5 Q746 825 746 660 Q746 501 822.5 414 Q899 327 1047 327 Q1130 327 1208.5 356 Q1287 385 1359 437 L1375 437 L1375 258 Z " />
<glyph glyph-name="trademark" unicode="&#x2122;" horiz-adv-x="2000" d="M1777 785 L1653 785 L1653 1402 L1633 1402 L1396 951 L1317 951 L1078 1409 L1053 1409 L1053 785 L930 785 L930 1489 L1168 1489 L1359 1107 L1550 1489 L1777 1489 L1777 785 Z M755 1372 L526 1372 L526 785 L399 785 L399 1372 L170 1372 L170 1489 L755 1489 L755 1372 Z " />
<glyph glyph-name="acute" unicode="&#xb4;" horiz-adv-x="1302" d="M963 1676 L690 1302 L541 1302 L720 1676 L963 1676 Z " />
<glyph glyph-name="dieresis" unicode="&#xa8;" horiz-adv-x="1302" d="M958 1304 L759 1304 L759 1499 L958 1499 L958 1304 Z M545 1304 L346 1304 L346 1499 L545 1499 L545 1304 Z " />
<glyph glyph-name="notequal" unicode="&#x2260;" horiz-adv-x="1676" d="M1431 362 L823 362 L719 27 L566 27 L670 362 L245 362 L245 518 L719 518 L803 786 L245 786 L245 942 L851 942 L956 1277 L1109 1277 L1004 942 L1431 942 L1431 786 L955 786 L872 518 L1431 518 L1431 362 Z " />
<glyph glyph-name="AE" unicode="&#xc6;" horiz-adv-x="2016" d="M1901 0 L957 0 L957 556 L433 556 L221 0 L14 0 L608 1489 L1901 1489 L1901 1313 L1152 1313 L1152 905 L1901 905 L1901 729 L1152 729 L1152 176 L1901 176 L1901 0 Z M957 723 L957 1324 L738 1324 L499 723 L957 723 Z " />
<glyph glyph-name="Oslash" unicode="&#xd8;" horiz-adv-x="1612" d="M1498 744 Q1498 560 1448.5 414.5 Q1399 269 1310 172 Q1218 71 1092.5 20 Q967 -31 806 -31 Q691 -31 590.5 -2 Q490 27 411 82 L252 -146 L120 -146 L325 148 Q224 248 169.5 398 Q115 548 115 744 Q115 926 163 1070.5 Q211 1215 303 1318 Q391 1416 521.5 1468 Q652 1520 806 1520 Q924 1520 1021 1492.5 Q1118 1465 1200 1410 L1342 1611 L1474 1611 L1286 1343 Q1387 1243 1442.5 1094.5 Q1498 946 1498 744 Z M1097 1260 Q1040 1306 968 1328.5 Q896 1351 807 1351 Q697 1351 607 1312.5 Q517 1274 451 1196 Q387 1120 352.5 1005.5 Q318 891 318 744 Q318 604 347.5 492 Q377 380 435 304 L1097 1260 Z M1295 744 Q1295 883 1265 997 Q1235 1111 1177 1186 L513 229 Q573 184 645.5 161 Q718 138 807 138 Q917 138 1008.5 178 Q1100 218 1162 294 Q1229 376 1262 488.5 Q1295 601 1295 744 Z " />
<glyph glyph-name="infinity" unicode="&#x221e;" horiz-adv-x="2048" d="M1887 663 Q1887 424 1764.5 290.5 Q1642 157 1435 157 Q1302 157 1191 233.5 Q1080 310 1011 456 Q932 305 826.5 231 Q721 157 578 157 Q387 157 274 292.5 Q161 428 161 642 Q161 880 286 1014 Q411 1148 613 1148 Q747 1148 858 1071 Q969 994 1037 849 Q1116 999 1222.5 1073.5 Q1329 1148 1470 1148 Q1661 1148 1774 1012.5 Q1887 877 1887 663 Z M967 729 Q904 846 812 904.5 Q720 963 624 963 Q486 963 408 879.5 Q330 796 330 642 Q330 509 393.5 426 Q457 343 576 343 Q686 343 748 391.5 Q810 440 867 534 Q901 591 919.5 626.5 Q938 662 967 729 Z M1718 663 Q1718 797 1654 879.5 Q1590 962 1472 962 Q1384 962 1319.5 926.5 Q1255 891 1181 771 Q1151 723 1125.5 671.5 Q1100 620 1081 576 Q1141 461 1234.5 401.5 Q1328 342 1424 342 Q1562 342 1640 425 Q1718 508 1718 663 Z " />
<glyph glyph-name="plusminus" unicode="&#xb1;" horiz-adv-x="1676" d="M1461 179 L215 179 L215 337 L755 337 L755 759 L215 759 L215 917 L755 917 L755 1462 L921 1462 L921 917 L1461 917 L1461 759 L921 759 L921 337 L1461 337 L1461 179 Z " />
<glyph glyph-name="lessequal" unicode="&#x2264;" horiz-adv-x="1676" d="M1408 303 L254 786 L254 910 L1408 1393 L1408 1210 L519 848 L1408 486 L1408 303 Z M1408 0 L254 0 L254 160 L1408 160 L1408 0 Z " />
<glyph glyph-name="greaterequal" unicode="&#x2265;" horiz-adv-x="1676" d="M1422 786 L268 303 L268 486 L1157 848 L268 1210 L268 1393 L1422 910 L1422 786 Z M1422 0 L268 0 L268 160 L1422 160 L1422 0 Z " />
<glyph glyph-name="&amp;#xa5;" unicode="&#xa5;" horiz-adv-x="1302" d="M1191 1489 L743 647 L743 600 L1115 600 L1115 462 L745 462 L745 324 L1115 324 L1115 186 L745 186 L745 0 L557 0 L557 186 L187 186 L187 324 L557 324 L557 462 L187 462 L187 600 L559 600 L559 647 L108 1489 L320 1489 L652 830 L988 1489 L1191 1489 Z " />
<glyph glyph-name="&amp;#xffe5;" unicode="&#xffe5;" horiz-adv-x="1302" d="M1191 1489 L743 647 L743 600 L1115 600 L1115 462 L745 462 L745 324 L1115 324 L1115 186 L745 186 L745 0 L557 0 L557 186 L187 186 L187 324 L557 324 L557 462 L187 462 L187 600 L559 600 L559 647 L108 1489 L320 1489 L652 830 L988 1489 L1191 1489 Z " />
<glyph glyph-name="mu" unicode="&#xb5;" horiz-adv-x="1314" d="M1124 0 L946 0 L936 118 Q877 53 812.5 16 Q748 -21 657 -21 Q571 -21 507.5 14 Q444 49 378 113 L378 -412 L190 -412 L190 1117 L378 1117 L378 279 Q410 240 487.5 199 Q565 158 656 158 Q749 158 815.5 191.5 Q882 225 936 285 L936 1117 L1124 1117 L1124 0 Z " />
<glyph glyph-name="partialdiff" unicode="&#x2202;" horiz-adv-x="1302" d="M1145 837 Q1145 673 1106 493 Q1067 313 985 190 Q900 66 798.5 17 Q697 -32 584 -32 Q392 -32 270.5 94.5 Q149 221 149 424 Q149 652 283.5 796.5 Q418 941 620 941 Q710 941 789.5 915 Q869 889 948 824 Q950 850 951 879.5 Q952 909 952 935 Q952 1152 873 1253 Q794 1354 642 1354 Q564 1354 472.5 1322.5 Q381 1291 303 1236 L292 1236 L292 1430 Q373 1474 473.5 1496.5 Q574 1519 670 1519 Q807 1519 909.5 1464.5 Q1012 1410 1074 1286 Q1116 1200 1130.5 1097 Q1145 994 1145 837 Z M942 678 Q882 725 806 752 Q730 779 658 779 Q517 779 433 688 Q349 597 349 427 Q349 282 416.5 205.5 Q484 129 596 129 Q724 129 805.5 226 Q887 323 921 513 Q927 546 932.5 586 Q938 626 942 678 Z " />
<glyph glyph-name="summation" unicode="&#x2211;" horiz-adv-x="1489" d="M1369 -189 L187 -189 L187 2 L860 670 L197 1301 L197 1489 L1330 1489 L1330 1313 L439 1313 L1087 712 L1087 640 L421 -13 L1369 -13 L1369 -189 Z " />
<glyph glyph-name="product" unicode="&#x220f;" horiz-adv-x="1676" d="M1532 1315 L1332 1315 L1332 -193 L1134 -193 L1134 1315 L542 1315 L542 -193 L344 -193 L344 1315 L144 1315 L144 1489 L1532 1489 L1532 1315 Z " />
<glyph glyph-name="integral" unicode="&#x222b;" horiz-adv-x="1302" d="M1168 1367 L1158 1367 Q1126 1375 1068.5 1385.5 Q1011 1396 979 1396 Q850 1396 798 1335 Q745 1274 745 1125 L745 2 Q745 -204 641 -313 Q536 -423 348 -423 Q296 -423 241.5 -417.5 Q187 -412 138 -402 L138 -224 L148 -224 Q181 -232 235 -242.5 Q289 -253 323 -253 Q452 -253 505 -192 Q557 -131 557 18 L557 1141 Q557 1345 661 1456 Q765 1566 954 1566 Q1012 1566 1063 1560.5 Q1114 1555 1168 1545 L1168 1367 Z " />
<glyph glyph-name="ordfeminine" unicode="&#xaa;" horiz-adv-x="1117" d="M944 554 L774 554 L774 648 Q746 628 721.5 609.5 Q697 591 653 572 Q608 552 567.5 541.5 Q527 531 454 531 Q326 531 238.5 616 Q151 701 151 833 Q151 939 197.5 1006.5 Q244 1074 321 1110 Q399 1146 518.5 1161.5 Q638 1177 774 1183 L774 1201 Q774 1254 756 1286 Q738 1318 705 1337 Q671 1355 627.5 1360 Q584 1365 536 1365 Q452 1365 368 1341 Q284 1317 245 1303 L231 1303 L231 1475 Q276 1488 368 1504 Q460 1520 537 1520 Q754 1520 849 1435.5 Q944 1351 944 1192 L944 554 Z M774 796 L774 1041 Q705 1037 613.5 1029 Q522 1021 468 1006 Q404 988 365 949.5 Q326 911 326 843 Q326 767 371.5 729 Q417 691 511 691 Q593 691 658.5 724.5 Q724 758 774 796 Z " />
<glyph glyph-name="ordmasculine" unicode="&#xba;" horiz-adv-x="1117" d="M996 1025 Q996 790 874 660.5 Q752 531 559 531 Q358 531 239.5 663.5 Q121 796 121 1025 Q121 1254 239.5 1387 Q358 1520 559 1520 Q752 1520 874 1390 Q996 1260 996 1025 Z M814 1025 Q814 1197 746.5 1283 Q679 1369 559 1369 Q437 1369 370 1282 Q303 1195 303 1025 Q303 855 370 768.5 Q437 682 559 682 Q679 682 746.5 767.5 Q814 853 814 1025 Z " />
<glyph glyph-name="Omega" unicode="&#x2126;" horiz-adv-x="1676" d="M1569 0 L965 0 L965 389 Q1032 428 1098 473 Q1164 518 1209 573 Q1256 631 1284 707.5 Q1312 784 1312 896 Q1312 1096 1188 1222.5 Q1064 1349 838 1349 Q612 1349 488 1222.5 Q364 1096 364 896 Q364 786 393 707 Q422 628 469 572 Q516 515 579.5 471.5 Q643 428 711 389 L711 0 L107 0 L107 174 L543 174 L543 298 Q375 386 266.5 539 Q158 692 158 896 Q158 1174 343 1347 Q528 1520 838 1520 Q1148 1520 1333 1347 Q1518 1174 1518 896 Q1518 692 1409.5 539 Q1301 386 1133 298 L1133 174 L1569 174 L1569 0 Z " />
<glyph glyph-name="ae" unicode="&#xe6;" horiz-adv-x="1956" d="M1855 559 L1036 559 Q1036 445 1066 364 Q1096 283 1151 231 Q1203 183 1274 160.5 Q1345 138 1431 138 Q1542 138 1648.5 179.5 Q1755 221 1821 273 L1833 273 L1833 68 Q1755 33 1648.5 3.5 Q1542 -26 1433 -26 Q1267 -26 1148.5 26 Q1030 78 954 181 Q933 162 887 122 Q841 82 791 54 Q728 18 654 -5.5 Q580 -29 465 -29 Q315 -29 209.5 68 Q104 165 104 317 Q104 441 158 517.5 Q212 594 313 636 Q408 675 554 689 Q700 703 862 706 L862 767 Q862 832 839 874.5 Q816 917 775 940 Q735 963 679 971.5 Q623 980 563 980 Q484 980 394.5 959 Q305 938 215 902 L202 902 L202 1093 Q257 1108 360 1127 Q463 1146 564 1146 Q723 1146 828.5 1099.5 Q934 1053 991 962 Q1060 1044 1161 1096 Q1262 1148 1387 1148 Q1604 1148 1729.5 1020 Q1855 892 1855 641 L1855 559 Z M1673 703 Q1668 771 1649.5 822 Q1631 873 1599 910 Q1565 949 1510.5 971 Q1456 993 1377 993 Q1244 993 1154 918 Q1064 843 1039 703 L1673 703 Z M894 298 Q874 351 863.5 417 Q853 483 853 558 Q748 555 652 550.5 Q556 546 474 525 Q395 505 346.5 459.5 Q298 414 298 331 Q298 236 356 190 Q414 144 532 144 Q631 144 727.5 187 Q824 230 894 298 Z " />
<glyph glyph-name="oslash" unicode="&#xf8;" horiz-adv-x="1243" d="M1137 558 Q1137 285 997 127 Q857 -31 622 -31 Q538 -31 466.5 -10 Q395 11 336 50 L203 -148 L93 -148 L264 108 Q189 185 147.5 298 Q106 411 106 558 Q106 831 245.5 989.5 Q385 1148 622 1148 Q709 1148 780 1126 Q851 1104 905 1069 L1021 1241 L1132 1241 L977 1010 Q1053 934 1095 822 Q1137 710 1137 558 Z M813 930 Q776 959 726.5 973.5 Q677 988 622 988 Q467 988 382 878 Q297 768 297 558 Q297 461 314 387 Q331 313 366 259 L813 930 Z M946 558 Q946 655 928.5 731 Q911 807 877 861 L429 190 Q468 159 515.5 144 Q563 129 622 129 Q772 129 859 237.5 Q946 346 946 558 Z " />
<glyph glyph-name="questiondown" unicode="&#xbf;" horiz-adv-x="1117" d="M712 1278 L508 1278 L508 1489 L712 1489 L712 1278 Z M958 40 Q875 10 782 -10 Q689 -30 577 -30 Q362 -30 237.5 74.5 Q113 179 113 350 Q113 448 147.5 523 Q182 598 241 660 Q299 722 377.5 772.5 Q456 823 524 864 L524 1089 L703 1089 L703 784 Q643 751 564 702.5 Q485 654 439 614 Q385 567 351 505 Q317 443 317 365 Q317 252 393.5 196.5 Q470 141 591 141 Q694 141 792.5 174 Q891 207 948 244 L958 244 L958 40 Z " />
<glyph glyph-name="exclamdown" unicode="&#xa1;" horiz-adv-x="806" d="M505 1278 L301 1278 L301 1489 L505 1489 L505 1278 Z M515 0 L291 0 L317 1079 L487 1079 L515 0 Z " />
<glyph glyph-name="logicalnot" unicode="&#xac;" horiz-adv-x="1676" d="M1456 57 L1285 57 L1285 602 L210 602 L210 762 L1456 762 L1456 57 Z " />
<glyph glyph-name="radical" unicode="&#x221a;" horiz-adv-x="1676" d="M1737 1788 L857 -151 L755 -151 L371 842 L134 842 L134 981 L527 981 L840 160 L1570 1788 L1737 1788 Z " />
<glyph glyph-name="florin" unicode="&#x192;" horiz-adv-x="1302" d="M1280 1321 L1270 1321 Q1241 1331 1184 1344 Q1127 1357 1086 1357 Q965 1357 902 1297.5 Q839 1238 804 1078 L762 884 L1083 884 L1083 746 L734 746 L631 256 Q602 122 556 34 Q510 -54 446 -106 Q381 -159 305 -180 Q229 -201 137 -201 Q96 -201 56 -197.5 Q16 -194 -36 -185 L-36 -5 L-26 -5 Q7 -19 54 -29 Q101 -39 145 -39 Q272 -39 336.5 25 Q401 89 436 256 L539 746 L322 746 L322 884 L567 884 L609 1082 Q635 1205 681 1289 Q727 1373 789 1424 Q851 1475 927.5 1497 Q1004 1519 1091 1519 Q1149 1519 1188.5 1514 Q1228 1509 1280 1501 L1280 1321 Z " />
<glyph glyph-name="approxequal" unicode="&#x2248;" horiz-adv-x="1676" d="M1431 1104 Q1411 910 1320 811 Q1229 712 1071 712 Q994 712 924 749.5 Q854 787 798 832 Q733 884 681 911.5 Q629 939 585 939 Q510 939 468 891 Q426 843 398 719 L243 719 Q266 901 355.5 999 Q445 1097 604 1097 Q676 1097 747 1060 Q818 1023 877 977 Q938 929 991.5 899.5 Q1045 870 1090 870 Q1166 870 1210.5 924.5 Q1255 979 1274 1104 L1431 1104 Z M1432 588 Q1407 404 1320 306.5 Q1233 209 1070 209 Q998 209 926 246.5 Q854 284 797 329 Q758 360 694 398 Q630 436 584 436 Q506 436 463 381 Q420 326 400 202 L243 202 Q262 394 353.5 494 Q445 594 603 594 Q680 594 749 557 Q818 520 876 474 Q911 446 973 406.5 Q1035 367 1089 367 Q1164 367 1206 416.5 Q1248 466 1275 588 L1432 588 Z " />
<glyph glyph-name="Delta" unicode="&#x2206;" horiz-adv-x="1489" d="M1438 0 L50 0 L612 1489 L876 1489 L1438 0 Z M1171 168 L739 1315 L308 168 L1171 168 Z " />
<glyph glyph-name="guillemotleft" unicode="&#xab;" horiz-adv-x="1320" d="M1146 191 L618 610 L618 695 L1146 1113 L1146 925 L789 652 L1146 379 L1146 191 Z M716 162 L166 608 L166 697 L716 1142 L716 946 L345 652 L716 358 L716 162 Z " />
<glyph glyph-name="guillemotright" unicode="&#xbb;" horiz-adv-x="1320" d="M1154 608 L604 162 L604 358 L975 652 L604 946 L604 1142 L1154 697 L1154 608 Z M702 610 L174 191 L174 379 L531 652 L174 925 L174 1113 L702 695 L702 610 Z " />
<glyph glyph-name="ellipsis" unicode="&#x2026;" horiz-adv-x="1676" d="M1498 0 L1294 0 L1294 223 L1498 223 L1498 0 Z M940 0 L736 0 L736 223 L940 223 L940 0 Z M382 0 L178 0 L178 223 L382 223 L382 0 Z " />
<glyph glyph-name="Agrave" unicode="&#xc0;" horiz-adv-x="1400" d="M1374 0 L1163 0 L1017 415 L373 415 L227 0 L26 0 L568 1489 L832 1489 L1374 0 Z M956 585 L695 1316 L433 585 L956 585 Z M862 1675 L713 1675 L440 2049 L683 2049 L862 1675 Z " />
<glyph glyph-name="Atilde" unicode="&#xc3;" horiz-adv-x="1400" d="M1374 0 L1163 0 L1017 415 L373 415 L227 0 L26 0 L568 1489 L832 1489 L1374 0 Z M956 585 L695 1316 L433 585 L956 585 Z M1119 1992 Q1108 1840 1042 1763 Q976 1686 865 1686 Q811 1686 765 1705.5 Q719 1725 678 1762 Q631 1805 598.5 1826.5 Q566 1848 527 1848 Q475 1848 449 1803 Q423 1758 419 1682 L288 1682 Q296 1833 367 1910 Q438 1987 541 1987 Q591 1987 637.5 1967.5 Q684 1948 726 1912 Q773 1871 809.5 1850.5 Q846 1830 879 1830 Q930 1830 958.5 1876 Q987 1922 990 1992 L1119 1992 Z " />
<glyph glyph-name="Otilde" unicode="&#xd5;" horiz-adv-x="1612" d="M1310 1318 Q1401 1218 1449.5 1073 Q1498 928 1498 744 Q1498 560 1448.5 414.5 Q1399 269 1310 172 Q1218 71 1092.5 20 Q967 -31 806 -31 Q649 -31 520.5 21 Q392 73 302 172 Q212 271 163.5 415 Q115 559 115 744 Q115 926 163 1070.5 Q211 1215 303 1318 Q391 1416 521.5 1468 Q652 1520 806 1520 Q966 1520 1093.5 1467.5 Q1221 1415 1310 1318 Z M1292 744 Q1292 1034 1162 1191.5 Q1032 1349 807 1349 Q580 1349 450.5 1191.5 Q321 1034 321 744 Q321 451 453 295.5 Q585 140 807 140 Q1029 140 1160.5 295.5 Q1292 451 1292 744 Z M1207 1992 Q1196 1840 1130 1763 Q1064 1686 953 1686 Q899 1686 853 1705.5 Q807 1725 766 1762 Q719 1805 686.5 1826.5 Q654 1848 615 1848 Q563 1848 537 1803 Q511 1758 507 1682 L376 1682 Q384 1833 455 1910 Q526 1987 629 1987 Q679 1987 725.5 1967.5 Q772 1948 814 1912 Q861 1871 897.5 1850.5 Q934 1830 967 1830 Q1018 1830 1046.5 1876 Q1075 1922 1078 1992 L1207 1992 Z " />
<glyph glyph-name="OE" unicode="&#x152;" horiz-adv-x="2191" d="M2076 0 L1002 0 Q806 0 676.5 27 Q547 54 444 119 Q299 210 209.5 373 Q120 536 120 743 Q120 958 207 1116 Q294 1274 446 1370 Q525 1421 649.5 1455 Q774 1489 1006 1489 L2076 1489 L2076 1313 L1313 1313 L1313 905 L2076 905 L2076 729 L1313 729 L1313 176 L2076 176 L2076 0 Z M1116 172 L1116 1317 L994 1317 Q848 1317 757.5 1301 Q667 1285 572 1231 Q456 1165 391.5 1041 Q327 917 327 746 Q327 575 383.5 456 Q440 337 549 269 Q640 212 744 192 Q848 172 994 172 L1116 172 Z " />
<glyph glyph-name="oe" unicode="&#x153;" horiz-adv-x="2010" d="M1910 539 L1106 539 Q1106 435 1136 359 Q1166 283 1218 234 Q1270 185 1340.5 161.5 Q1411 138 1493 138 Q1602 138 1704.5 177.5 Q1807 217 1877 273 L1889 273 L1889 68 Q1791 26 1695.5 0 Q1600 -26 1495 -26 Q1327 -26 1211 35 Q1095 96 1021 200 Q952 89 847.5 29 Q743 -31 612 -31 Q379 -31 242.5 127 Q106 285 106 558 Q106 835 245.5 991.5 Q385 1148 612 1148 Q752 1148 852 1087.5 Q952 1027 1020 913 Q1091 1019 1198.5 1083.5 Q1306 1148 1449 1148 Q1674 1148 1792 1014 Q1910 880 1910 641 L1910 539 Z M1727 683 Q1724 838 1651.5 915.5 Q1579 993 1438 993 Q1299 993 1211.5 911 Q1124 829 1108 683 L1727 683 Z M924 558 Q924 773 842 879.5 Q760 986 613 986 Q460 986 380 874 Q300 762 300 558 Q300 346 383.5 238.5 Q467 131 613 131 Q759 131 841.5 237.5 Q924 344 924 558 Z " />
<glyph glyph-name="endash" unicode="&#x2013;" horiz-adv-x="1302" d="M1149 572 L153 572 L153 732 L1149 732 L1149 572 Z " />
<glyph glyph-name="emdash" unicode="&#x2014;" horiz-adv-x="2048" d="M1895 572 L153 572 L153 732 L1895 732 L1895 572 Z " />
<glyph glyph-name="quotedblleft" unicode="&#x201c;" horiz-adv-x="940" d="M790 997 L656 997 L385 1556 L625 1556 L790 997 Z M386 997 L252 997 L-19 1556 L221 1556 L386 997 Z " />
<glyph glyph-name="quotedblright" unicode="&#x201d;" horiz-adv-x="940" d="M959 1556 L688 997 L554 997 L719 1556 L959 1556 Z M555 1556 L284 997 L150 997 L315 1556 L555 1556 Z " />
<glyph glyph-name="quoteleft" unicode="&#x2018;" horiz-adv-x="550" d="M390 997 L252 997 L-19 1556 L225 1556 L390 997 Z " />
<glyph glyph-name="quoteright" unicode="&#x2019;" horiz-adv-x="550" d="M569 1556 L298 997 L160 997 L325 1556 L569 1556 Z " />
<glyph glyph-name="divide" unicode="&#xf7;" horiz-adv-x="1676" d="M957 1022 L719 1022 L719 1297 L957 1297 L957 1022 Z M1466 572 L210 572 L210 732 L1466 732 L1466 572 Z M957 7 L719 7 L719 282 L957 282 L957 7 Z " />
<glyph glyph-name="lozenge" unicode="&#x25ca;" horiz-adv-x="1676" d="M1504 654 L838 -56 L172 654 L838 1364 L1504 654 Z M1283 654 L838 1131 L393 654 L838 177 L1283 654 Z " />
<glyph glyph-name="ydieresis" unicode="&#xff;" horiz-adv-x="1212" d="M1151 1117 L499 -412 L298 -412 L506 54 L61 1117 L265 1117 L608 289 L954 1117 L1151 1117 Z M923 1304 L724 1304 L724 1499 L923 1499 L923 1304 Z M510 1304 L311 1304 L311 1499 L510 1499 L510 1304 Z " />
<glyph glyph-name="Ydieresis" unicode="&#x178;" horiz-adv-x="1260" d="M1254 1489 L730 653 L730 0 L532 0 L532 632 L6 1489 L225 1489 L632 823 L1043 1489 L1254 1489 Z M939 1677 L740 1677 L740 1872 L939 1872 L939 1677 Z M526 1677 L327 1677 L327 1872 L526 1872 L526 1677 Z " />
<glyph glyph-name="&amp;#x2044;" unicode="&#x2044;" horiz-adv-x="740" d="M843 1489 L63 0 L-102 0 L678 1489 L843 1489 Z " />
<glyph glyph-name="&amp;#x2215;" unicode="&#x2215;" horiz-adv-x="740" d="M843 1489 L63 0 L-102 0 L678 1489 L843 1489 Z " />
<glyph glyph-name="Euro" unicode="&#x20ac;" horiz-adv-x="1302" d="M1226 62 Q1118 11 1025.5 -8 Q933 -27 807 -27 Q564 -27 373.5 124 Q183 275 134 535 L0 535 L44 653 L119 653 Q117 674 116 697.5 Q115 721 115 743 Q115 769 116 795 Q117 821 119 845 L0 845 L44 963 L137 963 Q195 1220 381 1368 Q567 1516 810 1516 Q951 1516 1046.5 1495.5 Q1142 1475 1226 1430 L1226 1221 L1210 1221 Q1130 1286 1031 1316.5 Q932 1347 808 1347 Q651 1347 523 1243.5 Q395 1140 347 963 L822 963 L778 845 L326 845 Q324 821 322.5 795 Q321 769 321 743 Q321 720 322 697 Q323 674 325 653 L705 653 L661 535 L345 535 Q394 353 526 248.5 Q658 144 808 144 Q965 144 1054 175.5 Q1143 207 1211 268 L1226 268 L1226 62 Z " />
<glyph glyph-name="guilsinglleft" unicode="&#x2039;" horiz-adv-x="930" d="M736 172 L186 608 L186 697 L736 1132 L736 933 L365 652 L736 371 L736 172 Z " />
<glyph glyph-name="guilsinglright" unicode="&#x203a;" horiz-adv-x="930" d="M744 608 L194 172 L194 371 L565 652 L194 933 L194 1132 L744 697 L744 608 Z " />
<glyph glyph-name="fi" unicode="&#xfb01;" horiz-adv-x="1280" d="M1107 1304 L899 1304 L899 1499 L1107 1499 L1107 1304 Z M1090 0 L902 0 L902 962 L383 962 L383 0 L195 0 L195 959 L68 959 L68 1117 L195 1117 L195 1166 Q195 1359 295 1462.5 Q395 1566 578 1566 Q640 1566 690.5 1559.5 Q741 1553 782 1546 L782 1376 L772 1376 Q744 1384 691 1394 Q638 1404 604 1404 Q483 1404 430 1350.5 Q377 1297 377 1157 L377 1117 L1090 1117 L1090 0 Z " />
<glyph glyph-name="fl" unicode="&#xfb02;" horiz-adv-x="1282" d="M1095 0 L907 0 L907 1389 Q864 1397 794.5 1403 Q725 1409 672 1409 Q510 1409 443.5 1355 Q377 1301 377 1161 L377 1117 L706 1117 L706 959 L383 959 L383 0 L195 0 L195 959 L68 959 L68 1117 L195 1117 L195 1166 Q195 1357 311.5 1461.5 Q428 1566 650 1566 Q719 1566 791 1559 Q863 1552 907 1548 L1095 1556 L1095 0 Z " />
<glyph glyph-name="daggerdbl" unicode="&#x2021;" horiz-adv-x="1302" d="M1115 507 L712 512 L717 124 L585 124 L590 512 L187 507 L187 636 L590 631 L590 1049 L187 1044 L187 1173 L590 1168 L585 1556 L717 1556 L712 1168 L1115 1173 L1115 1044 L712 1049 L712 631 L1115 636 L1115 507 Z " />
<glyph glyph-name="uni2219" unicode="&#x2219;" horiz-adv-x="745" d="M492 511 L253 511 L253 794 L492 794 L492 511 Z " />
<glyph glyph-name="quotesinglbase" unicode="&#x201a;" horiz-adv-x="550" d="M399 283 L128 -276 L-10 -276 L155 283 L399 283 Z " />
<glyph glyph-name="quotedblbase" unicode="&#x201e;" horiz-adv-x="940" d="M799 283 L528 -276 L394 -276 L559 283 L799 283 Z M395 283 L124 -276 L-10 -276 L155 283 L395 283 Z " />
<glyph glyph-name="perthousand" unicode="&#x2030;" horiz-adv-x="3116" d="M884 1076 Q884 852 789.5 743 Q695 634 517 634 Q335 634 242 743 Q149 852 149 1075 Q149 1299 244 1408 Q339 1517 517 1517 Q698 1517 791 1407 Q884 1297 884 1076 Z M1575 1489 L795 0 L630 0 L1410 1489 L1575 1489 Z M2055 413 Q2055 189 1960 80 Q1865 -29 1687 -29 Q1506 -29 1413 81 Q1320 191 1320 412 Q1320 636 1414.5 745 Q1509 854 1687 854 Q1869 854 1962 745 Q2055 636 2055 413 Z M706 1076 Q706 1248 661.5 1316 Q617 1384 517 1384 Q415 1384 371 1316 Q327 1248 327 1075 Q327 902 371 834.5 Q415 767 517 767 Q617 767 661.5 834.5 Q706 902 706 1076 Z M1877 413 Q1877 585 1832.5 653 Q1788 721 1688 721 Q1586 721 1542 653 Q1498 585 1498 412 Q1498 239 1542 171.5 Q1586 104 1688 104 Q1788 104 1832.5 171.5 Q1877 239 1877 413 Z M2963 413 Q2963 189 2868 80 Q2773 -29 2595 -29 Q2414 -29 2321 81 Q2228 191 2228 412 Q2228 636 2322.5 745 Q2417 854 2595 854 Q2777 854 2870 745 Q2963 636 2963 413 Z M2785 413 Q2785 585 2740.5 653 Q2696 721 2596 721 Q2494 721 2450 653 Q2406 585 2406 412 Q2406 239 2450 171.5 Q2494 104 2596 104 Q2696 104 2740.5 171.5 Q2785 239 2785 413 Z " />
<glyph glyph-name="Acircumflex" unicode="&#xc2;" horiz-adv-x="1400" d="M1374 0 L1163 0 L1017 415 L373 415 L227 0 L26 0 L568 1489 L832 1489 L1374 0 Z M956 585 L695 1316 L433 585 L956 585 Z M1033 1670 L874 1670 L689 1926 L505 1670 L350 1670 L578 2049 L805 2049 L1033 1670 Z " />
<glyph glyph-name="Ecircumflex" unicode="&#xca;" horiz-adv-x="1295" d="M1181 0 L200 0 L200 1489 L1181 1489 L1181 1313 L398 1313 L398 905 L1181 905 L1181 729 L398 729 L398 176 L1181 176 L1181 0 Z M1031 1670 L872 1670 L687 1926 L503 1670 L348 1670 L576 2049 L803 2049 L1031 1670 Z " />
<glyph glyph-name="Aacute" unicode="&#xc1;" horiz-adv-x="1400" d="M1374 0 L1163 0 L1017 415 L373 415 L227 0 L26 0 L568 1489 L832 1489 L1374 0 Z M956 585 L695 1316 L433 585 L956 585 Z M955 2049 L682 1675 L533 1675 L712 2049 L955 2049 Z " />
<glyph glyph-name="Edieresis" unicode="&#xcb;" horiz-adv-x="1295" d="M1181 0 L200 0 L200 1489 L1181 1489 L1181 1313 L398 1313 L398 905 L1181 905 L1181 729 L398 729 L398 176 L1181 176 L1181 0 Z M1038 1677 L839 1677 L839 1872 L1038 1872 L1038 1677 Z M625 1677 L426 1677 L426 1872 L625 1872 L625 1677 Z " />
<glyph glyph-name="Egrave" unicode="&#xc8;" horiz-adv-x="1295" d="M1181 0 L200 0 L200 1489 L1181 1489 L1181 1313 L398 1313 L398 905 L1181 905 L1181 729 L398 729 L398 176 L1181 176 L1181 0 Z M822 1675 L673 1675 L400 2049 L643 2049 L822 1675 Z " />
<glyph glyph-name="Iacute" unicode="&#xcd;" horiz-adv-x="862" d="M725 0 L137 0 L137 152 L332 152 L332 1337 L137 1337 L137 1489 L725 1489 L725 1337 L530 1337 L530 152 L725 152 L725 0 Z M725 2049 L452 1675 L303 1675 L482 2049 L725 2049 Z " />
<glyph glyph-name="Icircumflex" unicode="&#xce;" horiz-adv-x="862" d="M725 0 L137 0 L137 152 L332 152 L332 1337 L137 1337 L137 1489 L725 1489 L725 1337 L530 1337 L530 152 L725 152 L725 0 Z M776 1670 L617 1670 L432 1926 L248 1670 L93 1670 L321 2049 L548 2049 L776 1670 Z " />
<glyph glyph-name="Idieresis" unicode="&#xcf;" horiz-adv-x="862" d="M725 0 L137 0 L137 152 L332 152 L332 1337 L137 1337 L137 1489 L725 1489 L725 1337 L530 1337 L530 152 L725 152 L725 0 Z M738 1677 L539 1677 L539 1872 L738 1872 L738 1677 Z M325 1677 L126 1677 L126 1872 L325 1872 L325 1677 Z " />
<glyph glyph-name="Igrave" unicode="&#xcc;" horiz-adv-x="862" d="M725 0 L137 0 L137 152 L332 152 L332 1337 L137 1337 L137 1489 L725 1489 L725 1337 L530 1337 L530 152 L725 152 L725 0 Z M568 1675 L419 1675 L146 2049 L389 2049 L568 1675 Z " />
<glyph glyph-name="Oacute" unicode="&#xd3;" horiz-adv-x="1612" d="M1310 1318 Q1401 1218 1449.5 1073 Q1498 928 1498 744 Q1498 560 1448.5 414.5 Q1399 269 1310 172 Q1218 71 1092.5 20 Q967 -31 806 -31 Q649 -31 520.5 21 Q392 73 302 172 Q212 271 163.5 415 Q115 559 115 744 Q115 926 163 1070.5 Q211 1215 303 1318 Q391 1416 521.5 1468 Q652 1520 806 1520 Q966 1520 1093.5 1467.5 Q1221 1415 1310 1318 Z M1292 744 Q1292 1034 1162 1191.5 Q1032 1349 807 1349 Q580 1349 450.5 1191.5 Q321 1034 321 744 Q321 451 453 295.5 Q585 140 807 140 Q1029 140 1160.5 295.5 Q1292 451 1292 744 Z M1083 2049 L810 1675 L661 1675 L840 2049 L1083 2049 Z " />
<glyph glyph-name="Ocircumflex" unicode="&#xd4;" horiz-adv-x="1612" d="M1310 1318 Q1401 1218 1449.5 1073 Q1498 928 1498 744 Q1498 560 1448.5 414.5 Q1399 269 1310 172 Q1218 71 1092.5 20 Q967 -31 806 -31 Q649 -31 520.5 21 Q392 73 302 172 Q212 271 163.5 415 Q115 559 115 744 Q115 926 163 1070.5 Q211 1215 303 1318 Q391 1416 521.5 1468 Q652 1520 806 1520 Q966 1520 1093.5 1467.5 Q1221 1415 1310 1318 Z M1292 744 Q1292 1034 1162 1191.5 Q1032 1349 807 1349 Q580 1349 450.5 1191.5 Q321 1034 321 744 Q321 451 453 295.5 Q585 140 807 140 Q1029 140 1160.5 295.5 Q1292 451 1292 744 Z M1136 1670 L977 1670 L792 1926 L608 1670 L453 1670 L681 2049 L908 2049 L1136 1670 Z " />
<glyph glyph-name="Ograve" unicode="&#xd2;" horiz-adv-x="1612" d="M1310 1318 Q1401 1218 1449.5 1073 Q1498 928 1498 744 Q1498 560 1448.5 414.5 Q1399 269 1310 172 Q1218 71 1092.5 20 Q967 -31 806 -31 Q649 -31 520.5 21 Q392 73 302 172 Q212 271 163.5 415 Q115 559 115 744 Q115 926 163 1070.5 Q211 1215 303 1318 Q391 1416 521.5 1468 Q652 1520 806 1520 Q966 1520 1093.5 1467.5 Q1221 1415 1310 1318 Z M1292 744 Q1292 1034 1162 1191.5 Q1032 1349 807 1349 Q580 1349 450.5 1191.5 Q321 1034 321 744 Q321 451 453 295.5 Q585 140 807 140 Q1029 140 1160.5 295.5 Q1292 451 1292 744 Z M932 1675 L783 1675 L510 2049 L753 2049 L932 1675 Z " />
<glyph glyph-name="Uacute" unicode="&#xda;" horiz-adv-x="1499" d="M1321 598 Q1321 436 1285.5 315.5 Q1250 195 1169 115 Q1092 39 989 4 Q886 -31 749 -31 Q609 -31 505 6 Q401 43 330 115 Q249 197 213.5 313 Q178 429 178 598 L178 1489 L376 1489 L376 588 Q376 467 392.5 397 Q409 327 448 270 Q492 205 567.5 172 Q643 139 749 139 Q856 139 931 171.5 Q1006 204 1051 270 Q1090 327 1106.5 400.5 Q1123 474 1123 583 L1123 1489 L1321 1489 L1321 598 Z M1073 2049 L800 1675 L651 1675 L830 2049 L1073 2049 Z " />
<glyph glyph-name="Ucircumflex" unicode="&#xdb;" horiz-adv-x="1499" d="M1321 598 Q1321 436 1285.5 315.5 Q1250 195 1169 115 Q1092 39 989 4 Q886 -31 749 -31 Q609 -31 505 6 Q401 43 330 115 Q249 197 213.5 313 Q178 429 178 598 L178 1489 L376 1489 L376 588 Q376 467 392.5 397 Q409 327 448 270 Q492 205 567.5 172 Q643 139 749 139 Q856 139 931 171.5 Q1006 204 1051 270 Q1090 327 1106.5 400.5 Q1123 474 1123 583 L1123 1489 L1321 1489 L1321 598 Z M1084 1670 L925 1670 L740 1926 L556 1670 L401 1670 L629 2049 L856 2049 L1084 1670 Z " />
<glyph glyph-name="Ugrave" unicode="&#xd9;" horiz-adv-x="1499" d="M1321 598 Q1321 436 1285.5 315.5 Q1250 195 1169 115 Q1092 39 989 4 Q886 -31 749 -31 Q609 -31 505 6 Q401 43 330 115 Q249 197 213.5 313 Q178 429 178 598 L178 1489 L376 1489 L376 588 Q376 467 392.5 397 Q409 327 448 270 Q492 205 567.5 172 Q643 139 749 139 Q856 139 931 171.5 Q1006 204 1051 270 Q1090 327 1106.5 400.5 Q1123 474 1123 583 L1123 1489 L1321 1489 L1321 598 Z M932 1675 L783 1675 L510 2049 L753 2049 L932 1675 Z " />
<glyph glyph-name="dotlessi" unicode="&#x131;" horiz-adv-x="562" d="M375 0 L187 0 L187 1117 L375 1117 L375 0 Z " />
<glyph glyph-name="circumflex" unicode="&#x2c6;" horiz-adv-x="1302" d="M993 1297 L834 1297 L649 1553 L465 1297 L310 1297 L538 1676 L765 1676 L993 1297 Z " />
<glyph glyph-name="tilde" unicode="&#x2dc;" horiz-adv-x="1302" d="M1068 1619 Q1057 1467 991 1390 Q925 1313 814 1313 Q760 1313 714 1332.5 Q668 1352 627 1389 Q580 1432 547.5 1453.5 Q515 1475 476 1475 Q424 1475 398 1430 Q372 1385 368 1309 L237 1309 Q245 1460 316 1537 Q387 1614 490 1614 Q540 1614 586.5 1594.5 Q633 1575 675 1539 Q722 1498 758.5 1477.5 Q795 1457 828 1457 Q879 1457 907.5 1503 Q936 1549 939 1619 L1068 1619 Z " />
<glyph glyph-name="uni02C9" unicode="&#x2c9;" horiz-adv-x="1302" d="M1022 1335 L280 1335 L280 1489 L1022 1489 L1022 1335 Z " />
<glyph glyph-name="breve" unicode="&#x2d8;" horiz-adv-x="1302" d="M1026 1676 Q1016 1508 917.5 1401 Q819 1294 650 1294 Q481 1294 382.5 1401 Q284 1508 275 1676 L441 1676 Q453 1544 506.5 1484 Q560 1424 651 1424 Q740 1424 793.5 1484 Q847 1544 861 1676 L1026 1676 Z " />
<glyph glyph-name="dotaccent" unicode="&#x2d9;" horiz-adv-x="1302" d="M757 1304 L545 1304 L545 1499 L757 1499 L757 1304 Z " />
<glyph glyph-name="ring" unicode="&#x2da;" horiz-adv-x="1302" d="M1001 1630 Q1001 1487 899 1388 Q797 1289 651 1289 Q507 1289 404 1387.5 Q301 1486 301 1630 Q301 1773 403 1871 Q505 1969 651 1969 Q798 1969 899.5 1871 Q1001 1773 1001 1630 Z M856 1630 Q856 1716 797.5 1775.5 Q739 1835 651 1835 Q563 1835 504.5 1776 Q446 1717 446 1630 Q446 1543 505 1484 Q564 1425 651 1425 Q739 1425 797.5 1484 Q856 1543 856 1630 Z " />
<glyph glyph-name="cedilla" unicode="&#xb8;" horiz-adv-x="1302" d="M880 -89 Q880 -251 788.5 -337 Q697 -423 551 -423 Q514 -423 456 -416 Q398 -409 353 -397 L353 -237 L362 -237 Q388 -247 432 -260 Q476 -273 526 -273 Q630 -273 679 -234 Q728 -195 728 -107 Q728 -78 725 -41.5 Q722 -5 719 20 L872 20 Q874 1 877 -25 Q880 -51 880 -89 Z " />
<glyph glyph-name="hungarumlaut" unicode="&#x2dd;" horiz-adv-x="1302" d="M1143 1676 L885 1302 L746 1302 L915 1676 L1143 1676 Z M739 1676 L481 1302 L342 1302 L511 1676 L739 1676 Z " />
<glyph glyph-name="ogonek" unicode="&#x2db;" horiz-adv-x="1302" d="M892 -391 Q840 -405 802.5 -411 Q765 -417 723 -417 Q584 -417 499.5 -338 Q415 -259 415 -116 Q415 -78 421.5 -47 Q428 -16 434 10 L589 10 Q583 -17 580 -47 Q577 -77 577 -107 Q577 -189 618.5 -228 Q660 -267 750 -267 Q786 -267 826.5 -253.5 Q867 -240 884 -232 L892 -232 L892 -391 Z " />
<glyph glyph-name="caron" unicode="&#x2c7;" horiz-adv-x="1302" d="M989 1676 L761 1297 L534 1297 L306 1676 L465 1676 L650 1420 L834 1676 L989 1676 Z " />
<glyph glyph-name="Lslash" unicode="&#x141;" horiz-adv-x="1150" d="M1152 0 L210 0 L210 535 L24 383 L24 546 L210 695 L210 1489 L408 1489 L408 841 L757 1124 L757 961 L408 681 L408 176 L1152 176 L1152 0 Z " />
<glyph glyph-name="lslash" unicode="&#x142;" horiz-adv-x="582" d="M566 890 L385 745 L385 0 L197 0 L197 608 L24 467 L24 626 L197 764 L197 1556 L385 1556 L385 901 L566 1049 L566 890 Z " />
<glyph glyph-name="Scaron" unicode="&#x160;" horiz-adv-x="1400" d="M1282 425 Q1282 338 1241.5 253 Q1201 168 1128 109 Q1048 45 941.5 9 Q835 -27 685 -27 Q524 -27 395.5 3 Q267 33 134 92 L134 340 L148 340 Q261 246 409 195 Q557 144 687 144 Q871 144 973.5 213 Q1076 282 1076 397 Q1076 496 1027.5 543 Q979 590 880 616 Q805 636 717.5 649 Q630 662 532 682 Q334 724 238.5 825.5 Q143 927 143 1090 Q143 1277 301 1396.5 Q459 1516 702 1516 Q859 1516 990 1486 Q1121 1456 1222 1412 L1222 1178 L1208 1178 Q1123 1250 984.5 1297.5 Q846 1345 701 1345 Q542 1345 445.5 1279 Q349 1213 349 1109 Q349 1016 397 963 Q445 910 566 882 Q630 868 748 848 Q866 828 948 807 Q1114 763 1198 674 Q1282 585 1282 425 Z M1066 2049 L838 1670 L611 1670 L383 2049 L542 2049 L727 1793 L911 2049 L1066 2049 Z " />
<glyph glyph-name="scaron" unicode="&#x161;" horiz-adv-x="1067" d="M983 322 Q983 169 856.5 71 Q730 -27 511 -27 Q387 -27 283.5 2.5 Q180 32 110 67 L110 278 L120 278 Q209 211 318 171.5 Q427 132 527 132 Q651 132 721 172 Q791 212 791 298 Q791 364 753 398 Q715 432 607 456 Q567 465 502.5 477 Q438 489 385 503 Q238 542 176.5 617.5 Q115 693 115 803 Q115 872 143.5 933 Q172 994 230 1042 Q286 1089 372.5 1116.5 Q459 1144 566 1144 Q666 1144 768.5 1119.5 Q871 1095 939 1060 L939 859 L929 859 Q857 912 754 948.5 Q651 985 552 985 Q449 985 378 945.5 Q307 906 307 828 Q307 759 350 724 Q392 689 486 667 Q538 655 602.5 643 Q667 631 710 621 Q841 591 912 518 Q983 444 983 322 Z M907 1676 L679 1297 L452 1297 L224 1676 L383 1676 L568 1420 L752 1676 L907 1676 Z " />
<glyph glyph-name="Zcaron" unicode="&#x17d;" horiz-adv-x="1403" d="M1288 0 L126 0 L126 184 L1039 1313 L160 1313 L160 1489 L1266 1489 L1266 1310 L344 176 L1288 176 L1288 0 Z M1039 2049 L811 1670 L584 1670 L356 2049 L515 2049 L700 1793 L884 2049 L1039 2049 Z " />
<glyph glyph-name="zcaron" unicode="&#x17e;" horiz-adv-x="1076" d="M995 0 L93 0 L93 139 L744 960 L107 960 L107 1117 L978 1117 L978 983 L324 159 L995 159 L995 0 Z M881 1676 L653 1297 L426 1297 L198 1676 L357 1676 L542 1420 L726 1676 L881 1676 Z " />
<glyph glyph-name="brokenbar" unicode="&#xa6;" horiz-adv-x="930" d="M552 758 L378 758 L378 1556 L552 1556 L552 758 Z M552 -392 L378 -392 L378 406 L552 406 L552 -392 Z " />
<glyph glyph-name="Eth" unicode="&#xd0;" horiz-adv-x="1588" d="M1468 743 Q1468 540 1379.5 375 Q1291 210 1144 119 Q1042 56 916.5 28 Q791 0 586 0 L210 0 L210 740 L14 740 L14 883 L210 883 L210 1489 L582 1489 Q800 1489 929 1457.5 Q1058 1426 1146 1371 Q1298 1276 1383 1118 Q1468 960 1468 743 Z M1261 746 Q1261 921 1200 1041 Q1139 1161 1018 1230 Q930 1280 831 1299.5 Q732 1319 594 1319 L406 1319 L406 883 L767 883 L767 740 L406 740 L406 170 L594 170 Q737 170 843.5 191 Q950 212 1039 269 Q1150 340 1205.5 456 Q1261 572 1261 746 Z " />
<glyph glyph-name="eth" unicode="&#xf0;" horiz-adv-x="1253" d="M1137 637 Q1137 313 995 141 Q853 -31 612 -31 Q383 -31 244.5 104 Q106 239 106 484 Q106 710 243 842 Q380 974 582 974 Q690 974 767.5 947.5 Q845 921 931 868 Q899 980 831.5 1087 Q764 1194 677 1268 L413 1106 L347 1203 L584 1345 Q500 1412 428 1452.5 Q356 1493 263 1540 L263 1556 L558 1556 Q593 1531 642 1497.5 Q691 1464 728 1438 L938 1566 L1004 1469 L818 1360 Q971 1213 1054 1034.5 Q1137 856 1137 637 Z M847 226 Q896 285 922 369.5 Q948 454 948 604 Q948 636 946.5 663.5 Q945 691 943 721 Q868 766 785.5 787.5 Q703 809 617 809 Q470 809 385.5 721.5 Q301 634 301 482 Q301 302 385.5 215 Q470 128 613 128 Q679 128 740.5 150 Q802 172 847 226 Z " />
<glyph glyph-name="Yacute" unicode="&#xdd;" horiz-adv-x="1260" d="M1254 1489 L730 653 L730 0 L532 0 L532 632 L6 1489 L225 1489 L632 823 L1043 1489 L1254 1489 Z M935 2049 L662 1675 L513 1675 L692 2049 L935 2049 Z " />
<glyph glyph-name="yacute" unicode="&#xfd;" horiz-adv-x="1212" d="M1151 1117 L499 -412 L298 -412 L506 54 L61 1117 L265 1117 L608 289 L954 1117 L1151 1117 Z M928 1676 L655 1302 L506 1302 L685 1676 L928 1676 Z " />
<glyph glyph-name="Thorn" unicode="&#xde;" horiz-adv-x="1240" d="M1174 787 Q1174 695 1139 610.5 Q1104 526 1044 469 Q966 394 856.5 358 Q747 322 596 322 L398 322 L398 0 L200 0 L200 1489 L398 1489 L398 1219 L603 1219 Q736 1219 833 1196.5 Q930 1174 997 1130 Q1080 1077 1127 992 Q1174 907 1174 787 Z M968 782 Q968 854 942 907.5 Q916 961 860 996 Q812 1026 748 1038.5 Q684 1051 594 1051 L398 1051 L398 488 L565 488 Q684 488 760 508.5 Q836 529 883 574 Q927 615 947.5 666 Q968 717 968 782 Z " />
<glyph glyph-name="thorn" unicode="&#xfe;" horiz-adv-x="1276" d="M1168 572 Q1168 436 1129 323.5 Q1090 211 1019 133 Q953 59 863.5 18.5 Q774 -22 674 -22 Q587 -22 516.5 -3 Q446 16 373 56 L373 -412 L185 -412 L185 1556 L373 1556 L373 1000 Q448 1063 541.5 1105.5 Q635 1148 741 1148 Q943 1148 1055.5 995.5 Q1168 843 1168 572 Z M974 567 Q974 769 905 869 Q836 969 693 969 Q612 969 530 934 Q448 899 373 842 L373 209 Q453 173 510.5 160 Q568 147 641 147 Q798 147 886 253 Q974 359 974 567 Z " />
<glyph glyph-name="minus" unicode="&#x2212;" horiz-adv-x="1676" d="M1456 572 L220 572 L220 732 L1456 732 L1456 572 Z " />
<glyph glyph-name="multiply" unicode="&#xd7;" horiz-adv-x="1676" d="M1385 216 L1274 105 L838 545 L402 105 L291 216 L731 652 L291 1088 L402 1199 L838 759 L1274 1199 L1385 1088 L945 652 L1385 216 Z " />
<glyph glyph-name="onesuperior" unicode="&#xb9;" horiz-adv-x="1110" d="M914 566 L299 566 L299 688 L533 688 L533 1256 L291 1256 L291 1368 Q336 1368 390 1374.5 Q444 1381 474 1393 Q511 1409 533 1431 Q555 1453 558 1493 L693 1493 L693 688 L914 688 L914 566 Z " />
<glyph glyph-name="twosuperior" unicode="&#xb2;" horiz-adv-x="1110" d="M967 566 L207 566 L207 722 Q307 784 390.5 839 Q474 894 525 935 Q656 1038 693 1089.5 Q730 1141 730 1225 Q730 1294 676.5 1332 Q623 1370 533 1370 Q444 1370 358 1339.5 Q272 1309 224 1278 L211 1278 L211 1458 Q282 1484 369.5 1501.5 Q457 1519 544 1519 Q724 1519 817.5 1440.5 Q911 1362 911 1237 Q911 1138 862.5 1062.5 Q814 987 699 897 Q644 854 566.5 803 Q489 752 423 711 L967 711 L967 566 Z " />
<glyph glyph-name="threesuperior" unicode="&#xb3;" horiz-adv-x="1110" d="M956 817 Q956 742 923 685.5 Q890 629 834 595 Q777 560 703 543.5 Q629 527 540 527 Q446 527 363.5 542 Q281 557 207 585 L207 764 L221 764 Q262 728 359.5 698.5 Q457 669 550 669 Q650 669 716.5 704.5 Q783 740 783 815 Q783 900 724 930 Q665 960 553 960 L410 960 L410 1101 L538 1101 Q650 1101 703.5 1139.5 Q757 1178 757 1246 Q757 1307 707.5 1342.5 Q658 1378 554 1378 Q477 1378 379.5 1347 Q282 1316 238 1280 L224 1280 L224 1458 Q298 1485 384.5 1502.5 Q471 1520 561 1520 Q736 1520 832.5 1452 Q929 1384 929 1278 Q929 1189 874 1132 Q819 1075 730 1049 L730 1041 Q825 1024 890.5 968.5 Q956 913 956 817 Z " />
<glyph glyph-name="onehalf" unicode="&#xbd;" horiz-adv-x="2048" d="M545 565 L380 565 L380 1246 L171 1246 L171 1363 Q273 1363 336 1385 Q399 1407 408 1493 L545 1493 L545 565 Z M1410 1489 L630 0 L465 0 L1245 1489 L1410 1489 Z M1955 0 L1267 0 L1267 148 Q1358 217 1425 269 Q1492 321 1531 358 Q1640 461 1672 515.5 Q1704 570 1704 652 Q1704 722 1660 759 Q1616 796 1540 796 Q1470 796 1398.5 766 Q1327 736 1286 704 L1271 704 L1271 883 Q1336 910 1411.5 927 Q1487 944 1564 944 Q1721 944 1805.5 865 Q1890 786 1890 664 Q1890 571 1849 497 Q1808 423 1702 329 Q1653 286 1582.5 233 Q1512 180 1457 139 L1955 139 L1955 0 Z " />
<glyph glyph-name="onequarter" unicode="&#xbc;" horiz-adv-x="2048" d="M545 565 L380 565 L380 1246 L171 1246 L171 1363 Q273 1363 336 1385 Q399 1407 408 1493 L545 1493 L545 565 Z M1410 1489 L630 0 L465 0 L1245 1489 L1410 1489 Z M1857 220 L1694 220 L1694 0 L1544 0 L1544 220 L1079 220 L1079 405 L1545 944 L1694 944 L1694 353 L1857 353 L1857 220 Z M1548 353 L1548 753 L1195 353 L1548 353 Z " />
<glyph glyph-name="threequarters" unicode="&#xbe;" horiz-adv-x="2048" d="M793 826 Q793 755 763 699 Q733 643 685 609 Q632 572 570.5 556 Q509 540 430 540 Q348 540 276.5 555 Q205 570 140 598 L140 773 L157 773 Q194 738 271 708.5 Q348 679 427 679 Q511 679 566 715.5 Q621 752 621 824 Q621 907 571 936.5 Q521 966 430 966 L290 966 L290 1105 L415 1105 Q502 1105 549.5 1143 Q597 1181 597 1247 Q597 1307 556 1342.5 Q515 1378 428 1378 Q362 1378 285.5 1347 Q209 1316 172 1281 L155 1281 L155 1456 Q219 1483 294 1500 Q369 1517 448 1517 Q600 1517 685 1447 Q770 1377 770 1279 Q770 1192 721.5 1135.5 Q673 1079 596 1053 L596 1045 Q676 1029 734.5 974.5 Q793 920 793 826 Z M1500 1489 L720 0 L555 0 L1335 1489 L1500 1489 Z M1913 220 L1750 220 L1750 0 L1600 0 L1600 220 L1135 220 L1135 405 L1601 944 L1750 944 L1750 353 L1913 353 L1913 220 Z M1604 353 L1604 753 L1251 353 L1604 353 Z " />
<glyph glyph-name="franc" unicode="&#x20a3;" horiz-adv-x="1302" d="M1140 1318 L434 1318 L434 891 L1084 891 L1084 720 L434 720 L434 447 L764 447 L764 308 L434 308 L434 0 L242 0 L242 308 L60 308 L60 447 L242 447 L242 1489 L1140 1489 L1140 1318 Z " />
<glyph glyph-name="Gbreve" unicode="&#x11e;" horiz-adv-x="1588" d="M1442 110 Q1320 54 1175.5 12.5 Q1031 -29 896 -29 Q722 -29 577 19 Q432 67 330 163 Q227 260 171 405.5 Q115 551 115 746 Q115 1103 323.5 1309.5 Q532 1516 896 1516 Q1023 1516 1155.5 1485.5 Q1288 1455 1441 1382 L1441 1147 L1423 1147 Q1392 1171 1333 1210 Q1274 1249 1217 1275 Q1148 1306 1060.5 1326.5 Q973 1347 862 1347 Q612 1347 466.5 1186.5 Q321 1026 321 752 Q321 463 473 302.5 Q625 142 887 142 Q983 142 1078.5 161 Q1174 180 1246 210 L1246 575 L847 575 L847 749 L1442 749 L1442 110 Z M1233 2049 Q1223 1881 1124.5 1774 Q1026 1667 857 1667 Q688 1667 589.5 1774 Q491 1881 482 2049 L648 2049 Q660 1917 713.5 1857 Q767 1797 858 1797 Q947 1797 1000.5 1857 Q1054 1917 1068 2049 L1233 2049 Z " />
<glyph glyph-name="gbreve" unicode="&#x11f;" horiz-adv-x="1276" d="M1091 127 Q1091 -157 962 -290 Q833 -423 565 -423 Q476 -423 391.5 -410.5 Q307 -398 225 -375 L225 -183 L235 -183 Q281 -201 381 -227.5 Q481 -254 581 -254 Q677 -254 740 -231 Q803 -208 838 -167 Q873 -128 888 -73 Q903 -18 903 50 L903 152 Q818 84 740.5 50.5 Q663 17 543 17 Q343 17 225.5 161.5 Q108 306 108 569 Q108 713 148.5 817.5 Q189 922 259 998 Q324 1069 417 1108.5 Q510 1148 602 1148 Q699 1148 764.5 1128.5 Q830 1109 903 1069 L915 1117 L1091 1117 L1091 127 Z M903 307 L903 916 Q828 950 763.5 964.5 Q699 979 635 979 Q480 979 391 875 Q302 771 302 573 Q302 385 368 288 Q434 191 587 191 Q669 191 751.5 222.5 Q834 254 903 307 Z M1024 1676 Q1014 1508 915.5 1401 Q817 1294 648 1294 Q479 1294 380.5 1401 Q282 1508 273 1676 L439 1676 Q451 1544 504.5 1484 Q558 1424 649 1424 Q738 1424 791.5 1484 Q845 1544 859 1676 L1024 1676 Z " />
<glyph glyph-name="Idotaccent" unicode="&#x130;" horiz-adv-x="862" d="M725 0 L137 0 L137 152 L332 152 L332 1337 L137 1337 L137 1489 L725 1489 L725 1337 L530 1337 L530 152 L725 152 L725 0 Z M537 1677 L325 1677 L325 1872 L537 1872 L537 1677 Z " />
<glyph glyph-name="Scedilla" unicode="&#x15e;" horiz-adv-x="1400" d="M1282 425 Q1282 338 1241.5 253 Q1201 168 1128 109 Q1084 74 1032 46.5 Q980 19 918 2 Q921 -20 922.5 -42 Q924 -64 924 -89 Q924 -246 834.5 -334.5 Q745 -423 591 -423 Q554 -423 496 -416 Q438 -409 393 -397 L393 -235 L402 -235 Q428 -245 469 -259 Q510 -273 566 -273 Q670 -273 719 -234 Q768 -195 768 -107 Q768 -83 766.5 -62.5 Q765 -42 763 -24 Q743 -25 724.5 -26 Q706 -27 685 -27 Q524 -27 395.5 3 Q267 33 134 92 L134 340 L148 340 Q261 246 409 195 Q557 144 687 144 Q871 144 973.5 213 Q1076 282 1076 397 Q1076 496 1027.5 543 Q979 590 880 616 Q805 636 717.5 649 Q630 662 532 682 Q334 724 238.5 825.5 Q143 927 143 1090 Q143 1277 301 1396.5 Q459 1516 702 1516 Q859 1516 990 1486 Q1121 1456 1222 1412 L1222 1178 L1208 1178 Q1123 1250 984.5 1297.5 Q846 1345 701 1345 Q542 1345 445.5 1279 Q349 1213 349 1109 Q349 1016 397 963 Q445 910 566 882 Q630 868 748 848 Q866 828 948 807 Q1114 763 1198 674 Q1282 585 1282 425 Z " />
<glyph glyph-name="scedilla" unicode="&#x15f;" horiz-adv-x="1067" d="M983 322 Q983 215 919.5 133.5 Q856 52 745 10 Q747 -9 749.5 -36 Q752 -63 752 -89 Q752 -251 660.5 -337 Q569 -423 423 -423 Q386 -423 328 -416 Q270 -409 225 -397 L225 -237 L234 -237 Q260 -247 304 -260 Q348 -273 398 -273 Q502 -273 551 -234 Q600 -195 600 -107 Q600 -83 598.5 -60.5 Q597 -38 595 -23 Q574 -25 554 -26 Q534 -27 511 -27 Q387 -27 283.5 2.5 Q180 32 110 67 L110 278 L120 278 Q209 211 318 171.5 Q427 132 527 132 Q651 132 721 172 Q791 212 791 298 Q791 364 753 398 Q715 432 607 456 Q567 465 502.5 477 Q438 489 385 503 Q238 542 176.5 617.5 Q115 693 115 803 Q115 872 143.5 933 Q172 994 230 1042 Q286 1089 372.5 1116.5 Q459 1144 566 1144 Q666 1144 768.5 1119.5 Q871 1095 939 1060 L939 859 L929 859 Q857 912 754 948.5 Q651 985 552 985 Q449 985 378 945.5 Q307 906 307 828 Q307 759 350 724 Q392 689 486 667 Q538 655 602.5 643 Q667 631 710 621 Q841 591 912 518 Q983 444 983 322 Z " />
<glyph glyph-name="Cacute" unicode="&#x106;" horiz-adv-x="1430" d="M1350 108 Q1295 84 1250.5 63 Q1206 42 1134 19 Q1073 0 1001.5 -13.5 Q930 -27 844 -27 Q682 -27 549.5 18.5 Q417 64 319 161 Q223 256 169 402.5 Q115 549 115 743 Q115 927 167 1072 Q219 1217 317 1317 Q412 1414 546.5 1465 Q681 1516 845 1516 Q965 1516 1084.5 1487 Q1204 1458 1350 1385 L1350 1150 L1335 1150 Q1212 1253 1091 1300 Q970 1347 832 1347 Q719 1347 628.5 1310.5 Q538 1274 467 1197 Q398 1122 359.5 1007.5 Q321 893 321 743 Q321 586 363.5 473 Q406 360 473 289 Q543 215 636.5 179.5 Q730 144 834 144 Q977 144 1102 193 Q1227 242 1336 340 L1350 340 L1350 108 Z M1073 2049 L800 1675 L651 1675 L830 2049 L1073 2049 Z " />
<glyph glyph-name="cacute" unicode="&#x107;" horiz-adv-x="1067" d="M1011 70 Q917 25 832.5 0 Q748 -25 653 -25 Q532 -25 431 10.5 Q330 46 258 118 Q185 190 145 300 Q105 410 105 557 Q105 831 255.5 987 Q406 1143 653 1143 Q749 1143 841.5 1116 Q934 1089 1011 1050 L1011 841 L1001 841 Q915 908 823.5 944 Q732 980 645 980 Q485 980 392.5 872.5 Q300 765 300 557 Q300 355 390.5 246.5 Q481 138 645 138 Q702 138 761 153 Q820 168 867 192 Q908 213 944 236.5 Q980 260 1001 277 L1011 277 L1011 70 Z M913 1676 L640 1302 L491 1302 L670 1676 L913 1676 Z " />
<glyph glyph-name="Ccaron" unicode="&#x10c;" horiz-adv-x="1430" d="M1350 108 Q1295 84 1250.5 63 Q1206 42 1134 19 Q1073 0 1001.5 -13.5 Q930 -27 844 -27 Q682 -27 549.5 18.5 Q417 64 319 161 Q223 256 169 402.5 Q115 549 115 743 Q115 927 167 1072 Q219 1217 317 1317 Q412 1414 546.5 1465 Q681 1516 845 1516 Q965 1516 1084.5 1487 Q1204 1458 1350 1385 L1350 1150 L1335 1150 Q1212 1253 1091 1300 Q970 1347 832 1347 Q719 1347 628.5 1310.5 Q538 1274 467 1197 Q398 1122 359.5 1007.5 Q321 893 321 743 Q321 586 363.5 473 Q406 360 473 289 Q543 215 636.5 179.5 Q730 144 834 144 Q977 144 1102 193 Q1227 242 1336 340 L1350 340 L1350 108 Z M1157 2049 L929 1670 L702 1670 L474 2049 L633 2049 L818 1793 L1002 2049 L1157 2049 Z " />
<glyph glyph-name="ccaron" unicode="&#x10d;" horiz-adv-x="1067" d="M1011 70 Q917 25 832.5 0 Q748 -25 653 -25 Q532 -25 431 10.5 Q330 46 258 118 Q185 190 145 300 Q105 410 105 557 Q105 831 255.5 987 Q406 1143 653 1143 Q749 1143 841.5 1116 Q934 1089 1011 1050 L1011 841 L1001 841 Q915 908 823.5 944 Q732 980 645 980 Q485 980 392.5 872.5 Q300 765 300 557 Q300 355 390.5 246.5 Q481 138 645 138 Q702 138 761 153 Q820 168 867 192 Q908 213 944 236.5 Q980 260 1001 277 L1011 277 L1011 70 Z M979 1676 L751 1297 L524 1297 L296 1676 L455 1676 L640 1420 L824 1676 L979 1676 Z " />
<glyph glyph-name="dcroat" unicode="&#x111;" horiz-adv-x="1276" d="M1275 1268 L1091 1268 L1091 0 L903 0 L903 117 Q826 51 739.5 10 Q653 -31 543 -31 Q345 -31 226.5 120 Q108 271 108 544 Q108 686 149 795.5 Q190 905 258 982 Q326 1058 417 1097.5 Q508 1137 604 1137 Q693 1137 760 1119 Q827 1101 903 1062 L903 1268 L540 1268 L540 1402 L903 1402 L903 1556 L1091 1556 L1091 1402 L1275 1402 L1275 1268 Z M903 275 L903 908 Q824 942 766.5 954 Q709 966 636 966 Q480 966 391 859 Q302 752 302 548 Q302 353 369.5 250.5 Q437 148 588 148 Q668 148 750 183.5 Q832 219 903 275 Z " />
<glyph glyph-name="macron" unicode="&#xaf;" horiz-adv-x="1302" d="M1306 1668 L1 1668 L-4 1788 L1306 1788 L1306 1668 Z " />
<glyph glyph-name="periodcentered" unicode="&#xb7;" horiz-adv-x="745" d="M492 511 L253 511 L253 794 L492 794 L492 511 Z " />
<glyph glyph-name="Abreve" unicode="&#x102;" horiz-adv-x="1400" d="M1374 0 L1163 0 L1017 415 L373 415 L227 0 L26 0 L568 1489 L832 1489 L1374 0 Z M956 585 L695 1316 L433 585 L956 585 Z M1075 2049 Q1065 1881 966.5 1774 Q868 1667 699 1667 Q530 1667 431.5 1774 Q333 1881 324 2049 L490 2049 Q502 1917 555.5 1857 Q609 1797 700 1797 Q789 1797 842.5 1857 Q896 1917 910 2049 L1075 2049 Z " />
<glyph glyph-name="abreve" unicode="&#x103;" horiz-adv-x="1230" d="M1053 0 L866 0 L866 119 Q841 102 798.5 71.5 Q756 41 716 23 Q669 0 608 -15.5 Q547 -31 465 -31 Q314 -31 209 69 Q104 169 104 324 Q104 451 158.5 529.5 Q213 608 314 653 Q416 698 559 714 Q702 730 866 738 L866 767 Q866 831 843.5 873 Q821 915 779 939 Q739 962 683 970 Q627 978 566 978 Q492 978 401 958.5 Q310 939 213 902 L203 902 L203 1093 Q258 1108 362 1126 Q466 1144 567 1144 Q685 1144 772.5 1124.5 Q860 1105 924 1058 Q987 1012 1020 939 Q1053 866 1053 758 L1053 0 Z M866 275 L866 586 Q780 581 663.5 571 Q547 561 479 542 Q398 519 348 470.5 Q298 422 298 337 Q298 241 356 192.5 Q414 144 533 144 Q632 144 714 182.5 Q796 221 866 275 Z M984 1676 Q974 1508 875.5 1401 Q777 1294 608 1294 Q439 1294 340.5 1401 Q242 1508 233 1676 L399 1676 Q411 1544 464.5 1484 Q518 1424 609 1424 Q698 1424 751.5 1484 Q805 1544 819 1676 L984 1676 Z " />
<glyph glyph-name="Aogonek" unicode="&#x104;" horiz-adv-x="1400" d="M1579 -391 Q1527 -405 1489.5 -411 Q1452 -417 1410 -417 Q1271 -417 1186.5 -338.5 Q1102 -260 1102 -116 Q1102 -52 1117 1 Q1132 54 1138 75 L1017 415 L373 415 L227 0 L26 0 L568 1489 L832 1489 L1374 0 L1277 0 Q1271 -27 1267.5 -53.5 Q1264 -80 1264 -107 Q1264 -189 1305.5 -228 Q1347 -267 1437 -267 Q1473 -267 1513.5 -253.5 Q1554 -240 1571 -232 L1579 -232 L1579 -391 Z M956 585 L695 1316 L433 585 L956 585 Z " />
<glyph glyph-name="aogonek" unicode="&#x105;" horiz-adv-x="1230" d="M1326 -391 Q1274 -405 1236.5 -411 Q1199 -417 1157 -417 Q1018 -417 933.5 -338 Q849 -259 849 -116 Q849 -78 855.5 -48.5 Q862 -19 866 0 L866 119 Q841 102 798.5 71.5 Q756 41 716 23 Q669 0 608 -15.5 Q547 -31 465 -31 Q314 -31 209 69 Q104 169 104 324 Q104 451 158.5 529.5 Q213 608 314 653 Q416 698 559 714 Q702 730 866 738 L866 767 Q866 831 843.5 873 Q821 915 779 939 Q739 962 683 970 Q627 978 566 978 Q492 978 401 958.5 Q310 939 213 902 L203 902 L203 1093 Q258 1108 362 1126 Q466 1144 567 1144 Q685 1144 772.5 1124.5 Q860 1105 924 1058 Q987 1012 1020 939 Q1053 866 1053 758 L1053 0 L1024 0 Q1018 -27 1014.5 -52 Q1011 -77 1011 -107 Q1011 -189 1052.5 -228 Q1094 -267 1184 -267 Q1220 -267 1260.5 -253.5 Q1301 -240 1318 -232 L1326 -232 L1326 -391 Z M866 275 L866 586 Q780 581 663.5 571 Q547 561 479 542 Q398 519 348 470.5 Q298 422 298 337 Q298 241 356 192.5 Q414 144 533 144 Q632 144 714 182.5 Q796 221 866 275 Z " />
<glyph glyph-name="Dcaron" unicode="&#x10e;" horiz-adv-x="1578" d="M1458 743 Q1458 540 1369.5 375 Q1281 210 1134 119 Q1032 56 906.5 28 Q781 0 576 0 L200 0 L200 1489 L572 1489 Q790 1489 918.5 1457.5 Q1047 1426 1136 1371 Q1288 1276 1373 1118 Q1458 960 1458 743 Z M1251 746 Q1251 921 1190 1041 Q1129 1161 1008 1230 Q920 1280 821 1299.5 Q722 1319 584 1319 L398 1319 L398 170 L584 170 Q727 170 833.5 191 Q940 212 1029 269 Q1140 340 1195.5 456 Q1251 572 1251 746 Z M1029 2049 L801 1670 L574 1670 L346 2049 L505 2049 L690 1793 L874 2049 L1029 2049 Z " />
<glyph glyph-name="dcaron" unicode="&#x10f;" horiz-adv-x="1326" d="M1575 1556 L1325 1051 L1198 1051 L1350 1556 L1575 1556 Z M1091 0 L903 0 L903 117 Q822 47 734 8 Q646 -31 543 -31 Q343 -31 225.5 123 Q108 277 108 550 Q108 692 148.5 803 Q189 914 258 992 Q326 1068 416.5 1108 Q507 1148 604 1148 Q692 1148 760 1129.5 Q828 1111 903 1072 L903 1556 L1091 1556 L1091 0 Z M903 275 L903 916 Q827 950 767 963 Q707 976 636 976 Q478 976 390 866 Q302 756 302 554 Q302 355 370 251.5 Q438 148 588 148 Q668 148 750 183.5 Q832 219 903 275 Z " />
<glyph glyph-name="Dcroat" unicode="&#x110;" horiz-adv-x="1588" d="M1468 743 Q1468 540 1379.5 375 Q1291 210 1144 119 Q1042 56 916.5 28 Q791 0 586 0 L210 0 L210 740 L14 740 L14 883 L210 883 L210 1489 L582 1489 Q800 1489 929 1457.5 Q1058 1426 1146 1371 Q1298 1276 1383 1118 Q1468 960 1468 743 Z M1261 746 Q1261 921 1200 1041 Q1139 1161 1018 1230 Q930 1280 831 1299.5 Q732 1319 594 1319 L406 1319 L406 883 L767 883 L767 740 L406 740 L406 170 L594 170 Q737 170 843.5 191 Q950 212 1039 269 Q1150 340 1205.5 456 Q1261 572 1261 746 Z " />
<glyph glyph-name="Eogonek" unicode="&#x118;" horiz-adv-x="1295" d="M1229 -391 Q1177 -405 1139.5 -411 Q1102 -417 1060 -417 Q921 -417 836.5 -338 Q752 -259 752 -116 Q752 -80 757.5 -54.5 Q763 -29 769 0 L200 0 L200 1489 L1181 1489 L1181 1313 L398 1313 L398 905 L1181 905 L1181 729 L398 729 L398 176 L1181 176 L1181 0 L927 0 Q921 -27 917.5 -53.5 Q914 -80 914 -107 Q914 -189 955.5 -228 Q997 -267 1087 -267 Q1123 -267 1163.5 -253.5 Q1204 -240 1221 -232 L1229 -232 L1229 -391 Z " />
<glyph glyph-name="eogonek" unicode="&#x119;" horiz-adv-x="1220" d="M1120 539 L297 539 Q297 436 328 359.5 Q359 283 413 234 Q465 186 536.5 162 Q608 138 694 138 Q808 138 923.5 183.5 Q1039 229 1088 273 L1098 273 L1098 68 Q1024 37 946.5 12.5 Q869 -12 788 -21 Q786 -41 784.5 -65 Q783 -89 783 -107 Q783 -189 824.5 -228 Q866 -267 956 -267 Q992 -267 1032.5 -253.5 Q1073 -240 1090 -232 L1098 -232 L1098 -391 Q1046 -405 1008.5 -411 Q971 -417 929 -417 Q790 -417 705.5 -338 Q621 -259 621 -116 Q621 -92 624 -67 Q627 -42 631 -24 Q383 -6 244.5 143 Q106 292 106 552 Q106 826 255.5 987 Q405 1148 649 1148 Q875 1148 997.5 1016 Q1120 884 1120 641 L1120 539 Z M937 683 Q936 831 862.5 912 Q789 993 639 993 Q488 993 398.5 904 Q309 815 297 683 L937 683 Z " />
<glyph glyph-name="Ecaron" unicode="&#x11a;" horiz-adv-x="1295" d="M1181 0 L200 0 L200 1489 L1181 1489 L1181 1313 L398 1313 L398 905 L1181 905 L1181 729 L398 729 L398 176 L1181 176 L1181 0 Z M1023 2049 L795 1670 L568 1670 L340 2049 L499 2049 L684 1793 L868 2049 L1023 2049 Z " />
<glyph glyph-name="ecaron" unicode="&#x11b;" horiz-adv-x="1220" d="M1120 539 L297 539 Q297 436 328 359.5 Q359 283 413 234 Q465 186 536.5 162 Q608 138 694 138 Q808 138 923.5 183.5 Q1039 229 1088 273 L1098 273 L1098 68 Q1003 28 904 1 Q805 -26 696 -26 Q418 -26 262 124.5 Q106 275 106 552 Q106 826 255.5 987 Q405 1148 649 1148 Q875 1148 997.5 1016 Q1120 884 1120 641 L1120 539 Z M937 683 Q936 831 862.5 912 Q789 993 639 993 Q488 993 398.5 904 Q309 815 297 683 L937 683 Z M986 1676 L758 1297 L531 1297 L303 1676 L462 1676 L647 1420 L831 1676 L986 1676 Z " />
<glyph glyph-name="Lacute" unicode="&#x139;" horiz-adv-x="1140" d="M1142 0 L200 0 L200 1489 L398 1489 L398 176 L1142 176 L1142 0 Z M643 2049 L370 1675 L221 1675 L400 2049 L643 2049 Z " />
<glyph glyph-name="lacute" unicode="&#x13a;" horiz-adv-x="562" d="M375 0 L187 0 L187 1556 L375 1556 L375 0 Z M593 2049 L320 1675 L171 1675 L350 2049 L593 2049 Z " />
<glyph glyph-name="Lcaron" unicode="&#x13d;" horiz-adv-x="1140" d="M1142 0 L200 0 L200 1489 L398 1489 L398 176 L1142 176 L1142 0 Z M947 1556 L697 1051 L570 1051 L722 1556 L947 1556 Z " />
<glyph glyph-name="lcaron" unicode="&#x13e;" horiz-adv-x="606" d="M852 1556 L602 1051 L475 1051 L627 1556 L852 1556 Z M375 0 L187 0 L187 1556 L375 1556 L375 0 Z " />
<glyph glyph-name="Ldot" unicode="&#x13f;" horiz-adv-x="1140" d="M1142 0 L200 0 L200 1489 L398 1489 L398 176 L1142 176 L1142 0 Z M986 519 L753 519 L753 786 L986 786 L986 519 Z " />
<glyph glyph-name="ldot" unicode="&#x140;" horiz-adv-x="939" d="M375 0 L187 0 L187 1556 L375 1556 L375 0 Z M866 520 L635 520 L635 785 L866 785 L866 520 Z " />
<glyph glyph-name="Nacute" unicode="&#x143;" horiz-adv-x="1532" d="M1336 0 L1091 0 L385 1332 L385 0 L200 0 L200 1489 L507 1489 L1151 273 L1151 1489 L1336 1489 L1336 0 Z M1083 2049 L810 1675 L661 1675 L840 2049 L1083 2049 Z " />
<glyph glyph-name="nacute" unicode="&#x144;" horiz-adv-x="1296" d="M1119 0 L931 0 L931 636 Q931 713 922 780.5 Q913 848 889 886 Q864 928 817 948.5 Q770 969 695 969 Q618 969 534 931 Q450 893 373 834 L373 0 L185 0 L185 1117 L373 1117 L373 993 Q461 1066 555 1107 Q649 1148 748 1148 Q929 1148 1024 1039 Q1119 930 1119 725 L1119 0 Z M963 1676 L690 1302 L541 1302 L720 1676 L963 1676 Z " />
<glyph glyph-name="Ncaron" unicode="&#x147;" horiz-adv-x="1532" d="M1336 0 L1091 0 L385 1332 L385 0 L200 0 L200 1489 L507 1489 L1151 273 L1151 1489 L1336 1489 L1336 0 Z M1151 2049 L923 1670 L696 1670 L468 2049 L627 2049 L812 1793 L996 2049 L1151 2049 Z " />
<glyph glyph-name="ncaron" unicode="&#x148;" horiz-adv-x="1296" d="M1119 0 L931 0 L931 636 Q931 713 922 780.5 Q913 848 889 886 Q864 928 817 948.5 Q770 969 695 969 Q618 969 534 931 Q450 893 373 834 L373 0 L185 0 L185 1117 L373 1117 L373 993 Q461 1066 555 1107 Q649 1148 748 1148 Q929 1148 1024 1039 Q1119 930 1119 725 L1119 0 Z M1017 1676 L789 1297 L562 1297 L334 1676 L493 1676 L678 1420 L862 1676 L1017 1676 Z " />
<glyph glyph-name="Ohungarumlaut" unicode="&#x150;" horiz-adv-x="1612" d="M1310 1318 Q1401 1218 1449.5 1073 Q1498 928 1498 744 Q1498 560 1448.5 414.5 Q1399 269 1310 172 Q1218 71 1092.5 20 Q967 -31 806 -31 Q649 -31 520.5 21 Q392 73 302 172 Q212 271 163.5 415 Q115 559 115 744 Q115 926 163 1070.5 Q211 1215 303 1318 Q391 1416 521.5 1468 Q652 1520 806 1520 Q966 1520 1093.5 1467.5 Q1221 1415 1310 1318 Z M1292 744 Q1292 1034 1162 1191.5 Q1032 1349 807 1349 Q580 1349 450.5 1191.5 Q321 1034 321 744 Q321 451 453 295.5 Q585 140 807 140 Q1029 140 1160.5 295.5 Q1292 451 1292 744 Z M1283 2049 L1025 1675 L886 1675 L1055 2049 L1283 2049 Z M879 2049 L621 1675 L482 1675 L651 2049 L879 2049 Z " />
<glyph glyph-name="ohungarumlaut" unicode="&#x151;" horiz-adv-x="1243" d="M1137 558 Q1137 285 997 127 Q857 -31 622 -31 Q385 -31 245.5 127 Q106 285 106 558 Q106 831 245.5 989.5 Q385 1148 622 1148 Q857 1148 997 989.5 Q1137 831 1137 558 Z M943 558 Q943 775 858 880.5 Q773 986 622 986 Q469 986 384.5 880.5 Q300 775 300 558 Q300 348 385 239.5 Q470 131 622 131 Q772 131 857.5 238.5 Q943 346 943 558 Z M1103 1676 L845 1302 L706 1302 L875 1676 L1103 1676 Z M699 1676 L441 1302 L302 1302 L471 1676 L699 1676 Z " />
<glyph glyph-name="Racute" unicode="&#x154;" horiz-adv-x="1424" d="M1432 0 L1175 0 L677 592 L398 592 L398 0 L200 0 L200 1489 L617 1489 Q752 1489 842 1471.5 Q932 1454 1004 1409 Q1085 1358 1130.5 1280.5 Q1176 1203 1176 1084 Q1176 923 1095 814.5 Q1014 706 872 651 L1432 0 Z M969 1070 Q969 1134 946.5 1183.5 Q924 1233 872 1267 Q829 1296 770 1307.5 Q711 1319 631 1319 L398 1319 L398 757 L598 757 Q692 757 762 773.5 Q832 790 881 835 Q926 877 947.5 931.5 Q969 986 969 1070 Z M953 2049 L680 1675 L531 1675 L710 2049 L953 2049 Z " />
<glyph glyph-name="racute" unicode="&#x155;" horiz-adv-x="874" d="M882 912 L872 912 Q830 922 790.5 926.5 Q751 931 697 931 Q610 931 529 892.5 Q448 854 373 793 L373 0 L185 0 L185 1117 L373 1117 L373 952 Q485 1042 570.5 1079.5 Q656 1117 745 1117 Q794 1117 816 1114.5 Q838 1112 882 1105 L882 912 Z M763 1676 L490 1302 L341 1302 L520 1676 L763 1676 Z " />
<glyph glyph-name="Rcaron" unicode="&#x158;" horiz-adv-x="1424" d="M1432 0 L1175 0 L677 592 L398 592 L398 0 L200 0 L200 1489 L617 1489 Q752 1489 842 1471.5 Q932 1454 1004 1409 Q1085 1358 1130.5 1280.5 Q1176 1203 1176 1084 Q1176 923 1095 814.5 Q1014 706 872 651 L1432 0 Z M969 1070 Q969 1134 946.5 1183.5 Q924 1233 872 1267 Q829 1296 770 1307.5 Q711 1319 631 1319 L398 1319 L398 757 L598 757 Q692 757 762 773.5 Q832 790 881 835 Q926 877 947.5 931.5 Q969 986 969 1070 Z M999 2049 L771 1670 L544 1670 L316 2049 L475 2049 L660 1793 L844 2049 L999 2049 Z " />
<glyph glyph-name="rcaron" unicode="&#x159;" horiz-adv-x="874" d="M882 912 L872 912 Q830 922 790.5 926.5 Q751 931 697 931 Q610 931 529 892.5 Q448 854 373 793 L373 0 L185 0 L185 1117 L373 1117 L373 952 Q485 1042 570.5 1079.5 Q656 1117 745 1117 Q794 1117 816 1114.5 Q838 1112 882 1105 L882 912 Z M829 1676 L601 1297 L374 1297 L146 1676 L305 1676 L490 1420 L674 1676 L829 1676 Z " />
<glyph glyph-name="Sacute" unicode="&#x15a;" horiz-adv-x="1400" d="M1282 425 Q1282 338 1241.5 253 Q1201 168 1128 109 Q1048 45 941.5 9 Q835 -27 685 -27 Q524 -27 395.5 3 Q267 33 134 92 L134 340 L148 340 Q261 246 409 195 Q557 144 687 144 Q871 144 973.5 213 Q1076 282 1076 397 Q1076 496 1027.5 543 Q979 590 880 616 Q805 636 717.5 649 Q630 662 532 682 Q334 724 238.5 825.5 Q143 927 143 1090 Q143 1277 301 1396.5 Q459 1516 702 1516 Q859 1516 990 1486 Q1121 1456 1222 1412 L1222 1178 L1208 1178 Q1123 1250 984.5 1297.5 Q846 1345 701 1345 Q542 1345 445.5 1279 Q349 1213 349 1109 Q349 1016 397 963 Q445 910 566 882 Q630 868 748 848 Q866 828 948 807 Q1114 763 1198 674 Q1282 585 1282 425 Z M983 2049 L710 1675 L561 1675 L740 2049 L983 2049 Z " />
<glyph glyph-name="sacute" unicode="&#x15b;" horiz-adv-x="1067" d="M983 322 Q983 169 856.5 71 Q730 -27 511 -27 Q387 -27 283.5 2.5 Q180 32 110 67 L110 278 L120 278 Q209 211 318 171.5 Q427 132 527 132 Q651 132 721 172 Q791 212 791 298 Q791 364 753 398 Q715 432 607 456 Q567 465 502.5 477 Q438 489 385 503 Q238 542 176.5 617.5 Q115 693 115 803 Q115 872 143.5 933 Q172 994 230 1042 Q286 1089 372.5 1116.5 Q459 1144 566 1144 Q666 1144 768.5 1119.5 Q871 1095 939 1060 L939 859 L929 859 Q857 912 754 948.5 Q651 985 552 985 Q449 985 378 945.5 Q307 906 307 828 Q307 759 350 724 Q392 689 486 667 Q538 655 602.5 643 Q667 631 710 621 Q841 591 912 518 Q983 444 983 322 Z M855 1676 L582 1302 L433 1302 L612 1676 L855 1676 Z " />
<glyph glyph-name="uni0162" unicode="&#x162;" horiz-adv-x="1262" d="M1262 1313 L730 1313 L730 37 Q733 17 737.5 -19 Q742 -55 742 -89 Q742 -251 650.5 -337 Q559 -423 413 -423 Q376 -423 318 -416 Q260 -409 215 -397 L215 -237 L224 -237 Q250 -247 294 -260 Q338 -273 388 -273 Q492 -273 541 -234 Q590 -195 590 -107 Q590 -77 587.5 -50 Q585 -23 582 0 L532 0 L532 1313 L0 1313 L0 1489 L1262 1489 L1262 1313 Z " />
<glyph glyph-name="uni0163" unicode="&#x163;" horiz-adv-x="807" d="M765 10 Q753 7 739 3.5 Q725 0 709 -3 Q711 -21 713 -43 Q715 -65 715 -89 Q715 -251 623.5 -337 Q532 -423 386 -423 Q349 -423 291 -416 Q233 -409 188 -397 L188 -237 L197 -237 Q223 -247 267 -260 Q311 -273 361 -273 Q465 -273 514 -234 Q563 -195 563 -107 Q563 -84 561.5 -60.5 Q560 -37 558 -21 L538 -21 Q367 -21 278 70.5 Q189 162 189 365 L189 959 L62 959 L62 1117 L189 1117 L189 1438 L377 1438 L377 1117 L765 1117 L765 959 L377 959 L377 450 Q377 362 381 312.5 Q385 263 409 220 Q431 180 469.5 161.5 Q508 143 587 143 Q633 143 683 156.5 Q733 170 755 179 L765 179 L765 10 Z " />
<glyph glyph-name="Tcaron" unicode="&#x164;" horiz-adv-x="1262" d="M1262 1313 L730 1313 L730 0 L532 0 L532 1313 L0 1313 L0 1489 L1262 1489 L1262 1313 Z M971 2049 L743 1670 L516 1670 L288 2049 L447 2049 L632 1793 L816 2049 L971 2049 Z " />
<glyph glyph-name="tcaron" unicode="&#x165;" horiz-adv-x="807" d="M765 10 Q712 -4 649.5 -13 Q587 -22 538 -22 Q367 -22 278 70 Q189 162 189 365 L189 959 L62 959 L62 1117 L189 1117 L189 1438 L377 1438 L377 1117 L765 1117 L765 959 L377 959 L377 450 Q377 362 381 312.5 Q385 263 409 220 Q431 180 469.5 161.5 Q508 143 587 143 Q633 143 683 156.5 Q733 170 755 179 L765 179 L765 10 Z M890 1797 L640 1302 L513 1302 L665 1797 L890 1797 Z " />
<glyph glyph-name="Uring" unicode="&#x16e;" horiz-adv-x="1499" d="M1321 598 Q1321 436 1285.5 315.5 Q1250 195 1169 115 Q1092 39 989 4 Q886 -31 749 -31 Q609 -31 505 6 Q401 43 330 115 Q249 197 213.5 313 Q178 429 178 598 L178 1489 L376 1489 L376 588 Q376 467 392.5 397 Q409 327 448 270 Q492 205 567.5 172 Q643 139 749 139 Q856 139 931 171.5 Q1006 204 1051 270 Q1090 327 1106.5 400.5 Q1123 474 1123 583 L1123 1489 L1321 1489 L1321 598 Z M1100 1710 Q1100 1567 998 1468 Q896 1369 750 1369 Q606 1369 503 1467.5 Q400 1566 400 1710 Q400 1853 502 1951 Q604 2049 750 2049 Q897 2049 998.5 1951 Q1100 1853 1100 1710 Z M955 1710 Q955 1796 896.5 1855.5 Q838 1915 750 1915 Q662 1915 603.5 1856 Q545 1797 545 1710 Q545 1623 604 1564 Q663 1505 750 1505 Q838 1505 896.5 1564 Q955 1623 955 1710 Z " />
<glyph glyph-name="uring" unicode="&#x16f;" horiz-adv-x="1296" d="M1111 0 L923 0 L923 124 Q828 49 741 9 Q654 -31 549 -31 Q373 -31 275 76.5 Q177 184 177 392 L177 1117 L365 1117 L365 481 Q365 396 373 335.5 Q381 275 407 232 Q434 188 477 168 Q520 148 602 148 Q675 148 761.5 186 Q848 224 923 283 L923 1117 L1111 1117 L1111 0 Z M1001 1630 Q1001 1487 899 1388 Q797 1289 651 1289 Q507 1289 404 1387.5 Q301 1486 301 1630 Q301 1773 403 1871 Q505 1969 651 1969 Q798 1969 899.5 1871 Q1001 1773 1001 1630 Z M856 1630 Q856 1716 797.5 1775.5 Q739 1835 651 1835 Q563 1835 504.5 1776 Q446 1717 446 1630 Q446 1543 505 1484 Q564 1425 651 1425 Q739 1425 797.5 1484 Q856 1543 856 1630 Z " />
<glyph glyph-name="Uhungarumlaut" unicode="&#x170;" horiz-adv-x="1499" d="M1321 598 Q1321 436 1285.5 315.5 Q1250 195 1169 115 Q1092 39 989 4 Q886 -31 749 -31 Q609 -31 505 6 Q401 43 330 115 Q249 197 213.5 313 Q178 429 178 598 L178 1489 L376 1489 L376 588 Q376 467 392.5 397 Q409 327 448 270 Q492 205 567.5 172 Q643 139 749 139 Q856 139 931 171.5 Q1006 204 1051 270 Q1090 327 1106.5 400.5 Q1123 474 1123 583 L1123 1489 L1321 1489 L1321 598 Z M1263 2049 L1005 1675 L866 1675 L1035 2049 L1263 2049 Z M859 2049 L601 1675 L462 1675 L631 2049 L859 2049 Z " />
<glyph glyph-name="uhungarumlaut" unicode="&#x171;" horiz-adv-x="1296" d="M1111 0 L923 0 L923 124 Q828 49 741 9 Q654 -31 549 -31 Q373 -31 275 76.5 Q177 184 177 392 L177 1117 L365 1117 L365 481 Q365 396 373 335.5 Q381 275 407 232 Q434 188 477 168 Q520 148 602 148 Q675 148 761.5 186 Q848 224 923 283 L923 1117 L1111 1117 L1111 0 Z M1153 1676 L895 1302 L756 1302 L925 1676 L1153 1676 Z M749 1676 L491 1302 L352 1302 L521 1676 L749 1676 Z " />
<glyph glyph-name="Zacute" unicode="&#x179;" horiz-adv-x="1403" d="M1288 0 L126 0 L126 184 L1039 1313 L160 1313 L160 1489 L1266 1489 L1266 1310 L344 176 L1288 176 L1288 0 Z M970 2049 L697 1675 L548 1675 L727 2049 L970 2049 Z " />
<glyph glyph-name="zacute" unicode="&#x17a;" horiz-adv-x="1076" d="M995 0 L93 0 L93 139 L744 960 L107 960 L107 1117 L978 1117 L978 983 L324 159 L995 159 L995 0 Z M811 1676 L538 1302 L389 1302 L568 1676 L811 1676 Z " />
<glyph glyph-name="Zdotaccent" unicode="&#x17b;" horiz-adv-x="1403" d="M1288 0 L126 0 L126 184 L1039 1313 L160 1313 L160 1489 L1266 1489 L1266 1310 L344 176 L1288 176 L1288 0 Z M814 1677 L602 1677 L602 1872 L814 1872 L814 1677 Z " />
<glyph glyph-name="zdotaccent" unicode="&#x17c;" horiz-adv-x="1076" d="M995 0 L93 0 L93 139 L744 960 L107 960 L107 1117 L978 1117 L978 983 L324 159 L995 159 L995 0 Z M647 1304 L435 1304 L435 1499 L647 1499 L647 1304 Z " />
<glyph glyph-name="Gamma" unicode="&#x393;" horiz-adv-x="1160" d="M1162 1313 L398 1313 L398 0 L200 0 L200 1489 L1162 1489 L1162 1313 Z " />
<glyph glyph-name="Theta" unicode="&#x398;" horiz-adv-x="1612" d="M1310 1318 Q1401 1218 1449.5 1073 Q1498 928 1498 744 Q1498 560 1448.5 414.5 Q1399 269 1310 172 Q1218 71 1092.5 20 Q967 -31 806 -31 Q649 -31 520.5 21 Q392 73 302 172 Q212 271 163.5 415 Q115 559 115 744 Q115 926 163 1070.5 Q211 1215 303 1318 Q391 1416 521.5 1468 Q652 1520 806 1520 Q966 1520 1093.5 1467.5 Q1221 1415 1310 1318 Z M1292 744 Q1292 1034 1162 1191.5 Q1032 1349 807 1349 Q580 1349 450.5 1191.5 Q321 1034 321 744 Q321 451 453 295.5 Q585 140 807 140 Q1029 140 1160.5 295.5 Q1292 451 1292 744 Z M1120 713 L493 713 L493 892 L1120 892 L1120 713 Z " />
<glyph glyph-name="Phi" unicode="&#x3a6;" horiz-adv-x="1677" d="M1572 755 Q1572 615 1527.5 506.5 Q1483 398 1404 325 Q1319 246 1197 199.5 Q1075 153 937 150 L937 -16 L740 -16 L740 150 Q606 153 483 198 Q360 243 273 325 Q194 399 149.5 507 Q105 615 105 755 Q105 891 148 993 Q191 1095 267 1171 Q348 1252 469.5 1299 Q591 1346 740 1350 L740 1505 L937 1505 L937 1350 Q1085 1347 1208 1298 Q1331 1249 1410 1171 Q1485 1098 1528.5 994 Q1572 890 1572 755 Z M1366 763 Q1366 862 1334 945 Q1302 1028 1243 1085 Q1185 1141 1114 1167 Q1043 1193 937 1195 L937 305 Q1031 307 1108 335.5 Q1185 364 1235 411 Q1300 471 1333 558 Q1366 645 1366 763 Z M740 305 L740 1195 Q634 1194 563 1167 Q492 1140 434 1085 Q376 1030 343.5 945 Q311 860 311 763 Q311 651 344.5 560 Q378 469 442 411 Q491 366 568.5 336 Q646 306 740 305 Z " />
<glyph glyph-name="alpha" unicode="&#x3b1;" horiz-adv-x="1276" d="M1091 0 L903 0 L903 117 Q822 47 734 8 Q646 -31 543 -31 Q343 -31 225.5 123 Q108 277 108 550 Q108 692 148.5 803 Q189 914 258 992 Q326 1068 416.5 1108 Q507 1148 604 1148 Q692 1148 760 1126 Q828 1104 903 1065 L903 1117 L1091 1117 L1091 0 Z M903 275 L903 911 Q827 945 767 960.5 Q707 976 636 976 Q478 976 390 866 Q302 756 302 554 Q302 355 370 251.5 Q438 148 588 148 Q668 148 750 183.5 Q832 219 903 275 Z " />
<glyph glyph-name="delta" unicode="&#x3b4;" horiz-adv-x="1245" d="M1139 551 Q1139 279 1000.5 124 Q862 -31 624 -31 Q383 -31 244.5 120.5 Q106 272 106 534 Q106 675 149 773.5 Q192 872 256 936 Q325 1008 415 1049 Q505 1090 597 1107 Q521 1170 431 1237.5 Q341 1305 239 1377 L239 1556 L1049 1556 L1049 1398 L488 1398 L488 1388 Q556 1342 667 1264 Q778 1186 871 1102 Q1021 966 1080 840.5 Q1139 715 1139 551 Z M945 551 Q945 686 890 800 Q835 914 725 1000 Q659 992 586.5 968 Q514 944 448 891 Q385 841 342.5 754 Q300 667 300 540 Q300 339 385 235 Q470 131 626 131 Q779 131 862 236.5 Q945 342 945 551 Z " />
<glyph glyph-name="epsilon" unicode="&#x3b5;" horiz-adv-x="1050" d="M1006 64 Q899 16 796 -5 Q693 -26 578 -26 Q499 -26 417 -10 Q335 6 265 46 Q196 85 152.5 148.5 Q109 212 109 306 Q109 402 165.5 474 Q222 546 343 584 L343 591 Q252 615 198 681 Q144 747 144 839 Q144 928 191.5 986.5 Q239 1045 304 1079 Q368 1112 449 1128 Q530 1144 609 1144 Q707 1144 789 1127.5 Q871 1111 961 1083 L961 876 L948 876 Q882 927 784.5 955 Q687 983 587 983 Q542 983 503 977.5 Q464 972 422 952 Q387 937 361.5 903.5 Q336 870 336 826 Q336 765 364 731 Q392 697 440 682 Q485 668 537 666.5 Q589 665 642 665 L753 665 L753 499 L595 499 Q533 499 483 494.5 Q433 490 391 473 Q350 456 325.5 419 Q301 382 301 323 Q301 270 327 233 Q353 196 394 175 Q431 156 481.5 146 Q532 136 588 136 Q690 136 806 172 Q922 208 993 270 L1006 270 L1006 64 Z " />
<glyph glyph-name="sigma" unicode="&#x3c3;" horiz-adv-x="1291" d="M1137 558 Q1137 277 996.5 123 Q856 -31 623 -31 Q382 -31 244 127 Q106 285 106 558 Q106 833 247 990.5 Q388 1148 625 1148 Q680 1148 733 1137 Q786 1126 815 1117 L1295 1117 L1295 952 L1007 952 Q1069 879 1103 782 Q1137 685 1137 558 Z M943 558 Q943 773 861 880 Q779 987 625 987 Q464 987 382 875 Q300 763 300 558 Q300 349 383.5 240 Q467 131 623 131 Q775 131 859 238.5 Q943 346 943 558 Z " />
<glyph glyph-name="tau" unicode="&#x3c4;" horiz-adv-x="1016" d="M1006 952 L602 952 L602 0 L414 0 L414 952 L10 952 L10 1117 L1006 1117 L1006 952 Z " />
<glyph glyph-name="phi" unicode="&#x3c6;" horiz-adv-x="1618" d="M1514 576 Q1514 317 1342.5 159 Q1171 1 902 -14 L902 -412 L715 -412 L715 -14 Q585 -8 474.5 32.5 Q364 73 283 142 Q198 216 151 314 Q104 412 104 546 Q104 705 163 842 Q222 979 355 1117 L584 1117 L584 1100 Q448 1001 374 868 Q300 735 300 568 Q300 379 412.5 264 Q525 149 714 143 L714 1143 Q747 1145 784.5 1145.5 Q822 1146 861 1146 Q1165 1146 1339.5 996.5 Q1514 847 1514 576 Z M1319 586 Q1319 770 1207 879.5 Q1095 989 902 989 L902 143 Q1108 153 1213.5 269 Q1319 385 1319 586 Z " />
<glyph glyph-name="underscoredbl" unicode="&#x2017;" horiz-adv-x="1302" d="M1306 -202 L-4 -202 L-4 -82 L1306 -82 L1306 -202 Z M1306 -423 L-4 -423 L-4 -303 L1306 -303 L1306 -423 Z " />
<glyph glyph-name="exclamdbl" unicode="&#x203c;" horiz-adv-x="1279" d="M515 1489 L489 410 L319 410 L291 1489 L515 1489 Z M505 0 L301 0 L301 211 L505 211 L505 0 Z M988 1489 L962 410 L792 410 L764 1489 L988 1489 Z M978 0 L774 0 L774 211 L978 211 L978 0 Z " />
<glyph glyph-name="uni207F" unicode="&#x207f;" horiz-adv-x="1117" d="M966 554 L794 554 L794 1087 Q794 1157 787 1210 Q780 1263 759 1299 Q737 1335 698.5 1352.5 Q660 1370 596 1370 Q531 1370 460.5 1336.5 Q390 1303 325 1253 L325 554 L154 554 L154 1493 L325 1493 L325 1389 Q400 1451 481 1485.5 Q562 1520 646 1520 Q800 1520 883 1427.5 Q966 1335 966 1164 L966 554 Z " />
<glyph glyph-name="peseta" unicode="&#x20a7;" horiz-adv-x="2383" d="M2250 322 Q2250 167 2137 70 Q2024 -27 1834 -27 Q1728 -27 1635 3 Q1542 33 1481 67 L1481 278 L1490 278 Q1513 259 1548.5 234.5 Q1584 210 1629 188 Q1682 162 1730.5 147 Q1779 132 1848 132 Q1950 132 2010.5 170 Q2071 208 2071 298 Q2071 370 2037.5 404 Q2004 438 1919 460 Q1877 471 1828 480.5 Q1779 490 1724 506 Q1598 544 1543 618.5 Q1488 693 1488 803 Q1488 840 1495.5 874 Q1503 908 1521 946 L1300 946 L1300 0 L1119 0 L1119 946 L995 946 Q983 877 953.5 816.5 Q924 756 877 709 Q800 632 698 593.5 Q596 555 436 555 L388 555 L388 0 L200 0 L200 1489 L444 1489 Q578 1489 668 1466.5 Q758 1444 830 1396 Q901 1349 945 1275.5 Q989 1202 999 1102 L1119 1102 L1119 1322 L1300 1322 L1300 1102 L1683 1102 Q1719 1120 1776.5 1132 Q1834 1144 1883 1144 Q1968 1144 2058.5 1120 Q2149 1096 2211 1060 L2211 859 L2202 859 Q2138 912 2049.5 948.5 Q1961 985 1870 985 Q1781 985 1724 946 Q1667 907 1667 828 Q1667 758 1696.5 722 Q1726 686 1812 663 Q1858 651 1908 639 Q1958 627 2004 615 Q2118 585 2184 514 Q2250 443 2250 322 Z M808 1034 Q808 1111 781 1169.5 Q754 1228 699 1264 Q652 1295 586.5 1309.5 Q521 1324 434 1324 L388 1324 L388 719 L405 719 Q525 719 600 741.5 Q675 764 722 811 Q769 859 788.5 913.5 Q808 968 808 1034 Z " />
<glyph glyph-name="IJ" unicode="&#x132;" horiz-adv-x="1783" d="M725 0 L137 0 L137 152 L332 152 L332 1337 L137 1337 L137 1489 L725 1489 L725 1337 L530 1337 L530 152 L725 152 L725 0 Z M1598 387 Q1598 191 1478.5 85 Q1359 -21 1158 -21 Q1110 -21 1030 -12.5 Q950 -4 896 8 L896 193 L907 193 Q948 179 1008 164 Q1068 149 1131 149 Q1223 149 1277.5 170 Q1332 191 1358 230 Q1385 270 1392.5 328 Q1400 386 1400 462 L1400 1331 L1085 1331 L1085 1489 L1598 1489 L1598 387 Z " />
<glyph glyph-name="ij" unicode="&#x133;" horiz-adv-x="1257" d="M387 1304 L175 1304 L175 1499 L387 1499 L387 1304 Z M375 0 L187 0 L187 1117 L375 1117 L375 0 Z M1085 1304 L873 1304 L873 1499 L1085 1499 L1085 1304 Z M1073 -27 Q1073 -223 973 -323 Q873 -423 705 -423 Q665 -423 599.5 -415 Q534 -407 490 -395 L490 -216 L500 -216 Q528 -227 575.5 -241 Q623 -255 668 -255 Q740 -255 784 -235 Q828 -215 850 -175 Q872 -135 878.5 -78.5 Q885 -22 885 59 L885 959 L652 959 L652 1117 L1073 1117 L1073 -27 Z " />
<glyph glyph-name="napostrophe" unicode="&#x149;" horiz-adv-x="1496" d="M1319 0 L1131 0 L1131 636 Q1131 713 1122 780.5 Q1113 848 1089 886 Q1064 928 1017 948.5 Q970 969 895 969 Q818 969 734 931 Q650 893 573 834 L573 0 L385 0 L385 1117 L573 1117 L573 993 Q661 1066 755 1107 Q849 1148 948 1148 Q1129 1148 1224 1039 Q1319 930 1319 725 L1319 0 Z M409 1556 L138 997 L0 997 L165 1556 L409 1556 Z " />
<glyph glyph-name="minute" unicode="&#x2032;" horiz-adv-x="740" d="M647 1489 L349 870 L213 870 L407 1489 L647 1489 Z " />
<glyph glyph-name="second" unicode="&#x2033;" horiz-adv-x="1141" d="M647 1489 L349 870 L213 870 L407 1489 L647 1489 Z M1048 1489 L750 870 L614 870 L808 1489 L1048 1489 Z " />
<glyph glyph-name="uni2105" unicode="&#x2105;" horiz-adv-x="2204" d="M813 702 Q783 684 709.5 659 Q636 634 558 634 Q366 634 257.5 749 Q149 864 149 1074 Q149 1275 259.5 1396 Q370 1517 558 1517 Q623 1517 686.5 1500.5 Q750 1484 813 1451 L813 1278 L799 1278 Q739 1328 681.5 1353.5 Q624 1379 567 1379 Q458 1379 394.5 1304.5 Q331 1230 331 1074 Q331 924 392.5 848 Q454 772 567 772 Q640 772 701 805 Q762 838 799 873 L813 873 L813 702 Z M1570 1489 L790 0 L625 0 L1405 1489 L1570 1489 Z M2055 413 Q2055 189 1960 80 Q1865 -29 1687 -29 Q1506 -29 1413 81 Q1320 191 1320 412 Q1320 636 1414.5 745 Q1509 854 1687 854 Q1869 854 1962 745 Q2055 636 2055 413 Z M1877 413 Q1877 585 1832.5 653 Q1788 721 1688 721 Q1586 721 1542 653 Q1498 585 1498 412 Q1498 239 1542 171.5 Q1586 104 1688 104 Q1788 104 1832.5 171.5 Q1877 239 1877 413 Z " />
<glyph glyph-name="uni2113" unicode="&#x2113;" horiz-adv-x="662" d="M15 422 L192 657 L192 1112 Q192 1338 253.5 1414.5 Q315 1491 426 1491 Q522 1491 584 1426 Q646 1361 646 1252 Q646 1160 586 1027.5 Q526 895 361 665 L361 250 Q361 161 375.5 139.5 Q390 118 417 118 Q443 118 477 134.5 Q511 151 616 225 L616 63 Q561 19 504.5 -2.5 Q448 -24 391 -24 Q299 -24 245.5 33 Q192 90 192 217 L192 442 L113 344 L15 422 Z M361 899 Q459 1068 482.5 1132 Q506 1196 506 1251 Q506 1281 499.5 1305 Q493 1329 480 1346 Q470 1358 457.5 1364.5 Q445 1371 430 1371 Q415 1371 402.5 1365 Q390 1359 384 1345 Q373 1324 367 1269 Q361 1214 361 1126 L361 899 Z " />
<glyph glyph-name="H22073" unicode="&#x25a1;" horiz-adv-x="1237" d="M146 944 L1090 944 L1090 0 L146 0 L146 944 Z M222 868 L222 76 L1014 76 L1014 868 L222 868 Z " />
<glyph glyph-name="H18543" unicode="&#x25aa;" horiz-adv-x="726" d="M594 908 L594 445 L131 445 L131 908 L594 908 Z " />
<glyph glyph-name="H18551" unicode="&#x25ab;" horiz-adv-x="726" d="M594 908 L594 445 L131 445 L131 908 L594 908 Z M518 832 L207 832 L207 521 L518 521 L518 832 Z " />
<glyph glyph-name="H18533" unicode="&#x25cf;" horiz-adv-x="1237" d="M177 576 Q177 759 306 888 Q435 1017 618 1017 Q800 1017 929 888 Q1058 759 1058 576 Q1058 394 929 265 Q800 136 618 136 Q435 136 306 265 Q177 394 177 576 Z " />
<glyph glyph-name="openbullet" unicode="&#x25e6;" horiz-adv-x="726" d="M363 928 Q467 928 540.5 854.5 Q614 781 614 677 Q614 573 540.5 499.5 Q467 426 363 426 Q259 426 185.5 499.5 Q112 573 112 677 Q112 781 185 854.5 Q258 928 363 928 Z M363 852 Q290 852 239 800.5 Q188 749 188 677 Q188 604 239.5 553 Q291 502 363 502 Q435 502 486.5 553 Q538 604 538 677 Q538 749 487 800.5 Q436 852 363 852 Z " />
<glyph glyph-name="Amacron" unicode="&#x100;" horiz-adv-x="1400" d="M1374 0 L1163 0 L1017 415 L373 415 L227 0 L26 0 L568 1489 L832 1489 L1374 0 Z M956 585 L695 1316 L433 585 L956 585 Z M1071 1698 L329 1698 L329 1852 L1071 1852 L1071 1698 Z " />
<glyph glyph-name="amacron" unicode="&#x101;" horiz-adv-x="1230" d="M1053 0 L866 0 L866 119 Q841 102 798.5 71.5 Q756 41 716 23 Q669 0 608 -15.5 Q547 -31 465 -31 Q314 -31 209 69 Q104 169 104 324 Q104 451 158.5 529.5 Q213 608 314 653 Q416 698 559 714 Q702 730 866 738 L866 767 Q866 831 843.5 873 Q821 915 779 939 Q739 962 683 970 Q627 978 566 978 Q492 978 401 958.5 Q310 939 213 902 L203 902 L203 1093 Q258 1108 362 1126 Q466 1144 567 1144 Q685 1144 772.5 1124.5 Q860 1105 924 1058 Q987 1012 1020 939 Q1053 866 1053 758 L1053 0 Z M866 275 L866 586 Q780 581 663.5 571 Q547 561 479 542 Q398 519 348 470.5 Q298 422 298 337 Q298 241 356 192.5 Q414 144 533 144 Q632 144 714 182.5 Q796 221 866 275 Z M983 1335 L241 1335 L241 1489 L983 1489 L983 1335 Z " />
<glyph glyph-name="Ccircumflex" unicode="&#x108;" horiz-adv-x="1430" d="M1350 108 Q1295 84 1250.5 63 Q1206 42 1134 19 Q1073 0 1001.5 -13.5 Q930 -27 844 -27 Q682 -27 549.5 18.5 Q417 64 319 161 Q223 256 169 402.5 Q115 549 115 743 Q115 927 167 1072 Q219 1217 317 1317 Q412 1414 546.5 1465 Q681 1516 845 1516 Q965 1516 1084.5 1487 Q1204 1458 1350 1385 L1350 1150 L1335 1150 Q1212 1253 1091 1300 Q970 1347 832 1347 Q719 1347 628.5 1310.5 Q538 1274 467 1197 Q398 1122 359.5 1007.5 Q321 893 321 743 Q321 586 363.5 473 Q406 360 473 289 Q543 215 636.5 179.5 Q730 144 834 144 Q977 144 1102 193 Q1227 242 1336 340 L1350 340 L1350 108 Z M1162 1670 L1003 1670 L818 1926 L634 1670 L479 1670 L707 2049 L934 2049 L1162 1670 Z " />
<glyph glyph-name="ccircumflex" unicode="&#x109;" horiz-adv-x="1067" d="M1011 70 Q917 25 832.5 0 Q748 -25 653 -25 Q532 -25 431 10.5 Q330 46 258 118 Q185 190 145 300 Q105 410 105 557 Q105 831 255.5 987 Q406 1143 653 1143 Q749 1143 841.5 1116 Q934 1089 1011 1050 L1011 841 L1001 841 Q915 908 823.5 944 Q732 980 645 980 Q485 980 392.5 872.5 Q300 765 300 557 Q300 355 390.5 246.5 Q481 138 645 138 Q702 138 761 153 Q820 168 867 192 Q908 213 944 236.5 Q980 260 1001 277 L1011 277 L1011 70 Z M981 1297 L822 1297 L637 1553 L453 1297 L298 1297 L526 1676 L753 1676 L981 1297 Z " />
<glyph glyph-name="Cdotaccent" unicode="&#x10a;" horiz-adv-x="1430" d="M1350 108 Q1295 84 1250.5 63 Q1206 42 1134 19 Q1073 0 1001.5 -13.5 Q930 -27 844 -27 Q682 -27 549.5 18.5 Q417 64 319 161 Q223 256 169 402.5 Q115 549 115 743 Q115 927 167 1072 Q219 1217 317 1317 Q412 1414 546.5 1465 Q681 1516 845 1516 Q965 1516 1084.5 1487 Q1204 1458 1350 1385 L1350 1150 L1335 1150 Q1212 1253 1091 1300 Q970 1347 832 1347 Q719 1347 628.5 1310.5 Q538 1274 467 1197 Q398 1122 359.5 1007.5 Q321 893 321 743 Q321 586 363.5 473 Q406 360 473 289 Q543 215 636.5 179.5 Q730 144 834 144 Q977 144 1102 193 Q1227 242 1336 340 L1350 340 L1350 108 Z M925 1677 L713 1677 L713 1872 L925 1872 L925 1677 Z " />
<glyph glyph-name="cdotaccent" unicode="&#x10b;" horiz-adv-x="1067" d="M1011 70 Q917 25 832.5 0 Q748 -25 653 -25 Q532 -25 431 10.5 Q330 46 258 118 Q185 190 145 300 Q105 410 105 557 Q105 831 255.5 987 Q406 1143 653 1143 Q749 1143 841.5 1116 Q934 1089 1011 1050 L1011 841 L1001 841 Q915 908 823.5 944 Q732 980 645 980 Q485 980 392.5 872.5 Q300 765 300 557 Q300 355 390.5 246.5 Q481 138 645 138 Q702 138 761 153 Q820 168 867 192 Q908 213 944 236.5 Q980 260 1001 277 L1011 277 L1011 70 Z M746 1304 L534 1304 L534 1499 L746 1499 L746 1304 Z " />
<glyph glyph-name="Emacron" unicode="&#x112;" horiz-adv-x="1295" d="M1181 0 L200 0 L200 1489 L1181 1489 L1181 1313 L398 1313 L398 905 L1181 905 L1181 729 L398 729 L398 176 L1181 176 L1181 0 Z M1073 1698 L331 1698 L331 1852 L1073 1852 L1073 1698 Z " />
<glyph glyph-name="emacron" unicode="&#x113;" horiz-adv-x="1220" d="M1120 539 L297 539 Q297 436 328 359.5 Q359 283 413 234 Q465 186 536.5 162 Q608 138 694 138 Q808 138 923.5 183.5 Q1039 229 1088 273 L1098 273 L1098 68 Q1003 28 904 1 Q805 -26 696 -26 Q418 -26 262 124.5 Q106 275 106 552 Q106 826 255.5 987 Q405 1148 649 1148 Q875 1148 997.5 1016 Q1120 884 1120 641 L1120 539 Z M937 683 Q936 831 862.5 912 Q789 993 639 993 Q488 993 398.5 904 Q309 815 297 683 L937 683 Z M1013 1335 L271 1335 L271 1489 L1013 1489 L1013 1335 Z " />
<glyph glyph-name="Ebreve" unicode="&#x114;" horiz-adv-x="1295" d="M1181 0 L200 0 L200 1489 L1181 1489 L1181 1313 L398 1313 L398 905 L1181 905 L1181 729 L398 729 L398 176 L1181 176 L1181 0 Z M1090 2049 Q1080 1881 981.5 1774 Q883 1667 714 1667 Q545 1667 446.5 1774 Q348 1881 339 2049 L505 2049 Q517 1917 570.5 1857 Q624 1797 715 1797 Q804 1797 857.5 1857 Q911 1917 925 2049 L1090 2049 Z " />
<glyph glyph-name="ebreve" unicode="&#x115;" horiz-adv-x="1220" d="M1120 539 L297 539 Q297 436 328 359.5 Q359 283 413 234 Q465 186 536.5 162 Q608 138 694 138 Q808 138 923.5 183.5 Q1039 229 1088 273 L1098 273 L1098 68 Q1003 28 904 1 Q805 -26 696 -26 Q418 -26 262 124.5 Q106 275 106 552 Q106 826 255.5 987 Q405 1148 649 1148 Q875 1148 997.5 1016 Q1120 884 1120 641 L1120 539 Z M937 683 Q936 831 862.5 912 Q789 993 639 993 Q488 993 398.5 904 Q309 815 297 683 L937 683 Z M1024 1676 Q1014 1508 915.5 1401 Q817 1294 648 1294 Q479 1294 380.5 1401 Q282 1508 273 1676 L439 1676 Q451 1544 504.5 1484 Q558 1424 649 1424 Q738 1424 791.5 1484 Q845 1544 859 1676 L1024 1676 Z " />
<glyph glyph-name="Edotaccent" unicode="&#x116;" horiz-adv-x="1295" d="M1181 0 L200 0 L200 1489 L1181 1489 L1181 1313 L398 1313 L398 905 L1181 905 L1181 729 L398 729 L398 176 L1181 176 L1181 0 Z M836 1677 L624 1677 L624 1872 L836 1872 L836 1677 Z " />
<glyph glyph-name="edotaccent" unicode="&#x117;" horiz-adv-x="1220" d="M1120 539 L297 539 Q297 436 328 359.5 Q359 283 413 234 Q465 186 536.5 162 Q608 138 694 138 Q808 138 923.5 183.5 Q1039 229 1088 273 L1098 273 L1098 68 Q1003 28 904 1 Q805 -26 696 -26 Q418 -26 262 124.5 Q106 275 106 552 Q106 826 255.5 987 Q405 1148 649 1148 Q875 1148 997.5 1016 Q1120 884 1120 641 L1120 539 Z M937 683 Q936 831 862.5 912 Q789 993 639 993 Q488 993 398.5 904 Q309 815 297 683 L937 683 Z M757 1304 L545 1304 L545 1499 L757 1499 L757 1304 Z " />
<glyph glyph-name="Gcircumflex" unicode="&#x11c;" horiz-adv-x="1588" d="M1442 110 Q1320 54 1175.5 12.5 Q1031 -29 896 -29 Q722 -29 577 19 Q432 67 330 163 Q227 260 171 405.5 Q115 551 115 746 Q115 1103 323.5 1309.5 Q532 1516 896 1516 Q1023 1516 1155.5 1485.5 Q1288 1455 1441 1382 L1441 1147 L1423 1147 Q1392 1171 1333 1210 Q1274 1249 1217 1275 Q1148 1306 1060.5 1326.5 Q973 1347 862 1347 Q612 1347 466.5 1186.5 Q321 1026 321 752 Q321 463 473 302.5 Q625 142 887 142 Q983 142 1078.5 161 Q1174 180 1246 210 L1246 575 L847 575 L847 749 L1442 749 L1442 110 Z M1201 1670 L1042 1670 L857 1926 L673 1670 L518 1670 L746 2049 L973 2049 L1201 1670 Z " />
<glyph glyph-name="gcircumflex" unicode="&#x11d;" horiz-adv-x="1276" d="M1091 127 Q1091 -157 962 -290 Q833 -423 565 -423 Q476 -423 391.5 -410.5 Q307 -398 225 -375 L225 -183 L235 -183 Q281 -201 381 -227.5 Q481 -254 581 -254 Q677 -254 740 -231 Q803 -208 838 -167 Q873 -128 888 -73 Q903 -18 903 50 L903 152 Q818 84 740.5 50.5 Q663 17 543 17 Q343 17 225.5 161.5 Q108 306 108 569 Q108 713 148.5 817.5 Q189 922 259 998 Q324 1069 417 1108.5 Q510 1148 602 1148 Q699 1148 764.5 1128.5 Q830 1109 903 1069 L915 1117 L1091 1117 L1091 127 Z M903 307 L903 916 Q828 950 763.5 964.5 Q699 979 635 979 Q480 979 391 875 Q302 771 302 573 Q302 385 368 288 Q434 191 587 191 Q669 191 751.5 222.5 Q834 254 903 307 Z M988 1297 L829 1297 L644 1553 L460 1297 L305 1297 L533 1676 L760 1676 L988 1297 Z " />
<glyph glyph-name="Gdotaccent" unicode="&#x120;" horiz-adv-x="1588" d="M1442 110 Q1320 54 1175.5 12.5 Q1031 -29 896 -29 Q722 -29 577 19 Q432 67 330 163 Q227 260 171 405.5 Q115 551 115 746 Q115 1103 323.5 1309.5 Q532 1516 896 1516 Q1023 1516 1155.5 1485.5 Q1288 1455 1441 1382 L1441 1147 L1423 1147 Q1392 1171 1333 1210 Q1274 1249 1217 1275 Q1148 1306 1060.5 1326.5 Q973 1347 862 1347 Q612 1347 466.5 1186.5 Q321 1026 321 752 Q321 463 473 302.5 Q625 142 887 142 Q983 142 1078.5 161 Q1174 180 1246 210 L1246 575 L847 575 L847 749 L1442 749 L1442 110 Z M963 1677 L751 1677 L751 1872 L963 1872 L963 1677 Z " />
<glyph glyph-name="gdotaccent" unicode="&#x121;" horiz-adv-x="1276" d="M1091 127 Q1091 -157 962 -290 Q833 -423 565 -423 Q476 -423 391.5 -410.5 Q307 -398 225 -375 L225 -183 L235 -183 Q281 -201 381 -227.5 Q481 -254 581 -254 Q677 -254 740 -231 Q803 -208 838 -167 Q873 -128 888 -73 Q903 -18 903 50 L903 152 Q818 84 740.5 50.5 Q663 17 543 17 Q343 17 225.5 161.5 Q108 306 108 569 Q108 713 148.5 817.5 Q189 922 259 998 Q324 1069 417 1108.5 Q510 1148 602 1148 Q699 1148 764.5 1128.5 Q830 1109 903 1069 L915 1117 L1091 1117 L1091 127 Z M903 307 L903 916 Q828 950 763.5 964.5 Q699 979 635 979 Q480 979 391 875 Q302 771 302 573 Q302 385 368 288 Q434 191 587 191 Q669 191 751.5 222.5 Q834 254 903 307 Z M746 1304 L534 1304 L534 1499 L746 1499 L746 1304 Z " />
<glyph glyph-name="uni0122" unicode="&#x122;" horiz-adv-x="1588" d="M898 -107 Q898 -86 896.5 -64.5 Q895 -43 893 -28 Q720 -28 576 19.5 Q432 67 330 163 Q227 260 171 405.5 Q115 551 115 746 Q115 1103 323.5 1309.5 Q532 1516 896 1516 Q1023 1516 1155.5 1485.5 Q1288 1455 1441 1382 L1441 1147 L1423 1147 Q1392 1171 1333 1210 Q1274 1249 1217 1275 Q1148 1306 1060.5 1326.5 Q973 1347 862 1347 Q612 1347 466.5 1186.5 Q321 1026 321 752 Q321 463 473 302.5 Q625 142 887 142 Q983 142 1078.5 161 Q1174 180 1246 210 L1246 575 L847 575 L847 749 L1442 749 L1442 110 Q1352 69 1246 34 Q1140 -1 1046 -16 Q1047 -30 1048.5 -48.5 Q1050 -67 1050 -89 Q1050 -251 958.5 -337 Q867 -423 721 -423 Q684 -423 626 -416 Q568 -409 523 -397 L523 -237 L532 -237 Q558 -247 602 -260 Q646 -273 696 -273 Q800 -273 849 -234 Q898 -195 898 -107 Z " />
<glyph glyph-name="uni0123" unicode="&#x123;" horiz-adv-x="1276" d="M1091 127 Q1091 -157 962 -290 Q833 -423 565 -423 Q476 -423 391.5 -410.5 Q307 -398 225 -375 L225 -183 L235 -183 Q281 -201 381 -227.5 Q481 -254 581 -254 Q677 -254 740 -231 Q803 -208 838 -167 Q873 -128 888 -73 Q903 -18 903 50 L903 152 Q818 84 740.5 50.5 Q663 17 543 17 Q343 17 225.5 161.5 Q108 306 108 569 Q108 713 148.5 817.5 Q189 922 259 998 Q324 1069 417 1108.5 Q510 1148 602 1148 Q699 1148 764.5 1128.5 Q830 1109 903 1069 L915 1117 L1091 1117 L1091 127 Z M903 307 L903 916 Q828 950 763.5 964.5 Q699 979 635 979 Q480 979 391 875 Q302 771 302 573 Q302 385 368 288 Q434 191 587 191 Q669 191 751.5 222.5 Q834 254 903 307 Z M886 1676 L707 1302 L464 1302 L737 1676 L886 1676 Z " />
<glyph glyph-name="Hcircumflex" unicode="&#x124;" horiz-adv-x="1539" d="M1339 0 L1141 0 L1141 729 L398 729 L398 0 L200 0 L200 1489 L398 1489 L398 905 L1141 905 L1141 1489 L1339 1489 L1339 0 Z M1111 1670 L952 1670 L767 1926 L583 1670 L428 1670 L656 2049 L883 2049 L1111 1670 Z " />
<glyph glyph-name="hcircumflex" unicode="&#x125;" horiz-adv-x="1296" d="M1119 0 L931 0 L931 636 Q931 713 922 780.5 Q913 848 889 886 Q864 928 817 948.5 Q770 969 695 969 Q618 969 534 931 Q450 893 373 834 L373 0 L185 0 L185 1556 L373 1556 L373 993 Q461 1066 555 1107 Q649 1148 748 1148 Q929 1148 1024 1039 Q1119 930 1119 725 L1119 0 Z M1027 1670 L868 1670 L683 1926 L499 1670 L344 1670 L572 2049 L799 2049 L1027 1670 Z " />
<glyph glyph-name="Hbar" unicode="&#x126;" horiz-adv-x="1539" d="M1507 1109 L1339 1109 L1339 0 L1141 0 L1141 729 L398 729 L398 0 L200 0 L200 1109 L32 1109 L32 1249 L200 1249 L200 1489 L398 1489 L398 1249 L1141 1249 L1141 1489 L1339 1489 L1339 1249 L1507 1249 L1507 1109 Z M1141 905 L1141 1109 L398 1109 L398 905 L1141 905 Z " />
<glyph glyph-name="hbar" unicode="&#x127;" horiz-adv-x="1296" d="M1119 0 L931 0 L931 636 Q931 713 922 780.5 Q913 848 889 886 Q864 928 817 948.5 Q770 969 695 969 Q618 969 534 931 Q450 893 373 834 L373 0 L185 0 L185 1268 L19 1268 L19 1402 L185 1402 L185 1556 L373 1556 L373 1402 L694 1402 L694 1268 L373 1268 L373 993 Q461 1066 555 1107 Q649 1148 748 1148 Q929 1148 1024 1039 Q1119 930 1119 725 L1119 0 Z " />
<glyph glyph-name="Itilde" unicode="&#x128;" horiz-adv-x="862" d="M725 0 L137 0 L137 152 L332 152 L332 1337 L137 1337 L137 1489 L725 1489 L725 1337 L530 1337 L530 152 L725 152 L725 0 Z M819 1992 Q812 1840 749.5 1764.5 Q687 1689 585 1689 Q533 1689 491.5 1707 Q450 1725 412 1763 Q367 1806 337 1827 Q307 1848 275 1848 Q227 1848 204.5 1802.5 Q182 1757 180 1682 L44 1682 Q47 1818 110 1901 Q173 1984 277 1984 Q328 1984 368.5 1966 Q409 1948 449 1911 Q491 1871 524.5 1850.5 Q558 1830 587 1830 Q633 1830 657.5 1875.5 Q682 1921 683 1992 L819 1992 Z " />
<glyph glyph-name="itilde" unicode="&#x129;" horiz-adv-x="562" d="M375 0 L187 0 L187 1117 L375 1117 L375 0 Z M577 1596 Q577 1467 525.5 1402 Q474 1337 394 1337 Q354 1337 325 1350 Q296 1363 266 1395 Q234 1430 211.5 1447 Q189 1464 166 1464 Q131 1464 114.5 1429.5 Q98 1395 98 1330 L-14 1330 Q-14 1459 38 1524 Q90 1589 168 1589 Q215 1589 240 1575.5 Q265 1562 297 1531 Q330 1496 352 1479 Q374 1462 396 1462 Q432 1462 448.5 1498 Q465 1534 465 1596 L577 1596 Z " />
<glyph glyph-name="Imacron" unicode="&#x12a;" horiz-adv-x="862" d="M725 0 L137 0 L137 152 L332 152 L332 1337 L137 1337 L137 1489 L725 1489 L725 1337 L530 1337 L530 152 L725 152 L725 0 Z M767 1698 L95 1698 L95 1852 L767 1852 L767 1698 Z " />
<glyph glyph-name="imacron" unicode="&#x12b;" horiz-adv-x="562" d="M566 1335 L-4 1335 L-4 1489 L566 1489 L566 1335 Z M375 0 L187 0 L187 1117 L375 1117 L375 0 Z " />
<glyph glyph-name="Ibreve" unicode="&#x12c;" horiz-adv-x="862" d="M725 0 L137 0 L137 152 L332 152 L332 1337 L137 1337 L137 1489 L725 1489 L725 1337 L530 1337 L530 152 L725 152 L725 0 Z M735 2003 Q735 1835 661.5 1731.5 Q588 1628 432 1628 Q279 1628 203.5 1731.5 Q128 1835 128 2003 L286 2003 Q286 1869 320.5 1812 Q355 1755 432 1755 Q505 1755 541 1810 Q577 1865 577 2003 L735 2003 Z " />
<glyph glyph-name="ibreve" unicode="&#x12d;" horiz-adv-x="562" d="M560 1640 Q560 1486 490.5 1390 Q421 1294 281 1294 Q143 1294 72 1389 Q1 1484 1 1640 L147 1640 Q147 1518 179.5 1464.5 Q212 1411 281 1411 Q346 1411 380 1460 Q414 1509 414 1640 L560 1640 Z M375 0 L187 0 L187 1117 L375 1117 L375 0 Z " />
<glyph glyph-name="Iogonek" unicode="&#x12e;" horiz-adv-x="862" d="M372 0 L137 0 L137 152 L332 152 L332 1337 L137 1337 L137 1489 L725 1489 L725 1337 L530 1337 L530 152 L725 152 L725 0 L531 0 Q525 -28 520.5 -48.5 Q516 -69 516 -107 Q516 -188 549 -228 Q582 -268 670 -268 Q703 -268 735.5 -258.5 Q768 -249 787 -238 L796 -238 L796 -396 Q760 -406 719.5 -411.5 Q679 -417 645 -417 Q510 -417 433 -337 Q356 -257 356 -117 Q356 -83 360.5 -56.5 Q365 -30 372 0 Z " />
<glyph glyph-name="iogonek" unicode="&#x12f;" horiz-adv-x="562" d="M387 1304 L175 1304 L175 1499 L387 1499 L387 1304 Z M582 -396 Q546 -406 505.5 -411.5 Q465 -417 431 -417 Q298 -417 220 -338 Q142 -259 142 -117 Q142 -54 160.5 1.5 Q179 57 187 82 L187 1117 L375 1117 L375 0 L315 0 Q309 -26 305.5 -53 Q302 -80 302 -107 Q302 -188 335 -228 Q368 -268 456 -268 Q489 -268 521.5 -258.5 Q554 -249 573 -238 L582 -238 L582 -396 Z " />
<glyph glyph-name="Jcircumflex" unicode="&#x134;" horiz-adv-x="931" d="M746 387 Q746 191 626.5 85 Q507 -21 306 -21 Q258 -21 178 -12.5 Q98 -4 44 8 L44 193 L55 193 Q96 179 156 164 Q216 149 279 149 Q371 149 425.5 170 Q480 191 506 230 Q533 270 540.5 328 Q548 386 548 462 L548 1331 L233 1331 L233 1489 L746 1489 L746 387 Z M845 1670 L686 1670 L501 1926 L317 1670 L162 1670 L390 2049 L617 2049 L845 1670 Z " />
<glyph glyph-name="jcircumflex" unicode="&#x135;" horiz-adv-x="705" d="M521 -27 Q521 -223 421 -323 Q321 -423 153 -423 Q113 -423 47.5 -415 Q-18 -407 -62 -395 L-62 -216 L-52 -216 Q-24 -227 23.5 -241 Q71 -255 116 -255 Q188 -255 232 -235 Q276 -215 298 -175 Q320 -135 326.5 -78.5 Q333 -22 333 59 L333 959 L100 959 L100 1117 L521 1117 L521 -27 Z M687 1297 L528 1297 L343 1553 L159 1297 L4 1297 L232 1676 L459 1676 L687 1297 Z " />
<glyph glyph-name="uni0136" unicode="&#x136;" horiz-adv-x="1419" d="M1397 0 L1140 0 L551 663 L403 505 L403 0 L205 0 L205 1489 L403 1489 L403 712 L1126 1489 L1366 1489 L701 789 L1397 0 Z M875 -89 Q875 -251 783.5 -337 Q692 -423 546 -423 Q509 -423 451 -416 Q393 -409 348 -397 L348 -237 L357 -237 Q383 -247 427 -260 Q471 -273 521 -273 Q625 -273 674 -234 Q723 -195 723 -107 Q723 -78 720 -41.5 Q717 -5 714 20 L867 20 Q869 1 872 -25 Q875 -51 875 -89 Z " />
<glyph glyph-name="uni0137" unicode="&#x137;" horiz-adv-x="1212" d="M1199 0 L951 0 L503 489 L381 373 L381 0 L193 0 L193 1556 L381 1556 L381 558 L924 1117 L1161 1117 L642 601 L1199 0 Z M748 -89 Q748 -251 656.5 -337 Q565 -423 419 -423 Q382 -423 324 -416 Q266 -409 221 -397 L221 -237 L230 -237 Q256 -247 300 -260 Q344 -273 394 -273 Q498 -273 547 -234 Q596 -195 596 -107 Q596 -78 593 -41.5 Q590 -5 587 20 L740 20 Q742 1 745 -25 Q748 -51 748 -89 Z " />
<glyph glyph-name="kgreenlandic" unicode="&#x138;" horiz-adv-x="1212" d="M1199 0 L951 0 L503 489 L381 373 L381 0 L193 0 L193 1117 L381 1117 L381 558 L924 1117 L1161 1117 L642 601 L1199 0 Z " />
<glyph glyph-name="uni013B" unicode="&#x13b;" horiz-adv-x="1140" d="M703 0 L200 0 L200 1489 L398 1489 L398 176 L1142 176 L1142 0 L857 0 Q859 -18 861 -41.5 Q863 -65 863 -89 Q863 -251 771.5 -337 Q680 -423 534 -423 Q497 -423 439 -416 Q381 -409 336 -397 L336 -237 L345 -237 Q371 -247 415 -260 Q459 -273 509 -273 Q613 -273 662 -234 Q711 -195 711 -107 Q711 -77 708 -46 Q705 -15 703 0 Z " />
<glyph glyph-name="uni013C" unicode="&#x13c;" horiz-adv-x="562" d="M329 0 L187 0 L187 1556 L375 1556 L375 20 L483 20 Q484 2 486.5 -25.5 Q489 -53 489 -89 Q489 -251 402 -337 Q315 -423 182 -423 Q145 -423 95 -417 Q45 -411 5 -399 L5 -239 L14 -239 Q38 -250 77 -261.5 Q116 -273 156 -273 Q250 -273 291 -233.5 Q332 -194 332 -107 Q332 -86 331.5 -60.5 Q331 -35 329 0 Z " />
<glyph glyph-name="uni0145" unicode="&#x145;" horiz-adv-x="1532" d="M1336 0 L1091 0 L385 1332 L385 0 L200 0 L200 1489 L507 1489 L1151 273 L1151 1489 L1336 1489 L1336 0 Z M878 -89 Q878 -251 786.5 -337 Q695 -423 549 -423 Q512 -423 454 -416 Q396 -409 351 -397 L351 -237 L360 -237 Q386 -247 430 -260 Q474 -273 524 -273 Q628 -273 677 -234 Q726 -195 726 -107 Q726 -78 723 -41.5 Q720 -5 717 20 L870 20 Q872 1 875 -25 Q878 -51 878 -89 Z " />
<glyph glyph-name="uni0146" unicode="&#x146;" horiz-adv-x="1296" d="M1119 0 L931 0 L931 636 Q931 713 922 780.5 Q913 848 889 886 Q864 928 817 948.5 Q770 969 695 969 Q618 969 534 931 Q450 893 373 834 L373 0 L185 0 L185 1117 L373 1117 L373 993 Q461 1066 555 1107 Q649 1148 748 1148 Q929 1148 1024 1039 Q1119 930 1119 725 L1119 0 Z M763 -89 Q763 -251 671.5 -337 Q580 -423 434 -423 Q397 -423 339 -416 Q281 -409 236 -397 L236 -237 L245 -237 Q271 -247 315 -260 Q359 -273 409 -273 Q513 -273 562 -234 Q611 -195 611 -107 Q611 -78 608 -41.5 Q605 -5 602 20 L755 20 Q757 1 760 -25 Q763 -51 763 -89 Z " />
<glyph glyph-name="Eng" unicode="&#x14a;" horiz-adv-x="1532" d="M1096.5 -202 Q1152 -148 1152 -10 L385 1332 L385 0 L200 0 L200 1489 L507 1489 L1151 369 L1151 1489 L1336 1489 L1336 -23 Q1336 -214 1233 -318.5 Q1130 -423 950 -423 Q911 -423 870.5 -419 Q830 -415 793 -409 L793 -241 L804 -241 Q826 -246 855 -251 Q884 -256 914 -256 Q1041 -256 1096.5 -202 Z " />
<glyph glyph-name="eng" unicode="&#x14b;" horiz-adv-x="1296" d="M924 -90 Q931 -37 931 49 L931 636 Q931 713 922 780.5 Q913 848 889 886 Q864 928 817 948.5 Q770 969 695 969 Q618 969 534 931 Q450 893 373 834 L373 0 L185 0 L185 1117 L373 1117 L373 993 Q461 1066 555 1107 Q649 1148 748 1148 Q929 1148 1024 1039 Q1119 930 1119 725 L1119 -28 Q1119 -219 1017 -321 Q915 -423 735 -423 Q696 -423 657 -419.5 Q618 -416 580 -410 L580 -242 L591 -242 Q613 -247 643 -252 Q673 -257 699 -257 Q775 -257 823.5 -238 Q872 -219 895 -181 Q917 -143 924 -90 Z " />
<glyph glyph-name="Omacron" unicode="&#x14c;" horiz-adv-x="1612" d="M1310 1318 Q1401 1218 1449.5 1073 Q1498 928 1498 744 Q1498 560 1448.5 414.5 Q1399 269 1310 172 Q1218 71 1092.5 20 Q967 -31 806 -31 Q649 -31 520.5 21 Q392 73 302 172 Q212 271 163.5 415 Q115 559 115 744 Q115 926 163 1070.5 Q211 1215 303 1318 Q391 1416 521.5 1468 Q652 1520 806 1520 Q966 1520 1093.5 1467.5 Q1221 1415 1310 1318 Z M1292 744 Q1292 1034 1162 1191.5 Q1032 1349 807 1349 Q580 1349 450.5 1191.5 Q321 1034 321 744 Q321 451 453 295.5 Q585 140 807 140 Q1029 140 1160.5 295.5 Q1292 451 1292 744 Z M1177 1708 L435 1708 L435 1862 L1177 1862 L1177 1708 Z " />
<glyph glyph-name="omacron" unicode="&#x14d;" horiz-adv-x="1243" d="M1137 558 Q1137 285 997 127 Q857 -31 622 -31 Q385 -31 245.5 127 Q106 285 106 558 Q106 831 245.5 989.5 Q385 1148 622 1148 Q857 1148 997 989.5 Q1137 831 1137 558 Z M943 558 Q943 775 858 880.5 Q773 986 622 986 Q469 986 384.5 880.5 Q300 775 300 558 Q300 348 385 239.5 Q470 131 622 131 Q772 131 857.5 238.5 Q943 346 943 558 Z M993 1335 L251 1335 L251 1489 L993 1489 L993 1335 Z " />
<glyph glyph-name="Obreve" unicode="&#x14e;" horiz-adv-x="1612" d="M1310 1318 Q1401 1218 1449.5 1073 Q1498 928 1498 744 Q1498 560 1448.5 414.5 Q1399 269 1310 172 Q1218 71 1092.5 20 Q967 -31 806 -31 Q649 -31 520.5 21 Q392 73 302 172 Q212 271 163.5 415 Q115 559 115 744 Q115 926 163 1070.5 Q211 1215 303 1318 Q391 1416 521.5 1468 Q652 1520 806 1520 Q966 1520 1093.5 1467.5 Q1221 1415 1310 1318 Z M1292 744 Q1292 1034 1162 1191.5 Q1032 1349 807 1349 Q580 1349 450.5 1191.5 Q321 1034 321 744 Q321 451 453 295.5 Q585 140 807 140 Q1029 140 1160.5 295.5 Q1292 451 1292 744 Z M1182 2049 Q1172 1881 1073.5 1774 Q975 1667 806 1667 Q637 1667 538.5 1774 Q440 1881 431 2049 L597 2049 Q609 1917 662.5 1857 Q716 1797 807 1797 Q896 1797 949.5 1857 Q1003 1917 1017 2049 L1182 2049 Z " />
<glyph glyph-name="obreve" unicode="&#x14f;" horiz-adv-x="1243" d="M1137 558 Q1137 285 997 127 Q857 -31 622 -31 Q385 -31 245.5 127 Q106 285 106 558 Q106 831 245.5 989.5 Q385 1148 622 1148 Q857 1148 997 989.5 Q1137 831 1137 558 Z M943 558 Q943 775 858 880.5 Q773 986 622 986 Q469 986 384.5 880.5 Q300 775 300 558 Q300 348 385 239.5 Q470 131 622 131 Q772 131 857.5 238.5 Q943 346 943 558 Z M998 1676 Q988 1508 889.5 1401 Q791 1294 622 1294 Q453 1294 354.5 1401 Q256 1508 247 1676 L413 1676 Q425 1544 478.5 1484 Q532 1424 623 1424 Q712 1424 765.5 1484 Q819 1544 833 1676 L998 1676 Z " />
<glyph glyph-name="uni0156" unicode="&#x156;" horiz-adv-x="1424" d="M1432 0 L1175 0 L677 592 L398 592 L398 0 L200 0 L200 1489 L617 1489 Q752 1489 842 1471.5 Q932 1454 1004 1409 Q1085 1358 1130.5 1280.5 Q1176 1203 1176 1084 Q1176 923 1095 814.5 Q1014 706 872 651 L1432 0 Z M969 1070 Q969 1134 946.5 1183.5 Q924 1233 872 1267 Q829 1296 770 1307.5 Q711 1319 631 1319 L398 1319 L398 757 L598 757 Q692 757 762 773.5 Q832 790 881 835 Q926 877 947.5 931.5 Q969 986 969 1070 Z M870 -89 Q870 -251 778.5 -337 Q687 -423 541 -423 Q504 -423 446 -416 Q388 -409 343 -397 L343 -237 L352 -237 Q378 -247 422 -260 Q466 -273 516 -273 Q620 -273 669 -234 Q718 -195 718 -107 Q718 -78 715 -41.5 Q712 -5 709 20 L862 20 Q864 1 867 -25 Q870 -51 870 -89 Z " />
<glyph glyph-name="uni0157" unicode="&#x157;" horiz-adv-x="874" d="M36 -239 Q60 -250 99 -261.5 Q138 -273 178 -273 Q272 -273 313 -233.5 Q354 -194 354 -107 Q354 -86 353.5 -60.5 Q353 -35 351 0 L185 0 L185 1117 L373 1117 L373 952 Q485 1042 570.5 1079.5 Q656 1117 745 1117 Q794 1117 816 1114.5 Q838 1112 882 1105 L882 912 L872 912 Q830 922 790.5 926.5 Q751 931 697 931 Q610 931 529 892.5 Q448 854 373 793 L373 20 L505 20 Q506 2 508.5 -25.5 Q511 -53 511 -89 Q511 -251 424 -337 Q337 -423 204 -423 Q167 -423 117 -417 Q67 -411 27 -399 L27 -239 L36 -239 Z " />
<glyph glyph-name="Scircumflex" unicode="&#x15c;" horiz-adv-x="1400" d="M1282 425 Q1282 338 1241.5 253 Q1201 168 1128 109 Q1048 45 941.5 9 Q835 -27 685 -27 Q524 -27 395.5 3 Q267 33 134 92 L134 340 L148 340 Q261 246 409 195 Q557 144 687 144 Q871 144 973.5 213 Q1076 282 1076 397 Q1076 496 1027.5 543 Q979 590 880 616 Q805 636 717.5 649 Q630 662 532 682 Q334 724 238.5 825.5 Q143 927 143 1090 Q143 1277 301 1396.5 Q459 1516 702 1516 Q859 1516 990 1486 Q1121 1456 1222 1412 L1222 1178 L1208 1178 Q1123 1250 984.5 1297.5 Q846 1345 701 1345 Q542 1345 445.5 1279 Q349 1213 349 1109 Q349 1016 397 963 Q445 910 566 882 Q630 868 748 848 Q866 828 948 807 Q1114 763 1198 674 Q1282 585 1282 425 Z M1067 1670 L908 1670 L723 1926 L539 1670 L384 1670 L612 2049 L839 2049 L1067 1670 Z " />
<glyph glyph-name="scircumflex" unicode="&#x15d;" horiz-adv-x="1067" d="M983 322 Q983 169 856.5 71 Q730 -27 511 -27 Q387 -27 283.5 2.5 Q180 32 110 67 L110 278 L120 278 Q209 211 318 171.5 Q427 132 527 132 Q651 132 721 172 Q791 212 791 298 Q791 364 753 398 Q715 432 607 456 Q567 465 502.5 477 Q438 489 385 503 Q238 542 176.5 617.5 Q115 693 115 803 Q115 872 143.5 933 Q172 994 230 1042 Q286 1089 372.5 1116.5 Q459 1144 566 1144 Q666 1144 768.5 1119.5 Q871 1095 939 1060 L939 859 L929 859 Q857 912 754 948.5 Q651 985 552 985 Q449 985 378 945.5 Q307 906 307 828 Q307 759 350 724 Q392 689 486 667 Q538 655 602.5 643 Q667 631 710 621 Q841 591 912 518 Q983 444 983 322 Z M912 1297 L753 1297 L568 1553 L384 1297 L229 1297 L457 1676 L684 1676 L912 1297 Z " />
<glyph glyph-name="Tbar" unicode="&#x166;" horiz-adv-x="1262" d="M532 740 L200 740 L200 883 L532 883 L532 1313 L0 1313 L0 1489 L1262 1489 L1262 1313 L730 1313 L730 883 L1062 883 L1062 740 L730 740 L730 0 L532 0 L532 740 Z " />
<glyph glyph-name="tbar" unicode="&#x167;" horiz-adv-x="807" d="M765 10 Q712 -4 649.5 -13 Q587 -22 538 -22 Q367 -22 278 70 Q189 162 189 365 L189 533 L62 533 L62 667 L189 667 L189 959 L62 959 L62 1117 L189 1117 L189 1438 L377 1438 L377 1117 L765 1117 L765 959 L377 959 L377 667 L678 667 L678 533 L377 533 L377 450 Q377 362 381 312.5 Q385 263 409 220 Q431 180 469.5 161.5 Q508 143 587 143 Q633 143 683 156.5 Q733 170 755 179 L765 179 L765 10 Z " />
<glyph glyph-name="Utilde" unicode="&#x168;" horiz-adv-x="1499" d="M1321 598 Q1321 436 1285.5 315.5 Q1250 195 1169 115 Q1092 39 989 4 Q886 -31 749 -31 Q609 -31 505 6 Q401 43 330 115 Q249 197 213.5 313 Q178 429 178 598 L178 1489 L376 1489 L376 588 Q376 467 392.5 397 Q409 327 448 270 Q492 205 567.5 172 Q643 139 749 139 Q856 139 931 171.5 Q1006 204 1051 270 Q1090 327 1106.5 400.5 Q1123 474 1123 583 L1123 1489 L1321 1489 L1321 598 Z M1165 1992 Q1154 1840 1088 1763 Q1022 1686 911 1686 Q857 1686 811 1705.5 Q765 1725 724 1762 Q677 1805 644.5 1826.5 Q612 1848 573 1848 Q521 1848 495 1803 Q469 1758 465 1682 L334 1682 Q342 1833 413 1910 Q484 1987 587 1987 Q637 1987 683.5 1967.5 Q730 1948 772 1912 Q819 1871 855.5 1850.5 Q892 1830 925 1830 Q976 1830 1004.5 1876 Q1033 1922 1036 1992 L1165 1992 Z " />
<glyph glyph-name="utilde" unicode="&#x169;" horiz-adv-x="1296" d="M1111 0 L923 0 L923 124 Q828 49 741 9 Q654 -31 549 -31 Q373 -31 275 76.5 Q177 184 177 392 L177 1117 L365 1117 L365 481 Q365 396 373 335.5 Q381 275 407 232 Q434 188 477 168 Q520 148 602 148 Q675 148 761.5 186 Q848 224 923 283 L923 1117 L1111 1117 L1111 0 Z M1074 1619 Q1063 1467 997 1390 Q931 1313 820 1313 Q766 1313 720 1332.5 Q674 1352 633 1389 Q586 1432 553.5 1453.5 Q521 1475 482 1475 Q430 1475 404 1430 Q378 1385 374 1309 L243 1309 Q251 1460 322 1537 Q393 1614 496 1614 Q546 1614 592.5 1594.5 Q639 1575 681 1539 Q728 1498 764.5 1477.5 Q801 1457 834 1457 Q885 1457 913.5 1503 Q942 1549 945 1619 L1074 1619 Z " />
<glyph glyph-name="Umacron" unicode="&#x16a;" horiz-adv-x="1499" d="M1321 598 Q1321 436 1285.5 315.5 Q1250 195 1169 115 Q1092 39 989 4 Q886 -31 749 -31 Q609 -31 505 6 Q401 43 330 115 Q249 197 213.5 313 Q178 429 178 598 L178 1489 L376 1489 L376 588 Q376 467 392.5 397 Q409 327 448 270 Q492 205 567.5 172 Q643 139 749 139 Q856 139 931 171.5 Q1006 204 1051 270 Q1090 327 1106.5 400.5 Q1123 474 1123 583 L1123 1489 L1321 1489 L1321 598 Z M1121 1708 L379 1708 L379 1862 L1121 1862 L1121 1708 Z " />
<glyph glyph-name="umacron" unicode="&#x16b;" horiz-adv-x="1296" d="M1111 0 L923 0 L923 124 Q828 49 741 9 Q654 -31 549 -31 Q373 -31 275 76.5 Q177 184 177 392 L177 1117 L365 1117 L365 481 Q365 396 373 335.5 Q381 275 407 232 Q434 188 477 168 Q520 148 602 148 Q675 148 761.5 186 Q848 224 923 283 L923 1117 L1111 1117 L1111 0 Z M1023 1335 L281 1335 L281 1489 L1023 1489 L1023 1335 Z " />
<glyph glyph-name="Ubreve" unicode="&#x16c;" horiz-adv-x="1499" d="M1321 598 Q1321 436 1285.5 315.5 Q1250 195 1169 115 Q1092 39 989 4 Q886 -31 749 -31 Q609 -31 505 6 Q401 43 330 115 Q249 197 213.5 313 Q178 429 178 598 L178 1489 L376 1489 L376 588 Q376 467 392.5 397 Q409 327 448 270 Q492 205 567.5 172 Q643 139 749 139 Q856 139 931 171.5 Q1006 204 1051 270 Q1090 327 1106.5 400.5 Q1123 474 1123 583 L1123 1489 L1321 1489 L1321 598 Z M1125 2049 Q1115 1881 1016.5 1774 Q918 1667 749 1667 Q580 1667 481.5 1774 Q383 1881 374 2049 L540 2049 Q552 1917 605.5 1857 Q659 1797 750 1797 Q839 1797 892.5 1857 Q946 1917 960 2049 L1125 2049 Z " />
<glyph glyph-name="ubreve" unicode="&#x16d;" horiz-adv-x="1296" d="M1111 0 L923 0 L923 124 Q828 49 741 9 Q654 -31 549 -31 Q373 -31 275 76.5 Q177 184 177 392 L177 1117 L365 1117 L365 481 Q365 396 373 335.5 Q381 275 407 232 Q434 188 477 168 Q520 148 602 148 Q675 148 761.5 186 Q848 224 923 283 L923 1117 L1111 1117 L1111 0 Z M1026 1676 Q1016 1508 917.5 1401 Q819 1294 650 1294 Q481 1294 382.5 1401 Q284 1508 275 1676 L441 1676 Q453 1544 506.5 1484 Q560 1424 651 1424 Q740 1424 793.5 1484 Q847 1544 861 1676 L1026 1676 Z " />
<glyph glyph-name="Uogonek" unicode="&#x172;" horiz-adv-x="1499" d="M788 -116 Q788 -90 790.5 -70.5 Q793 -51 798 -29 Q789 -29 776.5 -29.5 Q764 -30 749 -30 Q609 -30 505 6.5 Q401 43 330 115 Q249 197 213.5 313 Q178 429 178 598 L178 1489 L376 1489 L376 588 Q376 467 392.5 397 Q409 327 448 270 Q492 205 567.5 172 Q643 139 749 139 Q856 139 931 171.5 Q1006 204 1051 270 Q1090 327 1106.5 400.5 Q1123 474 1123 583 L1123 1489 L1321 1489 L1321 598 Q1321 436 1285.5 315.5 Q1250 195 1169 115 Q1124 71 1072 41.5 Q1020 12 959 -4 Q955 -24 952.5 -54 Q950 -84 950 -107 Q950 -189 991.5 -228 Q1033 -267 1123 -267 Q1159 -267 1199.5 -253.5 Q1240 -240 1257 -232 L1265 -232 L1265 -391 Q1213 -405 1175.5 -411 Q1138 -417 1096 -417 Q956 -417 872 -337.5 Q788 -258 788 -116 Z " />
<glyph glyph-name="uogonek" unicode="&#x173;" horiz-adv-x="1291" d="M911.5 -54.5 Q917 -29 923 0 L923 124 Q828 49 741 9 Q654 -31 549 -31 Q373 -31 275 76.5 Q177 184 177 392 L177 1117 L365 1117 L365 481 Q365 396 373 335.5 Q381 275 407 232 Q434 188 477 168 Q520 148 602 148 Q675 148 761.5 186 Q848 224 923 283 L923 1117 L1111 1117 L1111 0 L1081 0 Q1075 -27 1071.5 -53.5 Q1068 -80 1068 -107 Q1068 -189 1109.5 -228 Q1151 -267 1241 -267 Q1277 -267 1317.5 -253.5 Q1358 -240 1375 -232 L1383 -232 L1383 -391 Q1331 -405 1293.5 -411 Q1256 -417 1214 -417 Q1074 -417 990 -337 Q906 -257 906 -116 Q906 -80 911.5 -54.5 Z " />
<glyph glyph-name="Wcircumflex" unicode="&#x174;" horiz-adv-x="2025" d="M1933 1489 L1546 0 L1323 0 L1010 1236 L704 0 L486 0 L92 1489 L295 1489 L608 251 L916 1489 L1117 1489 L1428 239 L1739 1489 L1933 1489 Z M1354 1670 L1195 1670 L1010 1926 L826 1670 L671 1670 L899 2049 L1126 2049 L1354 1670 Z " />
<glyph glyph-name="wcircumflex" unicode="&#x175;" horiz-adv-x="1676" d="M1590 1117 L1299 0 L1125 0 L838 861 L553 0 L380 0 L86 1117 L282 1117 L487 252 L766 1117 L921 1117 L1207 252 L1401 1117 L1590 1117 Z M1180 1297 L1021 1297 L836 1553 L652 1297 L497 1297 L725 1676 L952 1676 L1180 1297 Z " />
<glyph glyph-name="Ycircumflex" unicode="&#x176;" horiz-adv-x="1260" d="M1254 1489 L730 653 L730 0 L532 0 L532 632 L6 1489 L225 1489 L632 823 L1043 1489 L1254 1489 Z M975 1670 L816 1670 L631 1926 L447 1670 L292 1670 L520 2049 L747 2049 L975 1670 Z " />
<glyph glyph-name="ycircumflex" unicode="&#x177;" horiz-adv-x="1212" d="M1151 1117 L499 -412 L298 -412 L506 54 L61 1117 L265 1117 L608 289 L954 1117 L1151 1117 Z M958 1297 L799 1297 L614 1553 L430 1297 L275 1297 L503 1676 L730 1676 L958 1297 Z " />
<glyph glyph-name="longs" unicode="&#x17f;" horiz-adv-x="615" d="M776 1374 L766 1374 Q735 1383 685 1392.5 Q635 1402 597 1402 Q476 1402 424.5 1348.5 Q373 1295 373 1155 L373 0 L185 0 L185 1154 Q185 1348 282 1457 Q379 1566 570 1566 Q633 1566 683.5 1560 Q734 1554 776 1546 L776 1374 Z " />
<glyph glyph-name="Aringacute" unicode="&#x1fa;" horiz-adv-x="1400" d="M1374 0 L1163 0 L1015 415 L375 415 L227 0 L26 0 L530 1367 Q481 1398 452.5 1448.5 Q424 1499 424 1563 Q424 1672 504.5 1744 Q585 1816 700 1816 Q815 1816 895 1744 Q975 1672 975 1563 Q975 1499 946.5 1448.5 Q918 1398 870 1367 L1374 0 Z M828 1563 Q828 1617 792.5 1654.5 Q757 1692 700 1692 Q643 1692 607 1655 Q571 1618 571 1563 Q571 1506 607.5 1468.5 Q644 1431 700 1431 Q756 1431 792 1469 Q828 1507 828 1563 Z M953 585 L695 1300 L436 585 L953 585 Z M977 2048 L734 1843 L585 1843 L734 2048 L977 2048 Z " />
<glyph glyph-name="aringacute" unicode="&#x1fb;" horiz-adv-x="1230" d="M1053 0 L866 0 L866 119 Q841 102 798.5 71.5 Q756 41 716 23 Q669 0 608 -15.5 Q547 -31 465 -31 Q314 -31 209 69 Q104 169 104 324 Q104 451 158.5 529.5 Q213 608 314 653 Q416 698 559 714 Q702 730 866 738 L866 767 Q866 832 843 875 Q820 918 779 941 Q738 965 683.5 973.5 Q629 982 566 982 Q508 982 455.5 972 Q403 962 361 951 Q312 938 272 923.5 Q232 909 213 902 L203 902 L203 1093 Q238 1102 290.5 1112 Q343 1122 392 1130 Q364 1160 345.5 1201.5 Q327 1243 327 1289 Q327 1398 406.5 1470 Q486 1542 601 1542 Q716 1542 795 1470 Q874 1398 874 1289 Q874 1238 851 1192.5 Q828 1147 793 1116 Q918 1082 985.5 997 Q1053 912 1053 758 L1053 0 Z M866 275 L866 586 Q780 581 663.5 571 Q547 561 479 542 Q398 519 348 470.5 Q298 422 298 337 Q298 241 356 192.5 Q414 144 533 144 Q632 144 714 182.5 Q796 221 866 275 Z M729 1289 Q729 1343 693.5 1380.5 Q658 1418 601 1418 Q544 1418 508 1381 Q472 1344 472 1289 Q472 1232 508.5 1194 Q545 1156 601 1156 Q657 1156 693 1194.5 Q729 1233 729 1289 Z M878 1843 L635 1569 L486 1569 L635 1843 L878 1843 Z " />
<glyph glyph-name="AEacute" unicode="&#x1fc;" horiz-adv-x="2016" d="M1901 0 L957 0 L957 556 L433 556 L221 0 L14 0 L608 1489 L1901 1489 L1901 1313 L1152 1313 L1152 905 L1901 905 L1901 729 L1152 729 L1152 176 L1901 176 L1901 0 Z M957 723 L957 1324 L738 1324 L499 723 L957 723 Z M1441 2049 L1168 1675 L1019 1675 L1198 2049 L1441 2049 Z " />
<glyph glyph-name="aeacute" unicode="&#x1fd;" horiz-adv-x="1956" d="M1855 559 L1036 559 Q1036 445 1066 364 Q1096 283 1151 231 Q1203 183 1274 160.5 Q1345 138 1431 138 Q1542 138 1648.5 179.5 Q1755 221 1821 273 L1833 273 L1833 68 Q1755 33 1648.5 3.5 Q1542 -26 1433 -26 Q1267 -26 1148.5 26 Q1030 78 954 181 Q933 162 887 122 Q841 82 791 54 Q728 18 654 -5.5 Q580 -29 465 -29 Q315 -29 209.5 68 Q104 165 104 317 Q104 441 158 517.5 Q212 594 313 636 Q408 675 554 689 Q700 703 862 706 L862 767 Q862 832 839 874.5 Q816 917 775 940 Q735 963 679 971.5 Q623 980 563 980 Q484 980 394.5 959 Q305 938 215 902 L202 902 L202 1093 Q257 1108 360 1127 Q463 1146 564 1146 Q723 1146 828.5 1099.5 Q934 1053 991 962 Q1060 1044 1161 1096 Q1262 1148 1387 1148 Q1604 1148 1729.5 1020 Q1855 892 1855 641 L1855 559 Z M1673 703 Q1668 771 1649.5 822 Q1631 873 1599 910 Q1565 949 1510.5 971 Q1456 993 1377 993 Q1244 993 1154 918 Q1064 843 1039 703 L1673 703 Z M894 298 Q874 351 863.5 417 Q853 483 853 558 Q748 555 652 550.5 Q556 546 474 525 Q395 505 346.5 459.5 Q298 414 298 331 Q298 236 356 190 Q414 144 532 144 Q631 144 727.5 187 Q824 230 894 298 Z M1324 1676 L1051 1302 L902 1302 L1081 1676 L1324 1676 Z " />
<glyph glyph-name="Oslashacute" unicode="&#x1fe;" horiz-adv-x="1612" d="M1498 744 Q1498 560 1448.5 414.5 Q1399 269 1310 172 Q1218 71 1092.5 20 Q967 -31 806 -31 Q691 -31 590.5 -2 Q490 27 411 82 L252 -146 L120 -146 L325 148 Q224 248 169.5 398 Q115 548 115 744 Q115 926 163 1070.5 Q211 1215 303 1318 Q391 1416 521.5 1468 Q652 1520 806 1520 Q924 1520 1021 1492.5 Q1118 1465 1200 1410 L1342 1611 L1474 1611 L1286 1343 Q1387 1243 1442.5 1094.5 Q1498 946 1498 744 Z M1097 1260 Q1040 1306 968 1328.5 Q896 1351 807 1351 Q697 1351 607 1312.5 Q517 1274 451 1196 Q387 1120 352.5 1005.5 Q318 891 318 744 Q318 604 347.5 492 Q377 380 435 304 L1097 1260 Z M1295 744 Q1295 883 1265 997 Q1235 1111 1177 1186 L513 229 Q573 184 645.5 161 Q718 138 807 138 Q917 138 1008.5 178 Q1100 218 1162 294 Q1229 376 1262 488.5 Q1295 601 1295 744 Z M1083 2049 L810 1675 L661 1675 L840 2049 L1083 2049 Z " />
<glyph glyph-name="oslashacute" unicode="&#x1ff;" horiz-adv-x="1243" d="M1137 558 Q1137 285 997 127 Q857 -31 622 -31 Q538 -31 466.5 -10 Q395 11 336 50 L203 -148 L93 -148 L264 108 Q189 185 147.5 298 Q106 411 106 558 Q106 831 245.5 989.5 Q385 1148 622 1148 Q709 1148 780 1126 Q851 1104 905 1069 L1021 1241 L1132 1241 L977 1010 Q1053 934 1095 822 Q1137 710 1137 558 Z M813 930 Q776 959 726.5 973.5 Q677 988 622 988 Q467 988 382 878 Q297 768 297 558 Q297 461 314 387 Q331 313 366 259 L813 930 Z M946 558 Q946 655 928.5 731 Q911 807 877 861 L429 190 Q468 159 515.5 144 Q563 129 622 129 Q772 129 859 237.5 Q946 346 946 558 Z M933 1676 L660 1302 L511 1302 L690 1676 L933 1676 Z " />
<glyph glyph-name="anoteleia" unicode="&#x387;" horiz-adv-x="930" d="M585 832 L346 832 L346 1117 L585 1117 L585 832 Z " />
<glyph glyph-name="Wgrave" unicode="&#x1e80;" horiz-adv-x="2025" d="M1933 1489 L1546 0 L1323 0 L1010 1236 L704 0 L486 0 L92 1489 L295 1489 L608 251 L916 1489 L1117 1489 L1428 239 L1739 1489 L1933 1489 Z M1133 1675 L984 1675 L711 2049 L954 2049 L1133 1675 Z " />
<glyph glyph-name="wgrave" unicode="&#x1e81;" horiz-adv-x="1676" d="M1590 1117 L1299 0 L1125 0 L838 861 L553 0 L380 0 L86 1117 L282 1117 L487 252 L766 1117 L921 1117 L1207 252 L1401 1117 L1590 1117 Z M957 1302 L808 1302 L535 1676 L778 1676 L957 1302 Z " />
<glyph glyph-name="Wacute" unicode="&#x1e82;" horiz-adv-x="2025" d="M1933 1489 L1546 0 L1323 0 L1010 1236 L704 0 L486 0 L92 1489 L295 1489 L608 251 L916 1489 L1117 1489 L1428 239 L1739 1489 L1933 1489 Z M1324 2049 L1051 1675 L902 1675 L1081 2049 L1324 2049 Z " />
<glyph glyph-name="wacute" unicode="&#x1e83;" horiz-adv-x="1676" d="M1590 1117 L1299 0 L1125 0 L838 861 L553 0 L380 0 L86 1117 L282 1117 L487 252 L766 1117 L921 1117 L1207 252 L1401 1117 L1590 1117 Z M1154 1676 L881 1302 L732 1302 L911 1676 L1154 1676 Z " />
<glyph glyph-name="Wdieresis" unicode="&#x1e84;" horiz-adv-x="2025" d="M1933 1489 L1546 0 L1323 0 L1010 1236 L704 0 L486 0 L92 1489 L295 1489 L608 251 L916 1489 L1117 1489 L1428 239 L1739 1489 L1933 1489 Z M1322 1677 L1123 1677 L1123 1872 L1322 1872 L1322 1677 Z M909 1677 L710 1677 L710 1872 L909 1872 L909 1677 Z " />
<glyph glyph-name="wdieresis" unicode="&#x1e85;" horiz-adv-x="1676" d="M1590 1117 L1299 0 L1125 0 L838 861 L553 0 L380 0 L86 1117 L282 1117 L487 252 L766 1117 L921 1117 L1207 252 L1401 1117 L1590 1117 Z M1149 1304 L950 1304 L950 1499 L1149 1499 L1149 1304 Z M736 1304 L537 1304 L537 1499 L736 1499 L736 1304 Z " />
<glyph glyph-name="Ygrave" unicode="&#x1ef2;" horiz-adv-x="1260" d="M1254 1489 L730 653 L730 0 L532 0 L532 632 L6 1489 L225 1489 L632 823 L1043 1489 L1254 1489 Z M772 1675 L623 1675 L350 2049 L593 2049 L772 1675 Z " />
<glyph glyph-name="ygrave" unicode="&#x1ef3;" horiz-adv-x="1212" d="M1151 1117 L499 -412 L298 -412 L506 54 L61 1117 L265 1117 L608 289 L954 1117 L1151 1117 Z M761 1302 L612 1302 L339 1676 L582 1676 L761 1302 Z " />
<glyph glyph-name="quotereversed" unicode="&#x201b;" horiz-adv-x="550" d="M390 1555 L225 996 L-19 996 L252 1555 L390 1555 Z " />
<glyph glyph-name="uni203E" unicode="&#x203e;" horiz-adv-x="1302" d="M1302 1669 L-48 1669 L-48 1789 L1302 1789 L1302 1669 Z " />
<glyph glyph-name="lira" unicode="&#x20a4;" horiz-adv-x="1302" d="M1163 0 L137 0 L137 207 Q240 234 289 298.5 Q338 363 352 486 L195 486 L195 620 L359 620 L359 760 L195 760 L195 894 L358 894 L358 1061 Q358 1261 484.5 1389.5 Q611 1518 816 1518 Q921 1518 997 1501 Q1073 1484 1137 1467 L1137 1261 L1127 1261 Q1065 1303 989 1327 Q913 1351 827 1351 Q687 1351 617.5 1268.5 Q548 1186 548 1042 L548 894 L912 894 L912 760 L547 760 L547 620 L912 620 L912 486 L543 486 Q528 385 472 305.5 Q416 226 326 182 L326 171 L1163 171 L1163 0 Z " />
<glyph glyph-name="estimated" unicode="&#x212e;" horiz-adv-x="1470" d="M1297 632 L375 632 Q375 500 408 409.5 Q441 319 501 257 Q559 197 640.5 167.5 Q722 138 818 138 Q940 138 1057 181 Q1174 224 1263 296 L1276 296 L1276 83 Q1146 29 1050 1.5 Q954 -26 827 -26 Q516 -26 346.5 147.5 Q177 321 177 642 Q177 956 338 1143 Q499 1330 774 1330 Q1029 1330 1163 1176.5 Q1297 1023 1297 744 L1297 632 Z M1107 786 Q1105 870 1086 942.5 Q1067 1015 1026 1066 Q986 1117 918.5 1146 Q851 1175 761 1175 Q602 1175 495.5 1069 Q389 963 376 786 L1107 786 Z " />
<glyph glyph-name="oneeighth" unicode="&#x215b;" horiz-adv-x="2048" d="M545 565 L380 565 L380 1246 L171 1246 L171 1363 Q273 1363 336 1385 Q399 1407 408 1493 L545 1493 L545 565 Z M1410 1489 L630 0 L465 0 L1245 1489 L1410 1489 Z M1923 251 Q1923 130 1821.5 49.5 Q1720 -31 1565 -31 Q1398 -31 1302.5 48.5 Q1207 128 1207 248 Q1207 327 1254 387 Q1301 447 1390 485 L1390 489 Q1308 530 1273 580 Q1238 630 1238 701 Q1238 807 1330.5 877.5 Q1423 948 1567 948 Q1716 948 1806.5 880.5 Q1897 813 1897 709 Q1897 646 1857 583.5 Q1817 521 1735 486 L1735 482 Q1832 443 1877.5 389.5 Q1923 336 1923 251 Z M1733 692 Q1733 743 1689.5 779 Q1646 815 1567 815 Q1497 815 1450.5 783.5 Q1404 752 1404 698 Q1404 660 1428 629.5 Q1452 599 1497 579 Q1520 569 1556 553.5 Q1592 538 1638 527 Q1695 564 1714 603.5 Q1733 643 1733 692 Z M1757 252 Q1757 302 1729.5 331.5 Q1702 361 1636 391 Q1613 401 1569 415 Q1525 429 1483 444 Q1425 412 1397 365.5 Q1369 319 1369 271 Q1369 197 1428 149.5 Q1487 102 1567 102 Q1648 102 1702.5 141 Q1757 180 1757 252 Z " />
<glyph glyph-name="threeeighths" unicode="&#x215c;" horiz-adv-x="2048" d="M793 826 Q793 755 763 699 Q733 643 685 609 Q632 572 570.5 556 Q509 540 430 540 Q348 540 276.5 555 Q205 570 140 598 L140 773 L157 773 Q194 738 271 708.5 Q348 679 427 679 Q511 679 566 715.5 Q621 752 621 824 Q621 907 571 936.5 Q521 966 430 966 L290 966 L290 1105 L415 1105 Q502 1105 549.5 1143 Q597 1181 597 1247 Q597 1307 556 1342.5 Q515 1378 428 1378 Q362 1378 285.5 1347 Q209 1316 172 1281 L155 1281 L155 1456 Q219 1483 294 1500 Q369 1517 448 1517 Q600 1517 685 1447 Q770 1377 770 1279 Q770 1192 721.5 1135.5 Q673 1079 596 1053 L596 1045 Q676 1029 734.5 974.5 Q793 920 793 826 Z M1500 1489 L720 0 L555 0 L1335 1489 L1500 1489 Z M1956 251 Q1956 130 1854.5 49.5 Q1753 -31 1598 -31 Q1431 -31 1335.5 48.5 Q1240 128 1240 248 Q1240 327 1287 387 Q1334 447 1423 485 L1423 489 Q1341 530 1306 580 Q1271 630 1271 701 Q1271 807 1363.5 877.5 Q1456 948 1600 948 Q1749 948 1839.5 880.5 Q1930 813 1930 709 Q1930 646 1890 583.5 Q1850 521 1768 486 L1768 482 Q1865 443 1910.5 389.5 Q1956 336 1956 251 Z M1766 692 Q1766 743 1722.5 779 Q1679 815 1600 815 Q1530 815 1483.5 783.5 Q1437 752 1437 698 Q1437 660 1461 629.5 Q1485 599 1530 579 Q1553 569 1589 553.5 Q1625 538 1671 527 Q1728 564 1747 603.5 Q1766 643 1766 692 Z M1790 252 Q1790 302 1762.5 331.5 Q1735 361 1669 391 Q1646 401 1602 415 Q1558 429 1516 444 Q1458 412 1430 365.5 Q1402 319 1402 271 Q1402 197 1461 149.5 Q1520 102 1600 102 Q1681 102 1735.5 141 Q1790 180 1790 252 Z " />
<glyph glyph-name="fiveeighths" unicode="&#x215d;" horiz-adv-x="2048" d="M793 867 Q793 798 768 737 Q743 676 696 634 Q648 591 580 565.5 Q512 540 425 540 Q347 540 272.5 554 Q198 568 138 594 L138 753 L154 753 Q191 733 264 706 Q337 679 415 679 Q459 679 500 690.5 Q541 702 569 730 Q598 759 609.5 792.5 Q621 826 621 865 Q621 907 605.5 935.5 Q590 964 561 984 Q531 1005 486.5 1013.5 Q442 1022 389 1022 Q330 1022 276 1015 Q222 1008 184 1002 L184 1498 L781 1498 L781 1359 L341 1359 L341 1152 Q361 1154 385.5 1155 Q410 1156 424 1156 Q508 1156 567 1144.5 Q626 1133 678 1099 Q733 1063 763 1007.5 Q793 952 793 867 Z M1500 1489 L720 0 L555 0 L1335 1489 L1500 1489 Z M1956 251 Q1956 130 1854.5 49.5 Q1753 -31 1598 -31 Q1431 -31 1335.5 48.5 Q1240 128 1240 248 Q1240 327 1287 387 Q1334 447 1423 485 L1423 489 Q1341 530 1306 580 Q1271 630 1271 701 Q1271 807 1363.5 877.5 Q1456 948 1600 948 Q1749 948 1839.5 880.5 Q1930 813 1930 709 Q1930 646 1890 583.5 Q1850 521 1768 486 L1768 482 Q1865 443 1910.5 389.5 Q1956 336 1956 251 Z M1766 692 Q1766 743 1722.5 779 Q1679 815 1600 815 Q1530 815 1483.5 783.5 Q1437 752 1437 698 Q1437 660 1461 629.5 Q1485 599 1530 579 Q1553 569 1589 553.5 Q1625 538 1671 527 Q1728 564 1747 603.5 Q1766 643 1766 692 Z M1790 252 Q1790 302 1762.5 331.5 Q1735 361 1669 391 Q1646 401 1602 415 Q1558 429 1516 444 Q1458 412 1430 365.5 Q1402 319 1402 271 Q1402 197 1461 149.5 Q1520 102 1600 102 Q1681 102 1735.5 141 Q1790 180 1790 252 Z " />
<glyph glyph-name="seveneighths" unicode="&#x215e;" horiz-adv-x="2048" d="M843 1358 L373 565 L188 565 L684 1359 L153 1359 L153 1498 L843 1498 L843 1358 Z M1404 1489 L624 0 L459 0 L1239 1489 L1404 1489 Z M1903 251 Q1903 130 1801.5 49.5 Q1700 -31 1545 -31 Q1378 -31 1282.5 48.5 Q1187 128 1187 248 Q1187 327 1234 387 Q1281 447 1370 485 L1370 489 Q1288 530 1253 580 Q1218 630 1218 701 Q1218 807 1310.5 877.5 Q1403 948 1547 948 Q1696 948 1786.5 880.5 Q1877 813 1877 709 Q1877 646 1837 583.5 Q1797 521 1715 486 L1715 482 Q1812 443 1857.5 389.5 Q1903 336 1903 251 Z M1713 692 Q1713 743 1669.5 779 Q1626 815 1547 815 Q1477 815 1430.5 783.5 Q1384 752 1384 698 Q1384 660 1408 629.5 Q1432 599 1477 579 Q1500 569 1536 553.5 Q1572 538 1618 527 Q1675 564 1694 603.5 Q1713 643 1713 692 Z M1737 252 Q1737 302 1709.5 331.5 Q1682 361 1616 391 Q1593 401 1549 415 Q1505 429 1463 444 Q1405 412 1377 365.5 Q1349 319 1349 271 Q1349 197 1408 149.5 Q1467 102 1547 102 Q1628 102 1682.5 141 Q1737 180 1737 252 Z " />
<glyph glyph-name="tonos" unicode="&#x384;" horiz-adv-x="1302" d="M773 1676 L724 1292 L579 1292 L530 1676 L773 1676 Z " />
<glyph glyph-name="dieresistonos" unicode="&#x385;" horiz-adv-x="1302" d="M765 1676 L716 1292 L588 1292 L539 1676 L765 1676 Z M1048 1304 L857 1304 L857 1499 L1048 1499 L1048 1304 Z M447 1304 L256 1304 L256 1499 L447 1499 L447 1304 Z " />
<glyph glyph-name="Alphatonos" unicode="&#x386;" horiz-adv-x="1400" d="M1374 0 L1163 0 L1017 415 L373 415 L227 0 L26 0 L568 1489 L832 1489 L1374 0 Z M956 585 L695 1316 L433 585 L956 585 Z M250 1489 L201 1105 L56 1105 L7 1489 L250 1489 Z " />
<glyph glyph-name="Epsilontonos" unicode="&#x388;" horiz-adv-x="1538" d="M1424 0 L443 0 L443 1489 L1424 1489 L1424 1313 L641 1313 L641 905 L1424 905 L1424 729 L641 729 L641 176 L1424 176 L1424 0 Z M243 1489 L194 1105 L49 1105 L0 1489 L243 1489 Z " />
<glyph glyph-name="Etatonos" unicode="&#x389;" horiz-adv-x="1782" d="M1582 0 L1384 0 L1384 729 L641 729 L641 0 L443 0 L443 1489 L641 1489 L641 905 L1384 905 L1384 1489 L1582 1489 L1582 0 Z M243 1489 L194 1105 L49 1105 L0 1489 L243 1489 Z " />
<glyph glyph-name="Iotatonos" unicode="&#x38a;" horiz-adv-x="1105" d="M968 0 L380 0 L380 152 L575 152 L575 1337 L380 1337 L380 1489 L968 1489 L968 1337 L773 1337 L773 152 L968 152 L968 0 Z M243 1489 L194 1105 L49 1105 L0 1489 L243 1489 Z " />
<glyph glyph-name="Omicrontonos" unicode="&#x38c;" horiz-adv-x="1804" d="M1501 1318 Q1592 1218 1640.5 1073 Q1689 928 1689 744 Q1689 560 1639.5 414.5 Q1590 269 1501 172 Q1409 71 1283.5 20 Q1158 -31 997 -31 Q840 -31 711.5 21 Q583 73 493 172 Q403 271 354.5 415 Q306 559 306 744 Q306 926 354 1070.5 Q402 1215 494 1318 Q582 1416 712.5 1468 Q843 1520 997 1520 Q1157 1520 1284.5 1467.5 Q1412 1415 1501 1318 Z M1483 744 Q1483 1034 1353 1191.5 Q1223 1349 998 1349 Q771 1349 641.5 1191.5 Q512 1034 512 744 Q512 451 644 295.5 Q776 140 998 140 Q1220 140 1351.5 295.5 Q1483 451 1483 744 Z M243 1489 L194 1105 L49 1105 L0 1489 L243 1489 Z " />
<glyph glyph-name="Upsilontonos" unicode="&#x38e;" horiz-adv-x="1543" d="M1537 1489 L1013 653 L1013 0 L815 0 L815 632 L289 1489 L508 1489 L915 823 L1326 1489 L1537 1489 Z M243 1489 L194 1105 L49 1105 L0 1489 L243 1489 Z " />
<glyph glyph-name="Omegatonos" unicode="&#x38f;" horiz-adv-x="1859" d="M1751 0 L1175 0 L1175 387 Q1235 425 1294.5 469 Q1354 513 1398 570 Q1443 629 1469 708.5 Q1495 788 1495 894 Q1495 1100 1368 1224.5 Q1241 1349 1021 1349 Q801 1349 674 1224.5 Q547 1100 547 894 Q547 788 573 708.5 Q599 629 644 570 Q689 513 748 469 Q807 425 867 387 L867 0 L291 0 L291 174 L701 174 L701 298 Q544 388 442.5 544 Q341 700 341 894 Q341 1170 528.5 1345 Q716 1520 1021 1520 Q1326 1520 1513.5 1345 Q1701 1170 1701 894 Q1701 700 1599.5 544 Q1498 388 1341 298 L1341 174 L1751 174 L1751 0 Z M243 1489 L194 1105 L49 1105 L0 1489 L243 1489 Z " />
<glyph glyph-name="iotadieresistonos" unicode="&#x390;" horiz-adv-x="562" d="M375 0 L187 0 L187 1117 L375 1117 L375 0 Z M379 1676 L323 1292 L239 1292 L183 1676 L379 1676 Z M615 1304 L444 1304 L444 1499 L615 1499 L615 1304 Z M118 1304 L-53 1304 L-53 1499 L118 1499 L118 1304 Z " />
<glyph glyph-name="Alpha" unicode="&#x391;" horiz-adv-x="1400" d="M1374 0 L1163 0 L1017 415 L373 415 L227 0 L26 0 L568 1489 L832 1489 L1374 0 Z M956 585 L695 1316 L433 585 L956 585 Z " />
<glyph glyph-name="Beta" unicode="&#x392;" horiz-adv-x="1404" d="M1323 458 Q1323 347 1281 262 Q1239 177 1168 122 Q1084 56 983.5 28 Q883 0 728 0 L200 0 L200 1489 L641 1489 Q804 1489 885 1477 Q966 1465 1040 1427 Q1122 1384 1159 1316.5 Q1196 1249 1196 1155 Q1196 1049 1142 974.5 Q1088 900 998 855 L998 847 Q1149 816 1236 714.5 Q1323 613 1323 458 Z M990 1129 Q990 1183 972 1220 Q954 1257 914 1280 Q867 1307 800 1313.5 Q733 1320 634 1320 L398 1320 L398 890 L654 890 Q747 890 802 899.5 Q857 909 904 939 Q951 969 970.5 1016.5 Q990 1064 990 1129 Z M1117 450 Q1117 540 1090 593 Q1063 646 992 683 Q944 708 875.5 715.5 Q807 723 709 723 L398 723 L398 169 L660 169 Q790 169 873 182.5 Q956 196 1009 232 Q1065 271 1091 321 Q1117 371 1117 450 Z " />
<glyph glyph-name="uni0394" unicode="&#x394;" horiz-adv-x="1440" d="M1414 0 L26 0 L588 1489 L852 1489 L1414 0 Z M1147 168 L715 1315 L284 168 L1147 168 Z " />
<glyph glyph-name="Epsilon" unicode="&#x395;" horiz-adv-x="1295" d="M1181 0 L200 0 L200 1489 L1181 1489 L1181 1313 L398 1313 L398 905 L1181 905 L1181 729 L398 729 L398 176 L1181 176 L1181 0 Z " />
<glyph glyph-name="Zeta" unicode="&#x396;" horiz-adv-x="1403" d="M1288 0 L126 0 L126 184 L1039 1313 L160 1313 L160 1489 L1266 1489 L1266 1310 L344 176 L1288 176 L1288 0 Z " />
<glyph glyph-name="Eta" unicode="&#x397;" horiz-adv-x="1539" d="M1339 0 L1141 0 L1141 729 L398 729 L398 0 L200 0 L200 1489 L398 1489 L398 905 L1141 905 L1141 1489 L1339 1489 L1339 0 Z " />
<glyph glyph-name="Iota" unicode="&#x399;" horiz-adv-x="862" d="M725 0 L137 0 L137 152 L332 152 L332 1337 L137 1337 L137 1489 L725 1489 L725 1337 L530 1337 L530 152 L725 152 L725 0 Z " />
<glyph glyph-name="Kappa" unicode="&#x39a;" horiz-adv-x="1419" d="M1397 0 L1140 0 L551 663 L403 505 L403 0 L205 0 L205 1489 L403 1489 L403 712 L1126 1489 L1366 1489 L701 789 L1397 0 Z " />
<glyph glyph-name="Lambda" unicode="&#x39b;" horiz-adv-x="1404" d="M1378 0 L1165 0 L697 1285 L229 0 L26 0 L582 1489 L822 1489 L1378 0 Z " />
<glyph glyph-name="Mu" unicode="&#x39c;" horiz-adv-x="1726" d="M1526 0 L1328 0 L1328 1283 L914 410 L796 410 L385 1283 L385 0 L200 0 L200 1489 L470 1489 L867 660 L1251 1489 L1526 1489 L1526 0 Z " />
<glyph glyph-name="Nu" unicode="&#x39d;" horiz-adv-x="1532" d="M1336 0 L1091 0 L385 1332 L385 0 L200 0 L200 1489 L507 1489 L1151 273 L1151 1489 L1336 1489 L1336 0 Z " />
<glyph glyph-name="Xi" unicode="&#x39e;" horiz-adv-x="1329" d="M1215 1313 L114 1313 L114 1489 L1215 1489 L1215 1313 Z M1163 729 L166 729 L166 905 L1163 905 L1163 729 Z M1215 0 L114 0 L114 176 L1215 176 L1215 0 Z " />
<glyph glyph-name="Omicron" unicode="&#x39f;" horiz-adv-x="1612" d="M1310 1318 Q1401 1218 1449.5 1073 Q1498 928 1498 744 Q1498 560 1448.5 414.5 Q1399 269 1310 172 Q1218 71 1092.5 20 Q967 -31 806 -31 Q649 -31 520.5 21 Q392 73 302 172 Q212 271 163.5 415 Q115 559 115 744 Q115 926 163 1070.5 Q211 1215 303 1318 Q391 1416 521.5 1468 Q652 1520 806 1520 Q966 1520 1093.5 1467.5 Q1221 1415 1310 1318 Z M1292 744 Q1292 1034 1162 1191.5 Q1032 1349 807 1349 Q580 1349 450.5 1191.5 Q321 1034 321 744 Q321 451 453 295.5 Q585 140 807 140 Q1029 140 1160.5 295.5 Q1292 451 1292 744 Z " />
<glyph glyph-name="Pi" unicode="&#x3a0;" horiz-adv-x="1539" d="M1339 0 L1141 0 L1141 1313 L398 1313 L398 0 L200 0 L200 1489 L1339 1489 L1339 0 Z " />
<glyph glyph-name="Rho" unicode="&#x3a1;" horiz-adv-x="1235" d="M1174 1039 Q1174 940 1139.5 855.5 Q1105 771 1043 709 Q966 632 861 593.5 Q756 555 596 555 L398 555 L398 0 L200 0 L200 1489 L604 1489 Q738 1489 831 1466.5 Q924 1444 996 1396 Q1081 1339 1127.5 1254 Q1174 1169 1174 1039 Z M968 1034 Q968 1111 941 1168 Q914 1225 859 1261 Q811 1292 749.5 1305.5 Q688 1319 594 1319 L398 1319 L398 724 L565 724 Q685 724 760 745.5 Q835 767 882 814 Q929 862 948.5 915 Q968 968 968 1034 Z " />
<glyph glyph-name="Sigma" unicode="&#x3a3;" horiz-adv-x="1377" d="M1280 0 L118 0 L118 184 L738 784 L138 1310 L138 1489 L1234 1489 L1234 1313 L402 1313 L988 807 L988 781 L358 176 L1280 176 L1280 0 Z " />
<glyph glyph-name="Tau" unicode="&#x3a4;" horiz-adv-x="1262" d="M1262 1313 L730 1313 L730 0 L532 0 L532 1313 L0 1313 L0 1489 L1262 1489 L1262 1313 Z " />
<glyph glyph-name="Upsilon" unicode="&#x3a5;" horiz-adv-x="1260" d="M1254 1489 L730 653 L730 0 L532 0 L532 632 L6 1489 L225 1489 L632 823 L1043 1489 L1254 1489 Z " />
<glyph glyph-name="Chi" unicode="&#x3a7;" horiz-adv-x="1403" d="M1336 1489 L822 753 L1335 0 L1106 0 L700 613 L284 0 L68 0 L587 744 L80 1489 L308 1489 L709 884 L1119 1489 L1336 1489 Z " />
<glyph glyph-name="Psi" unicode="&#x3a8;" horiz-adv-x="1783" d="M1604 910 Q1604 753 1563.5 645.5 Q1523 538 1446 471 Q1366 402 1253.5 367 Q1141 332 990 322 L990 0 L793 0 L793 322 Q639 333 526 369 Q413 405 338 471 Q260 540 219.5 647 Q179 754 179 910 L179 1489 L377 1489 L377 887 Q377 778 406.5 707 Q436 636 488 592 Q541 547 618 523.5 Q695 500 793 493 L793 1489 L990 1489 L990 493 Q1087 501 1165 523.5 Q1243 546 1296 592 Q1352 641 1379 707.5 Q1406 774 1406 887 L1406 1489 L1604 1489 L1604 910 Z " />
<glyph glyph-name="uni03A9" unicode="&#x3a9;" horiz-adv-x="1676" d="M1568 0 L992 0 L992 387 Q1052 425 1111.5 469 Q1171 513 1215 570 Q1260 629 1286 708.5 Q1312 788 1312 894 Q1312 1100 1185 1224.5 Q1058 1349 838 1349 Q618 1349 491 1224.5 Q364 1100 364 894 Q364 788 390 708.5 Q416 629 461 570 Q506 513 565 469 Q624 425 684 387 L684 0 L108 0 L108 174 L518 174 L518 298 Q361 388 259.5 544 Q158 700 158 894 Q158 1170 345.5 1345 Q533 1520 838 1520 Q1143 1520 1330.5 1345 Q1518 1170 1518 894 Q1518 700 1416.5 544 Q1315 388 1158 298 L1158 174 L1568 174 L1568 0 Z " />
<glyph glyph-name="Iotadieresis" unicode="&#x3aa;" horiz-adv-x="862" d="M725 0 L137 0 L137 152 L332 152 L332 1337 L137 1337 L137 1489 L725 1489 L725 1337 L530 1337 L530 152 L725 152 L725 0 Z M738 1677 L539 1677 L539 1872 L738 1872 L738 1677 Z M325 1677 L126 1677 L126 1872 L325 1872 L325 1677 Z " />
<glyph glyph-name="Upsilondieresis" unicode="&#x3ab;" horiz-adv-x="1260" d="M1254 1489 L730 653 L730 0 L532 0 L532 632 L6 1489 L225 1489 L632 823 L1043 1489 L1254 1489 Z M939 1677 L740 1677 L740 1872 L939 1872 L939 1677 Z M526 1677 L327 1677 L327 1872 L526 1872 L526 1677 Z " />
<glyph glyph-name="alphatonos" unicode="&#x3ac;" horiz-adv-x="1276" d="M1091 0 L903 0 L903 117 Q822 47 734 8 Q646 -31 543 -31 Q343 -31 225.5 123 Q108 277 108 550 Q108 692 148.5 803 Q189 914 258 992 Q326 1068 416.5 1108 Q507 1148 604 1148 Q692 1148 760 1126 Q828 1104 903 1065 L903 1117 L1091 1117 L1091 0 Z M903 275 L903 911 Q827 945 767 960.5 Q707 976 636 976 Q478 976 390 866 Q302 756 302 554 Q302 355 370 251.5 Q438 148 588 148 Q668 148 750 183.5 Q832 219 903 275 Z M743 1676 L694 1292 L549 1292 L500 1676 L743 1676 Z " />
<glyph glyph-name="epsilontonos" unicode="&#x3ad;" horiz-adv-x="1050" d="M1006 64 Q899 16 796 -5 Q693 -26 578 -26 Q499 -26 417 -10 Q335 6 265 46 Q196 85 152.5 148.5 Q109 212 109 306 Q109 402 165.5 474 Q222 546 343 584 L343 591 Q252 615 198 681 Q144 747 144 839 Q144 928 191.5 986.5 Q239 1045 304 1079 Q368 1112 449 1128 Q530 1144 609 1144 Q707 1144 789 1127.5 Q871 1111 961 1083 L961 876 L948 876 Q882 927 784.5 955 Q687 983 587 983 Q542 983 503 977.5 Q464 972 422 952 Q387 937 361.5 903.5 Q336 870 336 826 Q336 765 364 731 Q392 697 440 682 Q485 668 537 666.5 Q589 665 642 665 L753 665 L753 499 L595 499 Q533 499 483 494.5 Q433 490 391 473 Q350 456 325.5 419 Q301 382 301 323 Q301 270 327 233 Q353 196 394 175 Q431 156 481.5 146 Q532 136 588 136 Q690 136 806 172 Q922 208 993 270 L1006 270 L1006 64 Z M721 1676 L672 1292 L527 1292 L478 1676 L721 1676 Z " />
<glyph glyph-name="etatonos" unicode="&#x3ae;" horiz-adv-x="1296" d="M1119 -412 L931 -412 L931 636 Q931 713 922 780.5 Q913 848 889 886 Q864 928 817 948.5 Q770 969 695 969 Q618 969 534 931 Q450 893 373 834 L373 0 L185 0 L185 1117 L373 1117 L373 993 Q461 1066 555 1107 Q649 1148 748 1148 Q929 1148 1024 1039 Q1119 930 1119 725 L1119 -412 Z M802 1676 L753 1292 L608 1292 L559 1676 L802 1676 Z " />
<glyph glyph-name="iotatonos" unicode="&#x3af;" horiz-adv-x="562" d="M375 0 L187 0 L187 1117 L375 1117 L375 0 Z M403 1676 L354 1292 L209 1292 L160 1676 L403 1676 Z " />
<glyph glyph-name="upsilondieresistonos" unicode="&#x3b0;" horiz-adv-x="1293" d="M1116 407 Q1116 189 994 79.5 Q872 -30 646 -30 Q423 -30 300 77.5 Q177 185 177 407 L177 1117 L365 1117 L365 476 Q365 383 375 323 Q385 263 417 217 Q448 174 501.5 152.5 Q555 131 647 131 Q733 131 790.5 153 Q848 175 878 219 Q907 263 917.5 324.5 Q928 386 928 476 L928 1117 L1116 1117 L1116 407 Z M760 1676 L711 1292 L583 1292 L534 1676 L760 1676 Z M1043 1304 L852 1304 L852 1499 L1043 1499 L1043 1304 Z M442 1304 L251 1304 L251 1499 L442 1499 L442 1304 Z " />
<glyph glyph-name="beta" unicode="&#x3b2;" horiz-adv-x="1270" d="M1165 444 Q1165 242 1030.5 110 Q896 -22 691 -22 Q612 -22 524 0 Q436 22 373 64 L373 -412 L185 -412 L185 1078 Q185 1302 311.5 1429 Q438 1556 661 1556 Q751 1556 825.5 1534.5 Q900 1513 959 1467 Q1016 1424 1050 1355 Q1084 1286 1084 1195 Q1084 1068 1014.5 973.5 Q945 879 818 842 L818 825 Q977 799 1071 699.5 Q1165 600 1165 444 Z M971 449 Q971 538 936.5 593.5 Q902 649 844 680 Q785 712 712 723 Q639 734 566 734 L530 734 L530 894 L566 894 Q632 894 697 908.5 Q762 923 801 953 Q847 987 869.5 1036 Q892 1085 892 1170 Q892 1282 823 1340 Q754 1398 645 1398 Q572 1398 520 1371.5 Q468 1345 435 1301 Q403 1257 388 1198.5 Q373 1140 373 1078 L373 216 Q439 178 514 162.5 Q589 147 661 147 Q810 147 890.5 225.5 Q971 304 971 449 Z " />
<glyph glyph-name="gamma" unicode="&#x3b3;" horiz-adv-x="1212" d="M1151 1117 L694 56 L694 -412 L506 -412 L506 56 L61 1117 L265 1117 L608 289 L954 1117 L1151 1117 Z " />
<glyph glyph-name="zeta" unicode="&#x3b6;" horiz-adv-x="937" d="M922 75 Q954 35 968 -10.5 Q982 -56 982 -96 Q982 -180 937 -264.5 Q892 -349 825 -412 L646 -412 L646 -398 Q736 -319 774 -259.5 Q812 -200 812 -131 Q812 -74 781.5 -36 Q751 2 704 2 L559 2 Q330 2 219 118 Q108 234 108 463 Q108 603 154 731 Q200 859 278 978 Q353 1090 451.5 1192.5 Q550 1295 658 1389 L658 1398 L198 1398 L198 1556 L942 1556 L942 1421 Q825 1343 710.5 1240 Q596 1137 506 1017 Q417 900 360 760 Q303 620 303 477 Q303 443 306 407 Q309 371 321 331 Q331 293 355.5 255.5 Q380 218 419 194 Q455 172 515.5 169.5 Q576 167 632 167 L718 167 Q789 167 840 141 Q891 115 922 75 Z " />
<glyph glyph-name="eta" unicode="&#x3b7;" horiz-adv-x="1296" d="M1119 -412 L931 -412 L931 636 Q931 713 922 780.5 Q913 848 889 886 Q864 928 817 948.5 Q770 969 695 969 Q618 969 534 931 Q450 893 373 834 L373 0 L185 0 L185 1117 L373 1117 L373 993 Q461 1066 555 1107 Q649 1148 748 1148 Q929 1148 1024 1039 Q1119 930 1119 725 L1119 -412 Z " />
<glyph glyph-name="theta" unicode="&#x3b8;" horiz-adv-x="1278" d="M1141 768 Q1141 578 1118 451.5 Q1095 325 1059 241 Q1001 106 896 37.5 Q791 -31 639 -31 Q487 -31 382 37.5 Q277 106 219 241 Q182 325 159.5 451.5 Q137 578 137 768 Q137 942 159.5 1073.5 Q182 1205 220 1288 Q277 1418 382.5 1487 Q488 1556 639 1556 Q790 1556 895.5 1487 Q1001 1418 1058 1288 Q1095 1204 1118 1073 Q1141 942 1141 768 Z M952 858 Q948 1001 923.5 1108 Q899 1215 867 1269 Q826 1339 772 1367.5 Q718 1396 639 1396 Q560 1396 506 1367.5 Q452 1339 411 1269 Q377 1214 353.5 1107.5 Q330 1001 326 858 L952 858 Z M952 697 L326 697 Q326 555 349 438.5 Q372 322 408 260 Q448 191 504 160 Q560 129 639 129 Q718 129 774 160 Q830 191 870 260 Q906 322 929 438.5 Q952 555 952 697 Z " />
<glyph glyph-name="iota" unicode="&#x3b9;" horiz-adv-x="562" d="M375 0 L187 0 L187 1117 L375 1117 L375 0 Z " />
<glyph glyph-name="kappa" unicode="&#x3ba;" horiz-adv-x="1212" d="M1192 0 L944 0 L493 489 L381 380 L381 0 L193 0 L193 1117 L381 1117 L381 567 L765 984 Q837 1063 900.5 1091 Q964 1119 1027 1119 Q1055 1119 1085 1118 Q1115 1117 1122 1117 L1122 951 L1111 951 Q1095 953 1071.5 954 Q1048 955 1035 955 Q988 955 949.5 931.5 Q911 908 882 875 L631 604 L1192 0 Z " />
<glyph glyph-name="lambda" unicode="&#x3bb;" horiz-adv-x="1212" d="M1151 0 L946 0 L618 829 L257 0 L61 0 L526 1056 L311 1556 L522 1556 L1151 0 Z " />
<glyph glyph-name="uni03BC" unicode="&#x3bc;" horiz-adv-x="1310" d="M1125 0 L939 0 L939 118 Q865 40 797.5 9.5 Q730 -21 652 -21 Q577 -21 517 6 Q457 33 373 113 L373 -412 L185 -412 L185 1117 L373 1117 L373 279 Q405 240 484 199 Q563 158 654 158 Q747 158 815 191.5 Q883 225 937 285 L937 1117 L1125 1117 L1125 0 Z " />
<glyph glyph-name="nu" unicode="&#x3bd;" horiz-adv-x="1212" d="M1151 1117 L699 0 L510 0 L61 1117 L265 1117 L611 228 L954 1117 L1151 1117 Z " />
<glyph glyph-name="xi" unicode="&#x3be;" horiz-adv-x="1030" d="M1041 -96 Q1041 -181 995.5 -265 Q950 -349 884 -412 L704 -412 L704 -398 Q796 -319 833.5 -259 Q871 -199 871 -131 Q871 -76 842 -37 Q813 2 767 2 L627 2 Q487 2 394.5 29 Q302 56 239 113 Q173 173 138.5 248.5 Q104 324 104 412 Q104 490 129 556 Q154 622 202 675 Q246 724 314.5 758.5 Q383 793 459 812 L459 823 Q334 851 259 933.5 Q184 1016 184 1120 Q184 1203 227.5 1270.5 Q271 1338 361 1396 L361 1402 L133 1402 L133 1556 L957 1556 L957 1398 L701 1398 Q633 1398 578.5 1383.5 Q524 1369 476 1335 Q431 1303 404 1252 Q377 1201 377 1134 Q377 1055 409.5 1006 Q442 957 493 931 Q538 908 597 897 Q656 886 736 886 L906 886 L906 721 L611 721 Q545 721 492.5 701 Q440 681 393 642 Q350 605 324.5 552 Q299 499 299 440 Q299 338 336.5 281 Q374 224 438 199 Q501 174 577.5 170.5 Q654 167 744 167 L772 167 Q840 167 891.5 143.5 Q943 120 976 83 Q1007 48 1024 0.5 Q1041 -47 1041 -96 Z " />
<glyph glyph-name="omicron" unicode="&#x3bf;" horiz-adv-x="1243" d="M1137 558 Q1137 285 997 127 Q857 -31 622 -31 Q385 -31 245.5 127 Q106 285 106 558 Q106 831 245.5 989.5 Q385 1148 622 1148 Q857 1148 997 989.5 Q1137 831 1137 558 Z M943 558 Q943 775 858 880.5 Q773 986 622 986 Q469 986 384.5 880.5 Q300 775 300 558 Q300 348 385 239.5 Q470 131 622 131 Q772 131 857.5 238.5 Q943 346 943 558 Z " />
<glyph glyph-name="rho" unicode="&#x3c1;" horiz-adv-x="1280" d="M1172 577 Q1172 319 1033.5 148.5 Q895 -22 673 -22 Q608 -22 526.5 -4 Q445 14 373 57 L373 -412 L185 -412 L185 646 Q185 769 220.5 861.5 Q256 954 322 1020 Q384 1082 477.5 1115 Q571 1148 673 1148 Q916 1148 1044 1001 Q1172 854 1172 577 Z M978 565 Q978 783 898 885 Q818 987 672 987 Q514 987 443.5 891 Q373 795 373 613 L373 210 Q446 176 505.5 161.5 Q565 147 640 147 Q802 147 890 258 Q978 369 978 565 Z " />
<glyph glyph-name="sigma1" unicode="&#x3c2;" horiz-adv-x="1040" d="M1018 -96 Q1018 -183 971 -268 Q924 -353 862 -412 L685 -412 L685 -398 Q771 -323 809.5 -262.5 Q848 -202 848 -131 Q848 -77 818 -37.5 Q788 2 743 2 L651 2 Q534 2 435 32 Q336 62 261 129 Q188 195 146.5 299 Q105 403 105 549 Q105 819 260.5 981 Q416 1143 675 1143 Q759 1143 839 1124.5 Q919 1106 986 1079 L986 868 L974 868 Q880 930 801.5 955 Q723 980 655 980 Q489 980 394.5 861 Q300 742 300 549 Q300 437 328.5 366 Q357 295 407 250 Q457 206 521.5 186.5 Q586 167 661 167 L761 167 Q876 167 947 90.5 Q1018 14 1018 -96 Z " />
<glyph glyph-name="upsilon" unicode="&#x3c5;" horiz-adv-x="1293" d="M1116 407 Q1116 189 994 79.5 Q872 -30 646 -30 Q423 -30 300 77.5 Q177 185 177 407 L177 1117 L365 1117 L365 476 Q365 383 375 323 Q385 263 417 217 Q448 174 501.5 152.5 Q555 131 647 131 Q733 131 790.5 153 Q848 175 878 219 Q907 263 917.5 324.5 Q928 386 928 476 L928 1117 L1116 1117 L1116 407 Z " />
<glyph glyph-name="chi" unicode="&#x3c7;" horiz-adv-x="1208" d="M1160 -412 L947 -412 L601 207 L251 -412 L48 -412 L492 358 L59 1117 L272 1117 L607 517 L946 1117 L1149 1117 L716 366 L1160 -412 Z " />
<glyph glyph-name="psi" unicode="&#x3c8;" horiz-adv-x="1683" d="M1507 446 Q1507 332 1459 248 Q1411 164 1332 111 Q1250 56 1150 28.5 Q1050 1 935 -4 L935 -412 L748 -412 L748 -4 Q633 2 533.5 28 Q434 54 351 111 Q271 165 223.5 248.5 Q176 332 176 446 L176 1117 L364 1117 L364 505 Q364 392 401.5 324.5 Q439 257 491 222 Q547 184 614 169 Q681 154 748 150 L748 1117 L935 1117 L935 150 Q1002 155 1069 169 Q1136 183 1192 222 Q1251 262 1285 323.5 Q1319 385 1319 505 L1319 1117 L1507 1117 L1507 446 Z " />
<glyph glyph-name="omega" unicode="&#x3c9;" horiz-adv-x="1666" d="M1553 503 Q1553 407 1529.5 310.5 Q1506 214 1455 139 Q1400 59 1321.5 14.5 Q1243 -30 1128 -30 Q1032 -30 951 19.5 Q870 69 833 136 L827 136 Q788 68 714 19 Q640 -30 538 -30 Q425 -30 343.5 16.5 Q262 63 211 139 Q160 215 136.5 310.5 Q113 406 113 503 Q113 673 170 811.5 Q227 950 371 1117 L599 1117 L599 1100 Q464 992 384.5 838 Q305 684 305 501 Q305 435 313 378.5 Q321 322 351 259 Q377 204 423.5 167.5 Q470 131 541 131 Q592 131 627.5 143.5 Q663 156 683 173 Q705 191 719.5 213 Q734 235 740 250 L740 834 L926 834 L926 250 Q935 233 949 211 Q963 189 984 172 Q1008 153 1036.5 142 Q1065 131 1123 131 Q1193 131 1240 166.5 Q1287 202 1314 259 Q1339 314 1350 375 Q1361 436 1361 501 Q1361 683 1282.5 837 Q1204 991 1067 1100 L1067 1117 L1295 1117 Q1439 950 1496 811.5 Q1553 673 1553 503 Z " />
<glyph glyph-name="iotadieresis" unicode="&#x3ca;" horiz-adv-x="562" d="M557 1304 L368 1304 L368 1499 L557 1499 L557 1304 Z M194 1304 L5 1304 L5 1499 L194 1499 L194 1304 Z M375 0 L187 0 L187 1117 L375 1117 L375 0 Z " />
<glyph glyph-name="upsilondieresis" unicode="&#x3cb;" horiz-adv-x="1293" d="M1116 407 Q1116 189 994 79.5 Q872 -30 646 -30 Q423 -30 300 77.5 Q177 185 177 407 L177 1117 L365 1117 L365 476 Q365 383 375 323 Q385 263 417 217 Q448 174 501.5 152.5 Q555 131 647 131 Q733 131 790.5 153 Q848 175 878 219 Q907 263 917.5 324.5 Q928 386 928 476 L928 1117 L1116 1117 L1116 407 Z M953 1304 L754 1304 L754 1499 L953 1499 L953 1304 Z M540 1304 L341 1304 L341 1499 L540 1499 L540 1304 Z " />
<glyph glyph-name="omicrontonos" unicode="&#x3cc;" horiz-adv-x="1243" d="M1137 558 Q1137 285 997 127 Q857 -31 622 -31 Q385 -31 245.5 127 Q106 285 106 558 Q106 831 245.5 989.5 Q385 1148 622 1148 Q857 1148 997 989.5 Q1137 831 1137 558 Z M943 558 Q943 775 858 880.5 Q773 986 622 986 Q469 986 384.5 880.5 Q300 775 300 558 Q300 348 385 239.5 Q470 131 622 131 Q772 131 857.5 238.5 Q943 346 943 558 Z M743 1676 L694 1292 L549 1292 L500 1676 L743 1676 Z " />
<glyph glyph-name="upsilontonos" unicode="&#x3cd;" horiz-adv-x="1293" d="M1116 407 Q1116 189 994 79.5 Q872 -30 646 -30 Q423 -30 300 77.5 Q177 185 177 407 L177 1117 L365 1117 L365 476 Q365 383 375 323 Q385 263 417 217 Q448 174 501.5 152.5 Q555 131 647 131 Q733 131 790.5 153 Q848 175 878 219 Q907 263 917.5 324.5 Q928 386 928 476 L928 1117 L1116 1117 L1116 407 Z M768 1676 L719 1292 L574 1292 L525 1676 L768 1676 Z " />
<glyph glyph-name="omegatonos" unicode="&#x3ce;" horiz-adv-x="1666" d="M1553 503 Q1553 407 1529.5 310.5 Q1506 214 1455 139 Q1400 59 1321.5 14.5 Q1243 -30 1128 -30 Q1032 -30 951 19.5 Q870 69 833 136 L827 136 Q788 68 714 19 Q640 -30 538 -30 Q425 -30 343.5 16.5 Q262 63 211 139 Q160 215 136.5 310.5 Q113 406 113 503 Q113 673 170 811.5 Q227 950 371 1117 L599 1117 L599 1100 Q464 992 384.5 838 Q305 684 305 501 Q305 435 313 378.5 Q321 322 351 259 Q377 204 423.5 167.5 Q470 131 541 131 Q592 131 627.5 143.5 Q663 156 683 173 Q705 191 719.5 213 Q734 235 740 250 L740 834 L926 834 L926 250 Q935 233 949 211 Q963 189 984 172 Q1008 153 1036.5 142 Q1065 131 1123 131 Q1193 131 1240 166.5 Q1287 202 1314 259 Q1339 314 1350 375 Q1361 436 1361 501 Q1361 683 1282.5 837 Q1204 991 1067 1100 L1067 1117 L1295 1117 Q1439 950 1496 811.5 Q1553 673 1553 503 Z M955 1676 L906 1292 L761 1292 L712 1676 L955 1676 Z " />
<glyph glyph-name="uni0401" unicode="&#x401;" horiz-adv-x="1295" d="M1181 0 L200 0 L200 1489 L1181 1489 L1181 1313 L398 1313 L398 905 L1181 905 L1181 729 L398 729 L398 176 L1181 176 L1181 0 Z M1038 1677 L839 1677 L839 1872 L1038 1872 L1038 1677 Z M625 1677 L426 1677 L426 1872 L625 1872 L625 1677 Z " />
</font>
</svg>
